<svg width="25" height="24" viewBox="0 0 25 24" fill="none" xmlns="http://www.w3.org/2000/svg">
<g clip-path="url(#clip0_125_1009)">
<path d="M24.4981 6.50695C24.3622 6.02219 24.0974 5.5833 23.7321 5.23695C23.3563 4.87996 22.8959 4.62459 22.3941 4.49495C20.5161 3.99995 12.9921 3.99995 12.9921 3.99995C9.85538 3.96427 6.71948 4.12123 3.60205 4.46995C3.10024 4.60917 2.64062 4.87024 2.26405 5.22995C1.89405 5.58595 1.62605 6.02495 1.48605 6.50595C1.14975 8.3177 0.986346 10.1573 0.998054 12C0.986054 13.841 1.14905 15.68 1.48605 17.494C1.62305 17.973 1.89005 18.41 2.26105 18.763C2.63205 19.116 3.09405 19.371 3.60205 19.506C5.50505 20 12.9921 20 12.9921 20C16.1327 20.0357 19.2726 19.8787 22.3941 19.53C22.8959 19.4003 23.3563 19.145 23.7321 18.788C24.0973 18.4417 24.3617 18.0027 24.4971 17.518C24.8421 15.7069 25.0099 13.8665 24.9981 12.023C25.024 10.1716 24.8564 8.32252 24.4981 6.50595V6.50695ZM10.6001 15.424V8.57695L16.8601 12.001L10.6001 15.424Z" fill="white"/>
</g>
<defs>
<clipPath id="clip0_125_1009">
<rect width="24" height="24" fill="white" transform="translate(0.998047)"/>
</clipPath>
</defs>
</svg>
