<svg width="18" height="59" viewBox="0 0 18 59" fill="none" xmlns="http://www.w3.org/2000/svg">
<path d="M8.83997 28.03L15.68 34.86L17.69 32.85L8.83997 24L0 32.85L2.01001 34.86L8.83997 28.03Z" fill="#454957"/>
<path d="M8.83997 39.9601L15.68 46.79L17.69 44.7801L8.83997 35.9301L0 44.7801L2.01001 46.79L8.83997 39.9601Z" fill="#454957"/>
<path d="M8.83997 52.03L15.68 58.87L17.69 56.85L8.83997 48.01L0 56.85L2.01001 58.87L8.83997 52.03Z" fill="#454957"/>
<path d="M8.83997 4.03003L15.68 10.86L17.69 8.85001L8.83997 0L0 8.85001L2.01001 10.86L8.83997 4.03003Z" fill="#454957"/>
<path d="M8.83997 15.9601L15.68 22.79L17.69 20.7801L8.83997 11.9301L0 20.7801L2.01001 22.79L8.83997 15.9601Z" fill="#454957"/>
</svg>
