<svg width="253" height="298" viewBox="0 0 253 298" fill="none" xmlns="http://www.w3.org/2000/svg">
<path d="M1.53008 2.40002C2.19282 2.40002 2.73008 1.86275 2.73008 1.20001C2.73008 0.53727 2.19282 0 1.53008 0C0.867333 0 0.330078 0.53727 0.330078 1.20001C0.330078 1.86275 0.867333 2.40002 1.53008 2.40002Z" fill="#515563"/>
<path d="M15.3101 2.40002C15.9728 2.40002 16.5101 1.86275 16.5101 1.20001C16.5101 0.53727 15.9728 0 15.3101 0C14.6474 0 14.1101 0.53727 14.1101 1.20001C14.1101 1.86275 14.6474 2.40002 15.3101 2.40002Z" fill="#515563"/>
<path d="M29.0901 2.40002C29.7529 2.40002 30.2901 1.86275 30.2901 1.20001C30.2901 0.53727 29.7529 0 29.0901 0C28.4274 0 27.8901 0.53727 27.8901 1.20001C27.8901 1.86275 28.4274 2.40002 29.0901 2.40002Z" fill="#515563"/>
<path d="M42.8702 2.40002C43.5329 2.40002 44.0702 1.86275 44.0702 1.20001C44.0702 0.53727 43.5329 0 42.8702 0C42.2074 0 41.6702 0.53727 41.6702 1.20001C41.6702 1.86275 42.2074 2.40002 42.8702 2.40002Z" fill="#515563"/>
<path d="M56.6501 2.40002C57.3128 2.40002 57.8501 1.86275 57.8501 1.20001C57.8501 0.53727 57.3128 0 56.6501 0C55.9873 0 55.4501 0.53727 55.4501 1.20001C55.4501 1.86275 55.9873 2.40002 56.6501 2.40002Z" fill="#515563"/>
<path d="M70.4301 2.40002C71.0928 2.40002 71.6301 1.86275 71.6301 1.20001C71.6301 0.53727 71.0928 0 70.4301 0C69.7674 0 69.2301 0.53727 69.2301 1.20001C69.2301 1.86275 69.7674 2.40002 70.4301 2.40002Z" fill="#515563"/>
<path d="M84.22 2.40002C84.8828 2.40002 85.42 1.86275 85.42 1.20001C85.42 0.53727 84.8828 0 84.22 0C83.5573 0 83.02 0.53727 83.02 1.20001C83.02 1.86275 83.5573 2.40002 84.22 2.40002Z" fill="#515563"/>
<path d="M98 2.40002C98.6628 2.40002 99.2001 1.86275 99.2001 1.20001C99.2001 0.53727 98.6628 0 98 0C97.3373 0 96.8 0.53727 96.8 1.20001C96.8 1.86275 97.3373 2.40002 98 2.40002Z" fill="#515563"/>
<path d="M112.98 1.20001C112.98 1.86001 112.44 2.40002 111.78 2.40002C111.12 2.40002 110.58 1.86001 110.58 1.20001C110.58 0.540012 111.12 0 111.78 0C112.44 0 112.98 0.540012 112.98 1.20001Z" fill="#515563"/>
<path d="M125.56 2.40002C126.223 2.40002 126.76 1.86275 126.76 1.20001C126.76 0.53727 126.223 0 125.56 0C124.897 0 124.36 0.53727 124.36 1.20001C124.36 1.86275 124.897 2.40002 125.56 2.40002Z" fill="#515563"/>
<path d="M139.34 2.40002C140.003 2.40002 140.54 1.86275 140.54 1.20001C140.54 0.53727 140.003 0 139.34 0C138.677 0 138.14 0.53727 138.14 1.20001C138.14 1.86275 138.677 2.40002 139.34 2.40002Z" fill="#515563"/>
<path d="M153.12 2.40002C153.783 2.40002 154.32 1.86275 154.32 1.20001C154.32 0.53727 153.783 0 153.12 0C152.457 0 151.92 0.53727 151.92 1.20001C151.92 1.86275 152.457 2.40002 153.12 2.40002Z" fill="#515563"/>
<path d="M166.91 2.40002C167.573 2.40002 168.11 1.86275 168.11 1.20001C168.11 0.53727 167.573 0 166.91 0C166.247 0 165.71 0.53727 165.71 1.20001C165.71 1.86275 166.247 2.40002 166.91 2.40002Z" fill="#515563"/>
<path d="M180.69 2.40002C181.353 2.40002 181.89 1.86275 181.89 1.20001C181.89 0.53727 181.353 0 180.69 0C180.027 0 179.49 0.53727 179.49 1.20001C179.49 1.86275 180.027 2.40002 180.69 2.40002Z" fill="#515563"/>
<path d="M194.47 2.40002C195.133 2.40002 195.67 1.86275 195.67 1.20001C195.67 0.53727 195.133 0 194.47 0C193.807 0 193.27 0.53727 193.27 1.20001C193.27 1.86275 193.807 2.40002 194.47 2.40002Z" fill="#515563"/>
<path d="M208.25 2.40002C208.913 2.40002 209.45 1.86275 209.45 1.20001C209.45 0.53727 208.913 0 208.25 0C207.587 0 207.05 0.53727 207.05 1.20001C207.05 1.86275 207.587 2.40002 208.25 2.40002Z" fill="#515563"/>
<path d="M222.03 2.40002C222.693 2.40002 223.23 1.86275 223.23 1.20001C223.23 0.53727 222.693 0 222.03 0C221.367 0 220.83 0.53727 220.83 1.20001C220.83 1.86275 221.367 2.40002 222.03 2.40002Z" fill="#515563"/>
<path d="M235.81 2.40002C236.473 2.40002 237.01 1.86275 237.01 1.20001C237.01 0.53727 236.473 0 235.81 0C235.147 0 234.61 0.53727 234.61 1.20001C234.61 1.86275 235.147 2.40002 235.81 2.40002Z" fill="#515563"/>
<path d="M250.79 1.20001C250.79 1.86001 250.25 2.40002 249.59 2.40002C248.93 2.40002 248.39 1.86001 248.39 1.20001C248.39 0.540012 248.93 0 249.59 0C250.26 0 250.79 0.540012 250.79 1.20001Z" fill="#515563"/>
<path d="M1.53008 15.88C2.19282 15.88 2.73008 15.3427 2.73008 14.68C2.73008 14.0173 2.19282 13.48 1.53008 13.48C0.867333 13.48 0.330078 14.0173 0.330078 14.68C0.330078 15.3427 0.867333 15.88 1.53008 15.88Z" fill="#515563"/>
<path d="M15.3101 15.88C15.9728 15.88 16.5101 15.3427 16.5101 14.68C16.5101 14.0173 15.9728 13.48 15.3101 13.48C14.6474 13.48 14.1101 14.0173 14.1101 14.68C14.1101 15.3427 14.6474 15.88 15.3101 15.88Z" fill="#515563"/>
<path d="M29.0901 15.88C29.7529 15.88 30.2901 15.3427 30.2901 14.68C30.2901 14.0173 29.7529 13.48 29.0901 13.48C28.4274 13.48 27.8901 14.0173 27.8901 14.68C27.8901 15.3427 28.4274 15.88 29.0901 15.88Z" fill="#515563"/>
<path d="M42.8702 15.88C43.5329 15.88 44.0702 15.3427 44.0702 14.68C44.0702 14.0173 43.5329 13.48 42.8702 13.48C42.2074 13.48 41.6702 14.0173 41.6702 14.68C41.6702 15.3427 42.2074 15.88 42.8702 15.88Z" fill="#515563"/>
<path d="M56.6501 15.88C57.3128 15.88 57.8501 15.3427 57.8501 14.68C57.8501 14.0173 57.3128 13.48 56.6501 13.48C55.9873 13.48 55.4501 14.0173 55.4501 14.68C55.4501 15.3427 55.9873 15.88 56.6501 15.88Z" fill="#515563"/>
<path d="M70.4301 15.88C71.0928 15.88 71.6301 15.3427 71.6301 14.68C71.6301 14.0173 71.0928 13.48 70.4301 13.48C69.7674 13.48 69.2301 14.0173 69.2301 14.68C69.2301 15.3427 69.7674 15.88 70.4301 15.88Z" fill="#515563"/>
<path d="M84.22 15.88C84.8828 15.88 85.42 15.3427 85.42 14.68C85.42 14.0173 84.8828 13.48 84.22 13.48C83.5573 13.48 83.02 14.0173 83.02 14.68C83.02 15.3427 83.5573 15.88 84.22 15.88Z" fill="#515563"/>
<path d="M98 15.88C98.6628 15.88 99.2001 15.3427 99.2001 14.68C99.2001 14.0173 98.6628 13.48 98 13.48C97.3373 13.48 96.8 14.0173 96.8 14.68C96.8 15.3427 97.3373 15.88 98 15.88Z" fill="#515563"/>
<path d="M112.98 14.68C112.98 15.34 112.44 15.88 111.78 15.88C111.12 15.88 110.58 15.34 110.58 14.68C110.58 14.02 111.12 13.48 111.78 13.48C112.44 13.49 112.98 14.02 112.98 14.68Z" fill="#515563"/>
<path d="M125.56 15.88C126.223 15.88 126.76 15.3427 126.76 14.68C126.76 14.0173 126.223 13.48 125.56 13.48C124.897 13.48 124.36 14.0173 124.36 14.68C124.36 15.3427 124.897 15.88 125.56 15.88Z" fill="#515563"/>
<path d="M139.34 15.88C140.003 15.88 140.54 15.3427 140.54 14.68C140.54 14.0173 140.003 13.48 139.34 13.48C138.677 13.48 138.14 14.0173 138.14 14.68C138.14 15.3427 138.677 15.88 139.34 15.88Z" fill="#515563"/>
<path d="M153.12 15.88C153.783 15.88 154.32 15.3427 154.32 14.68C154.32 14.0173 153.783 13.48 153.12 13.48C152.457 13.48 151.92 14.0173 151.92 14.68C151.92 15.3427 152.457 15.88 153.12 15.88Z" fill="#515563"/>
<path d="M166.91 15.88C167.573 15.88 168.11 15.3427 168.11 14.68C168.11 14.0173 167.573 13.48 166.91 13.48C166.247 13.48 165.71 14.0173 165.71 14.68C165.71 15.3427 166.247 15.88 166.91 15.88Z" fill="#515563"/>
<path d="M180.69 15.88C181.353 15.88 181.89 15.3427 181.89 14.68C181.89 14.0173 181.353 13.48 180.69 13.48C180.027 13.48 179.49 14.0173 179.49 14.68C179.49 15.3427 180.027 15.88 180.69 15.88Z" fill="#515563"/>
<path d="M194.47 15.88C195.133 15.88 195.67 15.3427 195.67 14.68C195.67 14.0173 195.133 13.48 194.47 13.48C193.807 13.48 193.27 14.0173 193.27 14.68C193.27 15.3427 193.807 15.88 194.47 15.88Z" fill="#515563"/>
<path d="M208.25 15.88C208.913 15.88 209.45 15.3427 209.45 14.68C209.45 14.0173 208.913 13.48 208.25 13.48C207.587 13.48 207.05 14.0173 207.05 14.68C207.05 15.3427 207.587 15.88 208.25 15.88Z" fill="#515563"/>
<path d="M222.03 15.88C222.693 15.88 223.23 15.3427 223.23 14.68C223.23 14.0173 222.693 13.48 222.03 13.48C221.367 13.48 220.83 14.0173 220.83 14.68C220.83 15.3427 221.367 15.88 222.03 15.88Z" fill="#515563"/>
<path d="M235.81 15.88C236.473 15.88 237.01 15.3427 237.01 14.68C237.01 14.0173 236.473 13.48 235.81 13.48C235.147 13.48 234.61 14.0173 234.61 14.68C234.61 15.3427 235.147 15.88 235.81 15.88Z" fill="#515563"/>
<path d="M250.79 14.68C250.79 15.34 250.25 15.88 249.59 15.88C248.93 15.88 248.39 15.34 248.39 14.68C248.39 14.02 248.93 13.48 249.59 13.48C250.26 13.49 250.79 14.02 250.79 14.68Z" fill="#515563"/>
<path d="M1.53008 29.37C2.19282 29.37 2.73008 28.8327 2.73008 28.17C2.73008 27.5072 2.19282 26.97 1.53008 26.97C0.867333 26.97 0.330078 27.5072 0.330078 28.17C0.330078 28.8327 0.867333 29.37 1.53008 29.37Z" fill="#515563"/>
<path d="M15.3101 29.37C15.9728 29.37 16.5101 28.8327 16.5101 28.17C16.5101 27.5072 15.9728 26.97 15.3101 26.97C14.6474 26.97 14.1101 27.5072 14.1101 28.17C14.1101 28.8327 14.6474 29.37 15.3101 29.37Z" fill="#515563"/>
<path d="M29.0901 29.37C29.7529 29.37 30.2901 28.8327 30.2901 28.17C30.2901 27.5072 29.7529 26.97 29.0901 26.97C28.4274 26.97 27.8901 27.5072 27.8901 28.17C27.8901 28.8327 28.4274 29.37 29.0901 29.37Z" fill="#515563"/>
<path d="M42.8702 29.37C43.5329 29.37 44.0702 28.8327 44.0702 28.17C44.0702 27.5072 43.5329 26.97 42.8702 26.97C42.2074 26.97 41.6702 27.5072 41.6702 28.17C41.6702 28.8327 42.2074 29.37 42.8702 29.37Z" fill="#515563"/>
<path d="M56.6501 29.37C57.3128 29.37 57.8501 28.8327 57.8501 28.17C57.8501 27.5072 57.3128 26.97 56.6501 26.97C55.9873 26.97 55.4501 27.5072 55.4501 28.17C55.4501 28.8327 55.9873 29.37 56.6501 29.37Z" fill="#515563"/>
<path d="M70.4301 29.37C71.0928 29.37 71.6301 28.8327 71.6301 28.17C71.6301 27.5072 71.0928 26.97 70.4301 26.97C69.7674 26.97 69.2301 27.5072 69.2301 28.17C69.2301 28.8327 69.7674 29.37 70.4301 29.37Z" fill="#515563"/>
<path d="M84.22 29.37C84.8828 29.37 85.42 28.8327 85.42 28.17C85.42 27.5072 84.8828 26.97 84.22 26.97C83.5573 26.97 83.02 27.5072 83.02 28.17C83.02 28.8327 83.5573 29.37 84.22 29.37Z" fill="#515563"/>
<path d="M98 29.37C98.6628 29.37 99.2001 28.8327 99.2001 28.17C99.2001 27.5072 98.6628 26.97 98 26.97C97.3373 26.97 96.8 27.5072 96.8 28.17C96.8 28.8327 97.3373 29.37 98 29.37Z" fill="#515563"/>
<path d="M112.98 28.17C112.98 28.83 112.44 29.37 111.78 29.37C111.12 29.37 110.58 28.83 110.58 28.17C110.58 27.51 111.12 26.97 111.78 26.97C112.44 26.97 112.98 27.5 112.98 28.17Z" fill="#515563"/>
<path d="M125.56 29.37C126.223 29.37 126.76 28.8327 126.76 28.17C126.76 27.5072 126.223 26.97 125.56 26.97C124.897 26.97 124.36 27.5072 124.36 28.17C124.36 28.8327 124.897 29.37 125.56 29.37Z" fill="#515563"/>
<path d="M139.34 29.37C140.003 29.37 140.54 28.8327 140.54 28.17C140.54 27.5072 140.003 26.97 139.34 26.97C138.677 26.97 138.14 27.5072 138.14 28.17C138.14 28.8327 138.677 29.37 139.34 29.37Z" fill="#515563"/>
<path d="M153.12 29.37C153.783 29.37 154.32 28.8327 154.32 28.17C154.32 27.5072 153.783 26.97 153.12 26.97C152.457 26.97 151.92 27.5072 151.92 28.17C151.92 28.8327 152.457 29.37 153.12 29.37Z" fill="#515563"/>
<path d="M166.91 29.37C167.573 29.37 168.11 28.8327 168.11 28.17C168.11 27.5072 167.573 26.97 166.91 26.97C166.247 26.97 165.71 27.5072 165.71 28.17C165.71 28.8327 166.247 29.37 166.91 29.37Z" fill="#515563"/>
<path d="M180.69 29.37C181.353 29.37 181.89 28.8327 181.89 28.17C181.89 27.5072 181.353 26.97 180.69 26.97C180.027 26.97 179.49 27.5072 179.49 28.17C179.49 28.8327 180.027 29.37 180.69 29.37Z" fill="#515563"/>
<path d="M194.47 29.37C195.133 29.37 195.67 28.8327 195.67 28.17C195.67 27.5072 195.133 26.97 194.47 26.97C193.807 26.97 193.27 27.5072 193.27 28.17C193.27 28.8327 193.807 29.37 194.47 29.37Z" fill="#515563"/>
<path d="M208.25 29.37C208.913 29.37 209.45 28.8327 209.45 28.17C209.45 27.5072 208.913 26.97 208.25 26.97C207.587 26.97 207.05 27.5072 207.05 28.17C207.05 28.8327 207.587 29.37 208.25 29.37Z" fill="#515563"/>
<path d="M222.03 29.37C222.693 29.37 223.23 28.8327 223.23 28.17C223.23 27.5072 222.693 26.97 222.03 26.97C221.367 26.97 220.83 27.5072 220.83 28.17C220.83 28.8327 221.367 29.37 222.03 29.37Z" fill="#515563"/>
<path d="M235.81 29.37C236.473 29.37 237.01 28.8327 237.01 28.17C237.01 27.5072 236.473 26.97 235.81 26.97C235.147 26.97 234.61 27.5072 234.61 28.17C234.61 28.8327 235.147 29.37 235.81 29.37Z" fill="#515563"/>
<path d="M250.79 28.17C250.79 28.83 250.25 29.37 249.59 29.37C248.93 29.37 248.39 28.83 248.39 28.17C248.39 27.51 248.93 26.97 249.59 26.97C250.26 26.97 250.79 27.5 250.79 28.17Z" fill="#515563"/>
<path d="M1.53008 42.85C2.19282 42.85 2.73008 42.3128 2.73008 41.65C2.73008 40.9873 2.19282 40.45 1.53008 40.45C0.867333 40.45 0.330078 40.9873 0.330078 41.65C0.330078 42.3128 0.867333 42.85 1.53008 42.85Z" fill="#515563"/>
<path d="M15.3101 42.85C15.9728 42.85 16.5101 42.3128 16.5101 41.65C16.5101 40.9873 15.9728 40.45 15.3101 40.45C14.6474 40.45 14.1101 40.9873 14.1101 41.65C14.1101 42.3128 14.6474 42.85 15.3101 42.85Z" fill="#515563"/>
<path d="M29.0901 42.85C29.7529 42.85 30.2901 42.3128 30.2901 41.65C30.2901 40.9873 29.7529 40.45 29.0901 40.45C28.4274 40.45 27.8901 40.9873 27.8901 41.65C27.8901 42.3128 28.4274 42.85 29.0901 42.85Z" fill="#515563"/>
<path d="M42.8702 42.85C43.5329 42.85 44.0702 42.3128 44.0702 41.65C44.0702 40.9873 43.5329 40.45 42.8702 40.45C42.2074 40.45 41.6702 40.9873 41.6702 41.65C41.6702 42.3128 42.2074 42.85 42.8702 42.85Z" fill="#515563"/>
<path d="M56.6501 42.85C57.3128 42.85 57.8501 42.3128 57.8501 41.65C57.8501 40.9873 57.3128 40.45 56.6501 40.45C55.9873 40.45 55.4501 40.9873 55.4501 41.65C55.4501 42.3128 55.9873 42.85 56.6501 42.85Z" fill="#515563"/>
<path d="M70.4301 42.85C71.0928 42.85 71.6301 42.3128 71.6301 41.65C71.6301 40.9873 71.0928 40.45 70.4301 40.45C69.7674 40.45 69.2301 40.9873 69.2301 41.65C69.2301 42.3128 69.7674 42.85 70.4301 42.85Z" fill="#515563"/>
<path d="M84.22 42.85C84.8828 42.85 85.42 42.3128 85.42 41.65C85.42 40.9873 84.8828 40.45 84.22 40.45C83.5573 40.45 83.02 40.9873 83.02 41.65C83.02 42.3128 83.5573 42.85 84.22 42.85Z" fill="#515563"/>
<path d="M98 42.85C98.6628 42.85 99.2001 42.3128 99.2001 41.65C99.2001 40.9873 98.6628 40.45 98 40.45C97.3373 40.45 96.8 40.9873 96.8 41.65C96.8 42.3128 97.3373 42.85 98 42.85Z" fill="#515563"/>
<path d="M112.98 41.65C112.98 42.31 112.44 42.85 111.78 42.85C111.12 42.85 110.58 42.31 110.58 41.65C110.58 40.99 111.12 40.45 111.78 40.45C112.44 40.45 112.98 40.99 112.98 41.65Z" fill="#515563"/>
<path d="M125.56 42.85C126.223 42.85 126.76 42.3128 126.76 41.65C126.76 40.9873 126.223 40.45 125.56 40.45C124.897 40.45 124.36 40.9873 124.36 41.65C124.36 42.3128 124.897 42.85 125.56 42.85Z" fill="#515563"/>
<path d="M139.34 42.85C140.003 42.85 140.54 42.3128 140.54 41.65C140.54 40.9873 140.003 40.45 139.34 40.45C138.677 40.45 138.14 40.9873 138.14 41.65C138.14 42.3128 138.677 42.85 139.34 42.85Z" fill="#515563"/>
<path d="M153.12 42.85C153.783 42.85 154.32 42.3128 154.32 41.65C154.32 40.9873 153.783 40.45 153.12 40.45C152.457 40.45 151.92 40.9873 151.92 41.65C151.92 42.3128 152.457 42.85 153.12 42.85Z" fill="#515563"/>
<path d="M166.91 42.85C167.573 42.85 168.11 42.3128 168.11 41.65C168.11 40.9873 167.573 40.45 166.91 40.45C166.247 40.45 165.71 40.9873 165.71 41.65C165.71 42.3128 166.247 42.85 166.91 42.85Z" fill="#515563"/>
<path d="M180.69 42.85C181.353 42.85 181.89 42.3128 181.89 41.65C181.89 40.9873 181.353 40.45 180.69 40.45C180.027 40.45 179.49 40.9873 179.49 41.65C179.49 42.3128 180.027 42.85 180.69 42.85Z" fill="#515563"/>
<path d="M194.47 42.85C195.133 42.85 195.67 42.3128 195.67 41.65C195.67 40.9873 195.133 40.45 194.47 40.45C193.807 40.45 193.27 40.9873 193.27 41.65C193.27 42.3128 193.807 42.85 194.47 42.85Z" fill="#515563"/>
<path d="M208.25 42.85C208.913 42.85 209.45 42.3128 209.45 41.65C209.45 40.9873 208.913 40.45 208.25 40.45C207.587 40.45 207.05 40.9873 207.05 41.65C207.05 42.3128 207.587 42.85 208.25 42.85Z" fill="#515563"/>
<path d="M222.03 42.85C222.693 42.85 223.23 42.3128 223.23 41.65C223.23 40.9873 222.693 40.45 222.03 40.45C221.367 40.45 220.83 40.9873 220.83 41.65C220.83 42.3128 221.367 42.85 222.03 42.85Z" fill="#515563"/>
<path d="M235.81 42.85C236.473 42.85 237.01 42.3128 237.01 41.65C237.01 40.9873 236.473 40.45 235.81 40.45C235.147 40.45 234.61 40.9873 234.61 41.65C234.61 42.3128 235.147 42.85 235.81 42.85Z" fill="#515563"/>
<path d="M250.79 41.65C250.79 42.31 250.25 42.85 249.59 42.85C248.93 42.85 248.39 42.31 248.39 41.65C248.39 40.99 248.93 40.45 249.59 40.45C250.26 40.45 250.79 40.99 250.79 41.65Z" fill="#515563"/>
<path d="M1.53008 56.33C2.19282 56.33 2.73008 55.7927 2.73008 55.13C2.73008 54.4673 2.19282 53.93 1.53008 53.93C0.867333 53.93 0.330078 54.4673 0.330078 55.13C0.330078 55.7927 0.867333 56.33 1.53008 56.33Z" fill="#515563"/>
<path d="M15.3101 56.33C15.9728 56.33 16.5101 55.7927 16.5101 55.13C16.5101 54.4673 15.9728 53.93 15.3101 53.93C14.6474 53.93 14.1101 54.4673 14.1101 55.13C14.1101 55.7927 14.6474 56.33 15.3101 56.33Z" fill="#515563"/>
<path d="M29.0901 56.33C29.7529 56.33 30.2901 55.7927 30.2901 55.13C30.2901 54.4673 29.7529 53.93 29.0901 53.93C28.4274 53.93 27.8901 54.4673 27.8901 55.13C27.8901 55.7927 28.4274 56.33 29.0901 56.33Z" fill="#515563"/>
<path d="M42.8702 56.33C43.5329 56.33 44.0702 55.7927 44.0702 55.13C44.0702 54.4673 43.5329 53.93 42.8702 53.93C42.2074 53.93 41.6702 54.4673 41.6702 55.13C41.6702 55.7927 42.2074 56.33 42.8702 56.33Z" fill="#515563"/>
<path d="M56.6501 56.33C57.3128 56.33 57.8501 55.7927 57.8501 55.13C57.8501 54.4673 57.3128 53.93 56.6501 53.93C55.9873 53.93 55.4501 54.4673 55.4501 55.13C55.4501 55.7927 55.9873 56.33 56.6501 56.33Z" fill="#515563"/>
<path d="M70.4301 56.33C71.0928 56.33 71.6301 55.7927 71.6301 55.13C71.6301 54.4673 71.0928 53.93 70.4301 53.93C69.7674 53.93 69.2301 54.4673 69.2301 55.13C69.2301 55.7927 69.7674 56.33 70.4301 56.33Z" fill="#515563"/>
<path d="M84.22 56.33C84.8828 56.33 85.42 55.7927 85.42 55.13C85.42 54.4673 84.8828 53.93 84.22 53.93C83.5573 53.93 83.02 54.4673 83.02 55.13C83.02 55.7927 83.5573 56.33 84.22 56.33Z" fill="#515563"/>
<path d="M98 56.33C98.6628 56.33 99.2001 55.7927 99.2001 55.13C99.2001 54.4673 98.6628 53.93 98 53.93C97.3373 53.93 96.8 54.4673 96.8 55.13C96.8 55.7927 97.3373 56.33 98 56.33Z" fill="#515563"/>
<path d="M112.98 55.13C112.98 55.79 112.44 56.33 111.78 56.33C111.12 56.33 110.58 55.79 110.58 55.13C110.58 54.47 111.12 53.93 111.78 53.93C112.44 53.93 112.98 54.47 112.98 55.13Z" fill="#515563"/>
<path d="M125.56 56.33C126.223 56.33 126.76 55.7927 126.76 55.13C126.76 54.4673 126.223 53.93 125.56 53.93C124.897 53.93 124.36 54.4673 124.36 55.13C124.36 55.7927 124.897 56.33 125.56 56.33Z" fill="#515563"/>
<path d="M139.34 56.33C140.003 56.33 140.54 55.7927 140.54 55.13C140.54 54.4673 140.003 53.93 139.34 53.93C138.677 53.93 138.14 54.4673 138.14 55.13C138.14 55.7927 138.677 56.33 139.34 56.33Z" fill="#515563"/>
<path d="M153.12 56.33C153.783 56.33 154.32 55.7927 154.32 55.13C154.32 54.4673 153.783 53.93 153.12 53.93C152.457 53.93 151.92 54.4673 151.92 55.13C151.92 55.7927 152.457 56.33 153.12 56.33Z" fill="#515563"/>
<path d="M166.91 56.33C167.573 56.33 168.11 55.7927 168.11 55.13C168.11 54.4673 167.573 53.93 166.91 53.93C166.247 53.93 165.71 54.4673 165.71 55.13C165.71 55.7927 166.247 56.33 166.91 56.33Z" fill="#515563"/>
<path d="M180.69 56.33C181.353 56.33 181.89 55.7927 181.89 55.13C181.89 54.4673 181.353 53.93 180.69 53.93C180.027 53.93 179.49 54.4673 179.49 55.13C179.49 55.7927 180.027 56.33 180.69 56.33Z" fill="#515563"/>
<path d="M194.47 56.33C195.133 56.33 195.67 55.7927 195.67 55.13C195.67 54.4673 195.133 53.93 194.47 53.93C193.807 53.93 193.27 54.4673 193.27 55.13C193.27 55.7927 193.807 56.33 194.47 56.33Z" fill="#515563"/>
<path d="M208.25 56.33C208.913 56.33 209.45 55.7927 209.45 55.13C209.45 54.4673 208.913 53.93 208.25 53.93C207.587 53.93 207.05 54.4673 207.05 55.13C207.05 55.7927 207.587 56.33 208.25 56.33Z" fill="#515563"/>
<path d="M222.03 56.33C222.693 56.33 223.23 55.7927 223.23 55.13C223.23 54.4673 222.693 53.93 222.03 53.93C221.367 53.93 220.83 54.4673 220.83 55.13C220.83 55.7927 221.367 56.33 222.03 56.33Z" fill="#515563"/>
<path d="M235.81 56.33C236.473 56.33 237.01 55.7927 237.01 55.13C237.01 54.4673 236.473 53.93 235.81 53.93C235.147 53.93 234.61 54.4673 234.61 55.13C234.61 55.7927 235.147 56.33 235.81 56.33Z" fill="#515563"/>
<path d="M250.79 55.13C250.79 55.79 250.25 56.33 249.59 56.33C248.93 56.33 248.39 55.79 248.39 55.13C248.39 54.47 248.93 53.93 249.59 53.93C250.26 53.93 250.79 54.47 250.79 55.13Z" fill="#515563"/>
<path d="M1.53008 69.81C2.19282 69.81 2.73008 69.2727 2.73008 68.61C2.73008 67.9472 2.19282 67.41 1.53008 67.41C0.867333 67.41 0.330078 67.9472 0.330078 68.61C0.330078 69.2727 0.867333 69.81 1.53008 69.81Z" fill="#515563"/>
<path d="M15.3101 69.81C15.9728 69.81 16.5101 69.2727 16.5101 68.61C16.5101 67.9472 15.9728 67.41 15.3101 67.41C14.6474 67.41 14.1101 67.9472 14.1101 68.61C14.1101 69.2727 14.6474 69.81 15.3101 69.81Z" fill="#515563"/>
<path d="M29.0901 69.81C29.7529 69.81 30.2901 69.2727 30.2901 68.61C30.2901 67.9472 29.7529 67.41 29.0901 67.41C28.4274 67.41 27.8901 67.9472 27.8901 68.61C27.8901 69.2727 28.4274 69.81 29.0901 69.81Z" fill="#515563"/>
<path d="M42.8702 69.81C43.5329 69.81 44.0702 69.2727 44.0702 68.61C44.0702 67.9472 43.5329 67.41 42.8702 67.41C42.2074 67.41 41.6702 67.9472 41.6702 68.61C41.6702 69.2727 42.2074 69.81 42.8702 69.81Z" fill="#515563"/>
<path d="M56.6501 69.81C57.3128 69.81 57.8501 69.2727 57.8501 68.61C57.8501 67.9472 57.3128 67.41 56.6501 67.41C55.9873 67.41 55.4501 67.9472 55.4501 68.61C55.4501 69.2727 55.9873 69.81 56.6501 69.81Z" fill="#515563"/>
<path d="M70.4301 69.81C71.0928 69.81 71.6301 69.2727 71.6301 68.61C71.6301 67.9472 71.0928 67.41 70.4301 67.41C69.7674 67.41 69.2301 67.9472 69.2301 68.61C69.2301 69.2727 69.7674 69.81 70.4301 69.81Z" fill="#515563"/>
<path d="M84.22 69.81C84.8828 69.81 85.42 69.2727 85.42 68.61C85.42 67.9472 84.8828 67.41 84.22 67.41C83.5573 67.41 83.02 67.9472 83.02 68.61C83.02 69.2727 83.5573 69.81 84.22 69.81Z" fill="#515563"/>
<path d="M98 69.81C98.6628 69.81 99.2001 69.2727 99.2001 68.61C99.2001 67.9472 98.6628 67.41 98 67.41C97.3373 67.41 96.8 67.9472 96.8 68.61C96.8 69.2727 97.3373 69.81 98 69.81Z" fill="#515563"/>
<path d="M112.98 68.61C112.98 69.27 112.44 69.81 111.78 69.81C111.12 69.81 110.58 69.27 110.58 68.61C110.58 67.95 111.12 67.41 111.78 67.41C112.44 67.41 112.98 67.95 112.98 68.61Z" fill="#515563"/>
<path d="M125.56 69.81C126.223 69.81 126.76 69.2727 126.76 68.61C126.76 67.9472 126.223 67.41 125.56 67.41C124.897 67.41 124.36 67.9472 124.36 68.61C124.36 69.2727 124.897 69.81 125.56 69.81Z" fill="#515563"/>
<path d="M139.34 69.81C140.003 69.81 140.54 69.2727 140.54 68.61C140.54 67.9472 140.003 67.41 139.34 67.41C138.677 67.41 138.14 67.9472 138.14 68.61C138.14 69.2727 138.677 69.81 139.34 69.81Z" fill="#515563"/>
<path d="M153.12 69.81C153.783 69.81 154.32 69.2727 154.32 68.61C154.32 67.9472 153.783 67.41 153.12 67.41C152.457 67.41 151.92 67.9472 151.92 68.61C151.92 69.2727 152.457 69.81 153.12 69.81Z" fill="#515563"/>
<path d="M166.91 69.81C167.573 69.81 168.11 69.2727 168.11 68.61C168.11 67.9472 167.573 67.41 166.91 67.41C166.247 67.41 165.71 67.9472 165.71 68.61C165.71 69.2727 166.247 69.81 166.91 69.81Z" fill="#515563"/>
<path d="M180.69 69.81C181.353 69.81 181.89 69.2727 181.89 68.61C181.89 67.9472 181.353 67.41 180.69 67.41C180.027 67.41 179.49 67.9472 179.49 68.61C179.49 69.2727 180.027 69.81 180.69 69.81Z" fill="#515563"/>
<path d="M194.47 69.81C195.133 69.81 195.67 69.2727 195.67 68.61C195.67 67.9472 195.133 67.41 194.47 67.41C193.807 67.41 193.27 67.9472 193.27 68.61C193.27 69.2727 193.807 69.81 194.47 69.81Z" fill="#515563"/>
<path d="M208.25 69.81C208.913 69.81 209.45 69.2727 209.45 68.61C209.45 67.9472 208.913 67.41 208.25 67.41C207.587 67.41 207.05 67.9472 207.05 68.61C207.05 69.2727 207.587 69.81 208.25 69.81Z" fill="#515563"/>
<path d="M222.03 69.81C222.693 69.81 223.23 69.2727 223.23 68.61C223.23 67.9472 222.693 67.41 222.03 67.41C221.367 67.41 220.83 67.9472 220.83 68.61C220.83 69.2727 221.367 69.81 222.03 69.81Z" fill="#515563"/>
<path d="M235.81 69.81C236.473 69.81 237.01 69.2727 237.01 68.61C237.01 67.9472 236.473 67.41 235.81 67.41C235.147 67.41 234.61 67.9472 234.61 68.61C234.61 69.2727 235.147 69.81 235.81 69.81Z" fill="#515563"/>
<path d="M250.79 68.61C250.79 69.27 250.25 69.81 249.59 69.81C248.93 69.81 248.39 69.27 248.39 68.61C248.39 67.95 248.93 67.41 249.59 67.41C250.26 67.41 250.79 67.95 250.79 68.61Z" fill="#515563"/>
<path d="M1.53008 83.29C2.19282 83.29 2.73008 82.7528 2.73008 82.09C2.73008 81.4273 2.19282 80.89 1.53008 80.89C0.867333 80.89 0.330078 81.4273 0.330078 82.09C0.330078 82.7528 0.867333 83.29 1.53008 83.29Z" fill="#515563"/>
<path d="M15.3101 83.29C15.9728 83.29 16.5101 82.7528 16.5101 82.09C16.5101 81.4273 15.9728 80.89 15.3101 80.89C14.6474 80.89 14.1101 81.4273 14.1101 82.09C14.1101 82.7528 14.6474 83.29 15.3101 83.29Z" fill="#515563"/>
<path d="M29.0901 83.29C29.7529 83.29 30.2901 82.7528 30.2901 82.09C30.2901 81.4273 29.7529 80.89 29.0901 80.89C28.4274 80.89 27.8901 81.4273 27.8901 82.09C27.8901 82.7528 28.4274 83.29 29.0901 83.29Z" fill="#515563"/>
<path d="M42.8702 83.29C43.5329 83.29 44.0702 82.7528 44.0702 82.09C44.0702 81.4273 43.5329 80.89 42.8702 80.89C42.2074 80.89 41.6702 81.4273 41.6702 82.09C41.6702 82.7528 42.2074 83.29 42.8702 83.29Z" fill="#515563"/>
<path d="M56.6501 83.29C57.3128 83.29 57.8501 82.7528 57.8501 82.09C57.8501 81.4273 57.3128 80.89 56.6501 80.89C55.9873 80.89 55.4501 81.4273 55.4501 82.09C55.4501 82.7528 55.9873 83.29 56.6501 83.29Z" fill="#515563"/>
<path d="M70.4301 83.29C71.0928 83.29 71.6301 82.7528 71.6301 82.09C71.6301 81.4273 71.0928 80.89 70.4301 80.89C69.7674 80.89 69.2301 81.4273 69.2301 82.09C69.2301 82.7528 69.7674 83.29 70.4301 83.29Z" fill="#515563"/>
<path d="M84.22 83.29C84.8828 83.29 85.42 82.7528 85.42 82.09C85.42 81.4273 84.8828 80.89 84.22 80.89C83.5573 80.89 83.02 81.4273 83.02 82.09C83.02 82.7528 83.5573 83.29 84.22 83.29Z" fill="#515563"/>
<path d="M98 83.29C98.6628 83.29 99.2001 82.7528 99.2001 82.09C99.2001 81.4273 98.6628 80.89 98 80.89C97.3373 80.89 96.8 81.4273 96.8 82.09C96.8 82.7528 97.3373 83.29 98 83.29Z" fill="#515563"/>
<path d="M112.98 82.09C112.98 82.75 112.44 83.29 111.78 83.29C111.12 83.29 110.58 82.75 110.58 82.09C110.58 81.43 111.12 80.89 111.78 80.89C112.44 80.9 112.98 81.43 112.98 82.09Z" fill="#515563"/>
<path d="M125.56 83.29C126.223 83.29 126.76 82.7528 126.76 82.09C126.76 81.4273 126.223 80.89 125.56 80.89C124.897 80.89 124.36 81.4273 124.36 82.09C124.36 82.7528 124.897 83.29 125.56 83.29Z" fill="#515563"/>
<path d="M139.34 83.29C140.003 83.29 140.54 82.7528 140.54 82.09C140.54 81.4273 140.003 80.89 139.34 80.89C138.677 80.89 138.14 81.4273 138.14 82.09C138.14 82.7528 138.677 83.29 139.34 83.29Z" fill="#515563"/>
<path d="M153.12 83.29C153.783 83.29 154.32 82.7528 154.32 82.09C154.32 81.4273 153.783 80.89 153.12 80.89C152.457 80.89 151.92 81.4273 151.92 82.09C151.92 82.7528 152.457 83.29 153.12 83.29Z" fill="#515563"/>
<path d="M166.91 83.29C167.573 83.29 168.11 82.7528 168.11 82.09C168.11 81.4273 167.573 80.89 166.91 80.89C166.247 80.89 165.71 81.4273 165.71 82.09C165.71 82.7528 166.247 83.29 166.91 83.29Z" fill="#515563"/>
<path d="M180.69 83.29C181.353 83.29 181.89 82.7528 181.89 82.09C181.89 81.4273 181.353 80.89 180.69 80.89C180.027 80.89 179.49 81.4273 179.49 82.09C179.49 82.7528 180.027 83.29 180.69 83.29Z" fill="#515563"/>
<path d="M194.47 83.29C195.133 83.29 195.67 82.7528 195.67 82.09C195.67 81.4273 195.133 80.89 194.47 80.89C193.807 80.89 193.27 81.4273 193.27 82.09C193.27 82.7528 193.807 83.29 194.47 83.29Z" fill="#515563"/>
<path d="M208.25 83.29C208.913 83.29 209.45 82.7528 209.45 82.09C209.45 81.4273 208.913 80.89 208.25 80.89C207.587 80.89 207.05 81.4273 207.05 82.09C207.05 82.7528 207.587 83.29 208.25 83.29Z" fill="#515563"/>
<path d="M222.03 83.29C222.693 83.29 223.23 82.7528 223.23 82.09C223.23 81.4273 222.693 80.89 222.03 80.89C221.367 80.89 220.83 81.4273 220.83 82.09C220.83 82.7528 221.367 83.29 222.03 83.29Z" fill="#515563"/>
<path d="M235.81 83.29C236.473 83.29 237.01 82.7528 237.01 82.09C237.01 81.4273 236.473 80.89 235.81 80.89C235.147 80.89 234.61 81.4273 234.61 82.09C234.61 82.7528 235.147 83.29 235.81 83.29Z" fill="#515563"/>
<path d="M250.79 82.09C250.79 82.75 250.25 83.29 249.59 83.29C248.93 83.29 248.39 82.75 248.39 82.09C248.39 81.43 248.93 80.89 249.59 80.89C250.26 80.9 250.79 81.43 250.79 82.09Z" fill="#515563"/>
<path d="M2.73008 95.58C2.73008 96.24 2.19008 96.78 1.53008 96.78C0.870075 96.78 0.330078 96.24 0.330078 95.58C0.330078 94.92 0.870075 94.38 1.53008 94.38C2.19008 94.38 2.73008 94.91 2.73008 95.58Z" fill="#515563"/>
<path d="M16.5101 95.58C16.5101 96.24 15.9701 96.78 15.3101 96.78C14.6501 96.78 14.1101 96.24 14.1101 95.58C14.1101 94.92 14.6501 94.38 15.3101 94.38C15.9701 94.38 16.5101 94.91 16.5101 95.58Z" fill="#515563"/>
<path d="M30.2901 95.58C30.2901 96.24 29.7501 96.78 29.0901 96.78C28.4301 96.78 27.8901 96.24 27.8901 95.58C27.8901 94.92 28.4301 94.38 29.0901 94.38C29.7501 94.38 30.2901 94.91 30.2901 95.58Z" fill="#515563"/>
<path d="M44.0702 95.58C44.0702 96.24 43.5302 96.78 42.8702 96.78C42.2102 96.78 41.6702 96.24 41.6702 95.58C41.6702 94.92 42.2102 94.38 42.8702 94.38C43.5302 94.38 44.0702 94.91 44.0702 95.58Z" fill="#515563"/>
<path d="M57.8501 95.58C57.8501 96.24 57.3101 96.78 56.6501 96.78C55.9901 96.78 55.4501 96.24 55.4501 95.58C55.4501 94.92 55.9901 94.38 56.6501 94.38C57.3101 94.38 57.8501 94.91 57.8501 95.58Z" fill="#515563"/>
<path d="M71.6301 95.58C71.6301 96.24 71.0901 96.78 70.4301 96.78C69.7701 96.78 69.2301 96.24 69.2301 95.58C69.2301 94.92 69.7701 94.38 70.4301 94.38C71.1001 94.38 71.6301 94.91 71.6301 95.58Z" fill="#515563"/>
<path d="M85.4101 95.58C85.4101 96.24 84.8701 96.78 84.2101 96.78C83.5501 96.78 83.0101 96.24 83.0101 95.58C83.0101 94.92 83.5501 94.38 84.2101 94.38C84.8801 94.38 85.4101 94.91 85.4101 95.58Z" fill="#515563"/>
<path d="M99.2001 95.58C99.2001 96.24 98.66 96.78 98 96.78C97.34 96.78 96.8 96.24 96.8 95.58C96.8 94.92 97.34 94.38 98 94.38C98.66 94.38 99.2001 94.91 99.2001 95.58Z" fill="#515563"/>
<path d="M112.98 95.58C112.98 96.24 112.44 96.78 111.78 96.78C111.12 96.78 110.58 96.24 110.58 95.58C110.58 94.92 111.12 94.38 111.78 94.38C112.44 94.38 112.98 94.91 112.98 95.58Z" fill="#515563"/>
<path d="M126.76 95.58C126.76 96.24 126.22 96.78 125.56 96.78C124.9 96.78 124.36 96.24 124.36 95.58C124.36 94.92 124.9 94.38 125.56 94.38C126.22 94.38 126.76 94.91 126.76 95.58Z" fill="#515563"/>
<path d="M140.54 95.58C140.54 96.24 140 96.78 139.34 96.78C138.68 96.78 138.14 96.24 138.14 95.58C138.14 94.92 138.68 94.38 139.34 94.38C140 94.38 140.54 94.91 140.54 95.58Z" fill="#515563"/>
<path d="M154.32 95.58C154.32 96.24 153.78 96.78 153.12 96.78C152.46 96.78 151.92 96.24 151.92 95.58C151.92 94.92 152.46 94.38 153.12 94.38C153.79 94.38 154.32 94.91 154.32 95.58Z" fill="#515563"/>
<path d="M168.1 95.58C168.1 96.24 167.56 96.78 166.9 96.78C166.24 96.78 165.7 96.24 165.7 95.58C165.7 94.92 166.24 94.38 166.9 94.38C167.57 94.38 168.1 94.91 168.1 95.58Z" fill="#515563"/>
<path d="M181.89 95.58C181.89 96.24 181.35 96.78 180.69 96.78C180.03 96.78 179.49 96.24 179.49 95.58C179.49 94.92 180.03 94.38 180.69 94.38C181.35 94.38 181.89 94.91 181.89 95.58Z" fill="#515563"/>
<path d="M195.67 95.58C195.67 96.24 195.13 96.78 194.47 96.78C193.81 96.78 193.27 96.24 193.27 95.58C193.27 94.92 193.81 94.38 194.47 94.38C195.13 94.38 195.67 94.91 195.67 95.58Z" fill="#515563"/>
<path d="M209.45 95.58C209.45 96.24 208.91 96.78 208.25 96.78C207.59 96.78 207.05 96.24 207.05 95.58C207.05 94.92 207.59 94.38 208.25 94.38C208.91 94.38 209.45 94.91 209.45 95.58Z" fill="#515563"/>
<path d="M223.23 95.58C223.23 96.24 222.69 96.78 222.03 96.78C221.37 96.78 220.83 96.24 220.83 95.58C220.83 94.92 221.37 94.38 222.03 94.38C222.69 94.38 223.23 94.91 223.23 95.58Z" fill="#515563"/>
<path d="M237.01 95.58C237.01 96.24 236.47 96.78 235.81 96.78C235.15 96.78 234.61 96.24 234.61 95.58C234.61 94.92 235.15 94.38 235.81 94.38C236.48 94.38 237.01 94.91 237.01 95.58Z" fill="#515563"/>
<path d="M250.79 95.58C250.79 96.24 250.25 96.78 249.59 96.78C248.93 96.78 248.39 96.24 248.39 95.58C248.39 94.92 248.93 94.38 249.59 94.38C250.26 94.38 250.79 94.91 250.79 95.58Z" fill="#515563"/>
<path d="M1.53008 110.26C2.19282 110.26 2.73008 109.723 2.73008 109.06C2.73008 108.397 2.19282 107.86 1.53008 107.86C0.867333 107.86 0.330078 108.397 0.330078 109.06C0.330078 109.723 0.867333 110.26 1.53008 110.26Z" fill="#515563"/>
<path d="M15.3101 110.26C15.9728 110.26 16.5101 109.723 16.5101 109.06C16.5101 108.397 15.9728 107.86 15.3101 107.86C14.6474 107.86 14.1101 108.397 14.1101 109.06C14.1101 109.723 14.6474 110.26 15.3101 110.26Z" fill="#515563"/>
<path d="M29.0901 110.26C29.7529 110.26 30.2901 109.723 30.2901 109.06C30.2901 108.397 29.7529 107.86 29.0901 107.86C28.4274 107.86 27.8901 108.397 27.8901 109.06C27.8901 109.723 28.4274 110.26 29.0901 110.26Z" fill="#515563"/>
<path d="M42.8702 110.26C43.5329 110.26 44.0702 109.723 44.0702 109.06C44.0702 108.397 43.5329 107.86 42.8702 107.86C42.2074 107.86 41.6702 108.397 41.6702 109.06C41.6702 109.723 42.2074 110.26 42.8702 110.26Z" fill="#515563"/>
<path d="M56.6501 110.26C57.3128 110.26 57.8501 109.723 57.8501 109.06C57.8501 108.397 57.3128 107.86 56.6501 107.86C55.9873 107.86 55.4501 108.397 55.4501 109.06C55.4501 109.723 55.9873 110.26 56.6501 110.26Z" fill="#515563"/>
<path d="M70.4301 110.26C71.0928 110.26 71.6301 109.723 71.6301 109.06C71.6301 108.397 71.0928 107.86 70.4301 107.86C69.7674 107.86 69.2301 108.397 69.2301 109.06C69.2301 109.723 69.7674 110.26 70.4301 110.26Z" fill="#515563"/>
<path d="M84.22 110.26C84.8828 110.26 85.42 109.723 85.42 109.06C85.42 108.397 84.8828 107.86 84.22 107.86C83.5573 107.86 83.02 108.397 83.02 109.06C83.02 109.723 83.5573 110.26 84.22 110.26Z" fill="#515563"/>
<path d="M98 110.26C98.6628 110.26 99.2001 109.723 99.2001 109.06C99.2001 108.397 98.6628 107.86 98 107.86C97.3373 107.86 96.8 108.397 96.8 109.06C96.8 109.723 97.3373 110.26 98 110.26Z" fill="#515563"/>
<path d="M112.98 109.06C112.98 109.72 112.44 110.26 111.78 110.26C111.12 110.26 110.58 109.72 110.58 109.06C110.58 108.4 111.12 107.86 111.78 107.86C112.44 107.86 112.98 108.4 112.98 109.06Z" fill="#515563"/>
<path d="M125.56 110.26C126.223 110.26 126.76 109.723 126.76 109.06C126.76 108.397 126.223 107.86 125.56 107.86C124.897 107.86 124.36 108.397 124.36 109.06C124.36 109.723 124.897 110.26 125.56 110.26Z" fill="#515563"/>
<path d="M139.34 110.26C140.003 110.26 140.54 109.723 140.54 109.06C140.54 108.397 140.003 107.86 139.34 107.86C138.677 107.86 138.14 108.397 138.14 109.06C138.14 109.723 138.677 110.26 139.34 110.26Z" fill="#515563"/>
<path d="M153.12 110.26C153.783 110.26 154.32 109.723 154.32 109.06C154.32 108.397 153.783 107.86 153.12 107.86C152.457 107.86 151.92 108.397 151.92 109.06C151.92 109.723 152.457 110.26 153.12 110.26Z" fill="#515563"/>
<path d="M166.91 110.26C167.573 110.26 168.11 109.723 168.11 109.06C168.11 108.397 167.573 107.86 166.91 107.86C166.247 107.86 165.71 108.397 165.71 109.06C165.71 109.723 166.247 110.26 166.91 110.26Z" fill="#515563"/>
<path d="M180.69 110.26C181.353 110.26 181.89 109.723 181.89 109.06C181.89 108.397 181.353 107.86 180.69 107.86C180.027 107.86 179.49 108.397 179.49 109.06C179.49 109.723 180.027 110.26 180.69 110.26Z" fill="#515563"/>
<path d="M194.47 110.26C195.133 110.26 195.67 109.723 195.67 109.06C195.67 108.397 195.133 107.86 194.47 107.86C193.807 107.86 193.27 108.397 193.27 109.06C193.27 109.723 193.807 110.26 194.47 110.26Z" fill="#515563"/>
<path d="M208.25 110.26C208.913 110.26 209.45 109.723 209.45 109.06C209.45 108.397 208.913 107.86 208.25 107.86C207.587 107.86 207.05 108.397 207.05 109.06C207.05 109.723 207.587 110.26 208.25 110.26Z" fill="#515563"/>
<path d="M222.03 110.26C222.693 110.26 223.23 109.723 223.23 109.06C223.23 108.397 222.693 107.86 222.03 107.86C221.367 107.86 220.83 108.397 220.83 109.06C220.83 109.723 221.367 110.26 222.03 110.26Z" fill="#515563"/>
<path d="M235.81 110.26C236.473 110.26 237.01 109.723 237.01 109.06C237.01 108.397 236.473 107.86 235.81 107.86C235.147 107.86 234.61 108.397 234.61 109.06C234.61 109.723 235.147 110.26 235.81 110.26Z" fill="#515563"/>
<path d="M250.79 109.06C250.79 109.72 250.25 110.26 249.59 110.26C248.93 110.26 248.39 109.72 248.39 109.06C248.39 108.4 248.93 107.86 249.59 107.86C250.26 107.86 250.79 108.4 250.79 109.06Z" fill="#515563"/>
<path d="M1.53008 123.74C2.19282 123.74 2.73008 123.203 2.73008 122.54C2.73008 121.877 2.19282 121.34 1.53008 121.34C0.867333 121.34 0.330078 121.877 0.330078 122.54C0.330078 123.203 0.867333 123.74 1.53008 123.74Z" fill="#515563"/>
<path d="M15.3101 123.74C15.9728 123.74 16.5101 123.203 16.5101 122.54C16.5101 121.877 15.9728 121.34 15.3101 121.34C14.6474 121.34 14.1101 121.877 14.1101 122.54C14.1101 123.203 14.6474 123.74 15.3101 123.74Z" fill="#515563"/>
<path d="M29.0901 123.74C29.7529 123.74 30.2901 123.203 30.2901 122.54C30.2901 121.877 29.7529 121.34 29.0901 121.34C28.4274 121.34 27.8901 121.877 27.8901 122.54C27.8901 123.203 28.4274 123.74 29.0901 123.74Z" fill="#515563"/>
<path d="M42.8702 123.74C43.5329 123.74 44.0702 123.203 44.0702 122.54C44.0702 121.877 43.5329 121.34 42.8702 121.34C42.2074 121.34 41.6702 121.877 41.6702 122.54C41.6702 123.203 42.2074 123.74 42.8702 123.74Z" fill="#515563"/>
<path d="M56.6501 123.74C57.3128 123.74 57.8501 123.203 57.8501 122.54C57.8501 121.877 57.3128 121.34 56.6501 121.34C55.9873 121.34 55.4501 121.877 55.4501 122.54C55.4501 123.203 55.9873 123.74 56.6501 123.74Z" fill="#515563"/>
<path d="M70.4301 123.74C71.0928 123.74 71.6301 123.203 71.6301 122.54C71.6301 121.877 71.0928 121.34 70.4301 121.34C69.7674 121.34 69.2301 121.877 69.2301 122.54C69.2301 123.203 69.7674 123.74 70.4301 123.74Z" fill="#515563"/>
<path d="M84.22 123.74C84.8828 123.74 85.42 123.203 85.42 122.54C85.42 121.877 84.8828 121.34 84.22 121.34C83.5573 121.34 83.02 121.877 83.02 122.54C83.02 123.203 83.5573 123.74 84.22 123.74Z" fill="#515563"/>
<path d="M98 123.74C98.6628 123.74 99.2001 123.203 99.2001 122.54C99.2001 121.877 98.6628 121.34 98 121.34C97.3373 121.34 96.8 121.877 96.8 122.54C96.8 123.203 97.3373 123.74 98 123.74Z" fill="#515563"/>
<path d="M112.98 122.54C112.98 123.2 112.44 123.74 111.78 123.74C111.12 123.74 110.58 123.2 110.58 122.54C110.58 121.88 111.12 121.34 111.78 121.34C112.44 121.34 112.98 121.88 112.98 122.54Z" fill="#515563"/>
<path d="M125.56 123.74C126.223 123.74 126.76 123.203 126.76 122.54C126.76 121.877 126.223 121.34 125.56 121.34C124.897 121.34 124.36 121.877 124.36 122.54C124.36 123.203 124.897 123.74 125.56 123.74Z" fill="#515563"/>
<path d="M139.34 123.74C140.003 123.74 140.54 123.203 140.54 122.54C140.54 121.877 140.003 121.34 139.34 121.34C138.677 121.34 138.14 121.877 138.14 122.54C138.14 123.203 138.677 123.74 139.34 123.74Z" fill="#515563"/>
<path d="M153.12 123.74C153.783 123.74 154.32 123.203 154.32 122.54C154.32 121.877 153.783 121.34 153.12 121.34C152.457 121.34 151.92 121.877 151.92 122.54C151.92 123.203 152.457 123.74 153.12 123.74Z" fill="#515563"/>
<path d="M166.91 123.74C167.573 123.74 168.11 123.203 168.11 122.54C168.11 121.877 167.573 121.34 166.91 121.34C166.247 121.34 165.71 121.877 165.71 122.54C165.71 123.203 166.247 123.74 166.91 123.74Z" fill="#515563"/>
<path d="M180.69 123.74C181.353 123.74 181.89 123.203 181.89 122.54C181.89 121.877 181.353 121.34 180.69 121.34C180.027 121.34 179.49 121.877 179.49 122.54C179.49 123.203 180.027 123.74 180.69 123.74Z" fill="#515563"/>
<path d="M194.47 123.74C195.133 123.74 195.67 123.203 195.67 122.54C195.67 121.877 195.133 121.34 194.47 121.34C193.807 121.34 193.27 121.877 193.27 122.54C193.27 123.203 193.807 123.74 194.47 123.74Z" fill="#515563"/>
<path d="M208.25 123.74C208.913 123.74 209.45 123.203 209.45 122.54C209.45 121.877 208.913 121.34 208.25 121.34C207.587 121.34 207.05 121.877 207.05 122.54C207.05 123.203 207.587 123.74 208.25 123.74Z" fill="#515563"/>
<path d="M222.03 123.74C222.693 123.74 223.23 123.203 223.23 122.54C223.23 121.877 222.693 121.34 222.03 121.34C221.367 121.34 220.83 121.877 220.83 122.54C220.83 123.203 221.367 123.74 222.03 123.74Z" fill="#515563"/>
<path d="M235.81 123.74C236.473 123.74 237.01 123.203 237.01 122.54C237.01 121.877 236.473 121.34 235.81 121.34C235.147 121.34 234.61 121.877 234.61 122.54C234.61 123.203 235.147 123.74 235.81 123.74Z" fill="#515563"/>
<path d="M250.79 122.54C250.79 123.2 250.25 123.74 249.59 123.74C248.93 123.74 248.39 123.2 248.39 122.54C248.39 121.88 248.93 121.34 249.59 121.34C250.26 121.34 250.79 121.88 250.79 122.54Z" fill="#515563"/>
<path d="M1.53008 137.22C2.19282 137.22 2.73008 136.683 2.73008 136.02C2.73008 135.357 2.19282 134.82 1.53008 134.82C0.867333 134.82 0.330078 135.357 0.330078 136.02C0.330078 136.683 0.867333 137.22 1.53008 137.22Z" fill="#515563"/>
<path d="M15.3101 137.22C15.9728 137.22 16.5101 136.683 16.5101 136.02C16.5101 135.357 15.9728 134.82 15.3101 134.82C14.6474 134.82 14.1101 135.357 14.1101 136.02C14.1101 136.683 14.6474 137.22 15.3101 137.22Z" fill="#515563"/>
<path d="M29.0901 137.22C29.7529 137.22 30.2901 136.683 30.2901 136.02C30.2901 135.357 29.7529 134.82 29.0901 134.82C28.4274 134.82 27.8901 135.357 27.8901 136.02C27.8901 136.683 28.4274 137.22 29.0901 137.22Z" fill="#515563"/>
<path d="M42.8702 137.22C43.5329 137.22 44.0702 136.683 44.0702 136.02C44.0702 135.357 43.5329 134.82 42.8702 134.82C42.2074 134.82 41.6702 135.357 41.6702 136.02C41.6702 136.683 42.2074 137.22 42.8702 137.22Z" fill="#515563"/>
<path d="M56.6501 137.22C57.3128 137.22 57.8501 136.683 57.8501 136.02C57.8501 135.357 57.3128 134.82 56.6501 134.82C55.9873 134.82 55.4501 135.357 55.4501 136.02C55.4501 136.683 55.9873 137.22 56.6501 137.22Z" fill="#515563"/>
<path d="M70.4301 137.22C71.0928 137.22 71.6301 136.683 71.6301 136.02C71.6301 135.357 71.0928 134.82 70.4301 134.82C69.7674 134.82 69.2301 135.357 69.2301 136.02C69.2301 136.683 69.7674 137.22 70.4301 137.22Z" fill="#515563"/>
<path d="M84.22 137.22C84.8828 137.22 85.42 136.683 85.42 136.02C85.42 135.357 84.8828 134.82 84.22 134.82C83.5573 134.82 83.02 135.357 83.02 136.02C83.02 136.683 83.5573 137.22 84.22 137.22Z" fill="#515563"/>
<path d="M98 137.22C98.6628 137.22 99.2001 136.683 99.2001 136.02C99.2001 135.357 98.6628 134.82 98 134.82C97.3373 134.82 96.8 135.357 96.8 136.02C96.8 136.683 97.3373 137.22 98 137.22Z" fill="#515563"/>
<path d="M112.98 136.02C112.98 136.68 112.44 137.22 111.78 137.22C111.12 137.22 110.58 136.68 110.58 136.02C110.58 135.36 111.12 134.82 111.78 134.82C112.44 134.82 112.98 135.36 112.98 136.02Z" fill="#515563"/>
<path d="M125.56 137.22C126.223 137.22 126.76 136.683 126.76 136.02C126.76 135.357 126.223 134.82 125.56 134.82C124.897 134.82 124.36 135.357 124.36 136.02C124.36 136.683 124.897 137.22 125.56 137.22Z" fill="#515563"/>
<path d="M139.34 137.22C140.003 137.22 140.54 136.683 140.54 136.02C140.54 135.357 140.003 134.82 139.34 134.82C138.677 134.82 138.14 135.357 138.14 136.02C138.14 136.683 138.677 137.22 139.34 137.22Z" fill="#515563"/>
<path d="M153.12 137.22C153.783 137.22 154.32 136.683 154.32 136.02C154.32 135.357 153.783 134.82 153.12 134.82C152.457 134.82 151.92 135.357 151.92 136.02C151.92 136.683 152.457 137.22 153.12 137.22Z" fill="#515563"/>
<path d="M166.91 137.22C167.573 137.22 168.11 136.683 168.11 136.02C168.11 135.357 167.573 134.82 166.91 134.82C166.247 134.82 165.71 135.357 165.71 136.02C165.71 136.683 166.247 137.22 166.91 137.22Z" fill="#515563"/>
<path d="M180.69 137.22C181.353 137.22 181.89 136.683 181.89 136.02C181.89 135.357 181.353 134.82 180.69 134.82C180.027 134.82 179.49 135.357 179.49 136.02C179.49 136.683 180.027 137.22 180.69 137.22Z" fill="#515563"/>
<path d="M194.47 137.22C195.133 137.22 195.67 136.683 195.67 136.02C195.67 135.357 195.133 134.82 194.47 134.82C193.807 134.82 193.27 135.357 193.27 136.02C193.27 136.683 193.807 137.22 194.47 137.22Z" fill="#515563"/>
<path d="M208.25 137.22C208.913 137.22 209.45 136.683 209.45 136.02C209.45 135.357 208.913 134.82 208.25 134.82C207.587 134.82 207.05 135.357 207.05 136.02C207.05 136.683 207.587 137.22 208.25 137.22Z" fill="#515563"/>
<path d="M222.03 137.22C222.693 137.22 223.23 136.683 223.23 136.02C223.23 135.357 222.693 134.82 222.03 134.82C221.367 134.82 220.83 135.357 220.83 136.02C220.83 136.683 221.367 137.22 222.03 137.22Z" fill="#515563"/>
<path d="M235.81 137.22C236.473 137.22 237.01 136.683 237.01 136.02C237.01 135.357 236.473 134.82 235.81 134.82C235.147 134.82 234.61 135.357 234.61 136.02C234.61 136.683 235.147 137.22 235.81 137.22Z" fill="#515563"/>
<path d="M250.79 136.02C250.79 136.68 250.25 137.22 249.59 137.22C248.93 137.22 248.39 136.68 248.39 136.02C248.39 135.36 248.93 134.82 249.59 134.82C250.26 134.82 250.79 135.36 250.79 136.02Z" fill="#515563"/>
<path d="M1.53008 150.7C2.19282 150.7 2.73008 150.163 2.73008 149.5C2.73008 148.837 2.19282 148.3 1.53008 148.3C0.867333 148.3 0.330078 148.837 0.330078 149.5C0.330078 150.163 0.867333 150.7 1.53008 150.7Z" fill="#515563"/>
<path d="M15.3101 150.7C15.9728 150.7 16.5101 150.163 16.5101 149.5C16.5101 148.837 15.9728 148.3 15.3101 148.3C14.6474 148.3 14.1101 148.837 14.1101 149.5C14.1101 150.163 14.6474 150.7 15.3101 150.7Z" fill="#515563"/>
<path d="M29.0901 150.7C29.7529 150.7 30.2901 150.163 30.2901 149.5C30.2901 148.837 29.7529 148.3 29.0901 148.3C28.4274 148.3 27.8901 148.837 27.8901 149.5C27.8901 150.163 28.4274 150.7 29.0901 150.7Z" fill="#515563"/>
<path d="M42.8702 150.7C43.5329 150.7 44.0702 150.163 44.0702 149.5C44.0702 148.837 43.5329 148.3 42.8702 148.3C42.2074 148.3 41.6702 148.837 41.6702 149.5C41.6702 150.163 42.2074 150.7 42.8702 150.7Z" fill="#515563"/>
<path d="M56.6501 150.7C57.3128 150.7 57.8501 150.163 57.8501 149.5C57.8501 148.837 57.3128 148.3 56.6501 148.3C55.9873 148.3 55.4501 148.837 55.4501 149.5C55.4501 150.163 55.9873 150.7 56.6501 150.7Z" fill="#515563"/>
<path d="M70.4301 150.7C71.0928 150.7 71.6301 150.163 71.6301 149.5C71.6301 148.837 71.0928 148.3 70.4301 148.3C69.7674 148.3 69.2301 148.837 69.2301 149.5C69.2301 150.163 69.7674 150.7 70.4301 150.7Z" fill="#515563"/>
<path d="M84.22 150.7C84.8828 150.7 85.42 150.163 85.42 149.5C85.42 148.837 84.8828 148.3 84.22 148.3C83.5573 148.3 83.02 148.837 83.02 149.5C83.02 150.163 83.5573 150.7 84.22 150.7Z" fill="#515563"/>
<path d="M98 150.7C98.6628 150.7 99.2001 150.163 99.2001 149.5C99.2001 148.837 98.6628 148.3 98 148.3C97.3373 148.3 96.8 148.837 96.8 149.5C96.8 150.163 97.3373 150.7 98 150.7Z" fill="#515563"/>
<path d="M112.98 149.5C112.98 150.16 112.44 150.7 111.78 150.7C111.12 150.7 110.58 150.16 110.58 149.5C110.58 148.84 111.12 148.3 111.78 148.3C112.44 148.31 112.98 148.84 112.98 149.5Z" fill="#515563"/>
<path d="M125.56 150.7C126.223 150.7 126.76 150.163 126.76 149.5C126.76 148.837 126.223 148.3 125.56 148.3C124.897 148.3 124.36 148.837 124.36 149.5C124.36 150.163 124.897 150.7 125.56 150.7Z" fill="#515563"/>
<path d="M139.34 150.7C140.003 150.7 140.54 150.163 140.54 149.5C140.54 148.837 140.003 148.3 139.34 148.3C138.677 148.3 138.14 148.837 138.14 149.5C138.14 150.163 138.677 150.7 139.34 150.7Z" fill="#515563"/>
<path d="M153.12 150.7C153.783 150.7 154.32 150.163 154.32 149.5C154.32 148.837 153.783 148.3 153.12 148.3C152.457 148.3 151.92 148.837 151.92 149.5C151.92 150.163 152.457 150.7 153.12 150.7Z" fill="#515563"/>
<path d="M166.91 150.7C167.573 150.7 168.11 150.163 168.11 149.5C168.11 148.837 167.573 148.3 166.91 148.3C166.247 148.3 165.71 148.837 165.71 149.5C165.71 150.163 166.247 150.7 166.91 150.7Z" fill="#515563"/>
<path d="M180.69 150.7C181.353 150.7 181.89 150.163 181.89 149.5C181.89 148.837 181.353 148.3 180.69 148.3C180.027 148.3 179.49 148.837 179.49 149.5C179.49 150.163 180.027 150.7 180.69 150.7Z" fill="#515563"/>
<path d="M194.47 150.7C195.133 150.7 195.67 150.163 195.67 149.5C195.67 148.837 195.133 148.3 194.47 148.3C193.807 148.3 193.27 148.837 193.27 149.5C193.27 150.163 193.807 150.7 194.47 150.7Z" fill="#515563"/>
<path d="M208.25 150.7C208.913 150.7 209.45 150.163 209.45 149.5C209.45 148.837 208.913 148.3 208.25 148.3C207.587 148.3 207.05 148.837 207.05 149.5C207.05 150.163 207.587 150.7 208.25 150.7Z" fill="#515563"/>
<path d="M222.03 150.7C222.693 150.7 223.23 150.163 223.23 149.5C223.23 148.837 222.693 148.3 222.03 148.3C221.367 148.3 220.83 148.837 220.83 149.5C220.83 150.163 221.367 150.7 222.03 150.7Z" fill="#515563"/>
<path d="M235.81 150.7C236.473 150.7 237.01 150.163 237.01 149.5C237.01 148.837 236.473 148.3 235.81 148.3C235.147 148.3 234.61 148.837 234.61 149.5C234.61 150.163 235.147 150.7 235.81 150.7Z" fill="#515563"/>
<path d="M250.79 149.5C250.79 150.16 250.25 150.7 249.59 150.7C248.93 150.7 248.39 150.16 248.39 149.5C248.39 148.84 248.93 148.3 249.59 148.3C250.26 148.31 250.79 148.84 250.79 149.5Z" fill="#515563"/>
<path d="M1.53008 164.19C2.19282 164.19 2.73008 163.653 2.73008 162.99C2.73008 162.327 2.19282 161.79 1.53008 161.79C0.867333 161.79 0.330078 162.327 0.330078 162.99C0.330078 163.653 0.867333 164.19 1.53008 164.19Z" fill="#515563"/>
<path d="M15.3101 164.19C15.9728 164.19 16.5101 163.653 16.5101 162.99C16.5101 162.327 15.9728 161.79 15.3101 161.79C14.6474 161.79 14.1101 162.327 14.1101 162.99C14.1101 163.653 14.6474 164.19 15.3101 164.19Z" fill="#515563"/>
<path d="M29.0901 164.19C29.7529 164.19 30.2901 163.653 30.2901 162.99C30.2901 162.327 29.7529 161.79 29.0901 161.79C28.4274 161.79 27.8901 162.327 27.8901 162.99C27.8901 163.653 28.4274 164.19 29.0901 164.19Z" fill="#515563"/>
<path d="M42.8702 164.19C43.5329 164.19 44.0702 163.653 44.0702 162.99C44.0702 162.327 43.5329 161.79 42.8702 161.79C42.2074 161.79 41.6702 162.327 41.6702 162.99C41.6702 163.653 42.2074 164.19 42.8702 164.19Z" fill="#515563"/>
<path d="M56.6501 164.19C57.3128 164.19 57.8501 163.653 57.8501 162.99C57.8501 162.327 57.3128 161.79 56.6501 161.79C55.9873 161.79 55.4501 162.327 55.4501 162.99C55.4501 163.653 55.9873 164.19 56.6501 164.19Z" fill="#515563"/>
<path d="M70.4301 164.19C71.0928 164.19 71.6301 163.653 71.6301 162.99C71.6301 162.327 71.0928 161.79 70.4301 161.79C69.7674 161.79 69.2301 162.327 69.2301 162.99C69.2301 163.653 69.7674 164.19 70.4301 164.19Z" fill="#515563"/>
<path d="M84.22 164.19C84.8828 164.19 85.42 163.653 85.42 162.99C85.42 162.327 84.8828 161.79 84.22 161.79C83.5573 161.79 83.02 162.327 83.02 162.99C83.02 163.653 83.5573 164.19 84.22 164.19Z" fill="#515563"/>
<path d="M98 164.19C98.6628 164.19 99.2001 163.653 99.2001 162.99C99.2001 162.327 98.6628 161.79 98 161.79C97.3373 161.79 96.8 162.327 96.8 162.99C96.8 163.653 97.3373 164.19 98 164.19Z" fill="#515563"/>
<path d="M112.98 162.99C112.98 163.65 112.44 164.19 111.78 164.19C111.12 164.19 110.58 163.65 110.58 162.99C110.58 162.33 111.12 161.79 111.78 161.79C112.44 161.79 112.98 162.32 112.98 162.99Z" fill="#515563"/>
<path d="M125.56 164.19C126.223 164.19 126.76 163.653 126.76 162.99C126.76 162.327 126.223 161.79 125.56 161.79C124.897 161.79 124.36 162.327 124.36 162.99C124.36 163.653 124.897 164.19 125.56 164.19Z" fill="#515563"/>
<path d="M139.34 164.19C140.003 164.19 140.54 163.653 140.54 162.99C140.54 162.327 140.003 161.79 139.34 161.79C138.677 161.79 138.14 162.327 138.14 162.99C138.14 163.653 138.677 164.19 139.34 164.19Z" fill="#515563"/>
<path d="M153.12 164.19C153.783 164.19 154.32 163.653 154.32 162.99C154.32 162.327 153.783 161.79 153.12 161.79C152.457 161.79 151.92 162.327 151.92 162.99C151.92 163.653 152.457 164.19 153.12 164.19Z" fill="#515563"/>
<path d="M166.91 164.19C167.573 164.19 168.11 163.653 168.11 162.99C168.11 162.327 167.573 161.79 166.91 161.79C166.247 161.79 165.71 162.327 165.71 162.99C165.71 163.653 166.247 164.19 166.91 164.19Z" fill="#515563"/>
<path d="M180.69 164.19C181.353 164.19 181.89 163.653 181.89 162.99C181.89 162.327 181.353 161.79 180.69 161.79C180.027 161.79 179.49 162.327 179.49 162.99C179.49 163.653 180.027 164.19 180.69 164.19Z" fill="#515563"/>
<path d="M194.47 164.19C195.133 164.19 195.67 163.653 195.67 162.99C195.67 162.327 195.133 161.79 194.47 161.79C193.807 161.79 193.27 162.327 193.27 162.99C193.27 163.653 193.807 164.19 194.47 164.19Z" fill="#515563"/>
<path d="M208.25 164.19C208.913 164.19 209.45 163.653 209.45 162.99C209.45 162.327 208.913 161.79 208.25 161.79C207.587 161.79 207.05 162.327 207.05 162.99C207.05 163.653 207.587 164.19 208.25 164.19Z" fill="#515563"/>
<path d="M222.03 164.19C222.693 164.19 223.23 163.653 223.23 162.99C223.23 162.327 222.693 161.79 222.03 161.79C221.367 161.79 220.83 162.327 220.83 162.99C220.83 163.653 221.367 164.19 222.03 164.19Z" fill="#515563"/>
<path d="M235.81 164.19C236.473 164.19 237.01 163.653 237.01 162.99C237.01 162.327 236.473 161.79 235.81 161.79C235.147 161.79 234.61 162.327 234.61 162.99C234.61 163.653 235.147 164.19 235.81 164.19Z" fill="#515563"/>
<path d="M250.79 162.99C250.79 163.65 250.25 164.19 249.59 164.19C248.93 164.19 248.39 163.65 248.39 162.99C248.39 162.33 248.93 161.79 249.59 161.79C250.26 161.79 250.79 162.32 250.79 162.99Z" fill="#515563"/>
<path d="M1.53008 177.67C2.19282 177.67 2.73008 177.133 2.73008 176.47C2.73008 175.807 2.19282 175.27 1.53008 175.27C0.867333 175.27 0.330078 175.807 0.330078 176.47C0.330078 177.133 0.867333 177.67 1.53008 177.67Z" fill="#515563"/>
<path d="M15.3101 177.67C15.9728 177.67 16.5101 177.133 16.5101 176.47C16.5101 175.807 15.9728 175.27 15.3101 175.27C14.6474 175.27 14.1101 175.807 14.1101 176.47C14.1101 177.133 14.6474 177.67 15.3101 177.67Z" fill="#515563"/>
<path d="M29.0901 177.67C29.7529 177.67 30.2901 177.133 30.2901 176.47C30.2901 175.807 29.7529 175.27 29.0901 175.27C28.4274 175.27 27.8901 175.807 27.8901 176.47C27.8901 177.133 28.4274 177.67 29.0901 177.67Z" fill="#515563"/>
<path d="M42.8702 177.67C43.5329 177.67 44.0702 177.133 44.0702 176.47C44.0702 175.807 43.5329 175.27 42.8702 175.27C42.2074 175.27 41.6702 175.807 41.6702 176.47C41.6702 177.133 42.2074 177.67 42.8702 177.67Z" fill="#515563"/>
<path d="M56.6501 177.67C57.3128 177.67 57.8501 177.133 57.8501 176.47C57.8501 175.807 57.3128 175.27 56.6501 175.27C55.9873 175.27 55.4501 175.807 55.4501 176.47C55.4501 177.133 55.9873 177.67 56.6501 177.67Z" fill="#515563"/>
<path d="M70.4301 177.67C71.0928 177.67 71.6301 177.133 71.6301 176.47C71.6301 175.807 71.0928 175.27 70.4301 175.27C69.7674 175.27 69.2301 175.807 69.2301 176.47C69.2301 177.133 69.7674 177.67 70.4301 177.67Z" fill="#515563"/>
<path d="M84.22 177.67C84.8828 177.67 85.42 177.133 85.42 176.47C85.42 175.807 84.8828 175.27 84.22 175.27C83.5573 175.27 83.02 175.807 83.02 176.47C83.02 177.133 83.5573 177.67 84.22 177.67Z" fill="#515563"/>
<path d="M98 177.67C98.6628 177.67 99.2001 177.133 99.2001 176.47C99.2001 175.807 98.6628 175.27 98 175.27C97.3373 175.27 96.8 175.807 96.8 176.47C96.8 177.133 97.3373 177.67 98 177.67Z" fill="#515563"/>
<path d="M112.98 176.47C112.98 177.13 112.44 177.67 111.78 177.67C111.12 177.67 110.58 177.13 110.58 176.47C110.58 175.81 111.12 175.27 111.78 175.27C112.44 175.27 112.98 175.81 112.98 176.47Z" fill="#515563"/>
<path d="M125.56 177.67C126.223 177.67 126.76 177.133 126.76 176.47C126.76 175.807 126.223 175.27 125.56 175.27C124.897 175.27 124.36 175.807 124.36 176.47C124.36 177.133 124.897 177.67 125.56 177.67Z" fill="#515563"/>
<path d="M139.34 177.67C140.003 177.67 140.54 177.133 140.54 176.47C140.54 175.807 140.003 175.27 139.34 175.27C138.677 175.27 138.14 175.807 138.14 176.47C138.14 177.133 138.677 177.67 139.34 177.67Z" fill="#515563"/>
<path d="M153.12 177.67C153.783 177.67 154.32 177.133 154.32 176.47C154.32 175.807 153.783 175.27 153.12 175.27C152.457 175.27 151.92 175.807 151.92 176.47C151.92 177.133 152.457 177.67 153.12 177.67Z" fill="#515563"/>
<path d="M166.91 177.67C167.573 177.67 168.11 177.133 168.11 176.47C168.11 175.807 167.573 175.27 166.91 175.27C166.247 175.27 165.71 175.807 165.71 176.47C165.71 177.133 166.247 177.67 166.91 177.67Z" fill="#515563"/>
<path d="M180.69 177.67C181.353 177.67 181.89 177.133 181.89 176.47C181.89 175.807 181.353 175.27 180.69 175.27C180.027 175.27 179.49 175.807 179.49 176.47C179.49 177.133 180.027 177.67 180.69 177.67Z" fill="#515563"/>
<path d="M194.47 177.67C195.133 177.67 195.67 177.133 195.67 176.47C195.67 175.807 195.133 175.27 194.47 175.27C193.807 175.27 193.27 175.807 193.27 176.47C193.27 177.133 193.807 177.67 194.47 177.67Z" fill="#515563"/>
<path d="M208.25 177.67C208.913 177.67 209.45 177.133 209.45 176.47C209.45 175.807 208.913 175.27 208.25 175.27C207.587 175.27 207.05 175.807 207.05 176.47C207.05 177.133 207.587 177.67 208.25 177.67Z" fill="#515563"/>
<path d="M222.03 177.67C222.693 177.67 223.23 177.133 223.23 176.47C223.23 175.807 222.693 175.27 222.03 175.27C221.367 175.27 220.83 175.807 220.83 176.47C220.83 177.133 221.367 177.67 222.03 177.67Z" fill="#515563"/>
<path d="M235.81 177.67C236.473 177.67 237.01 177.133 237.01 176.47C237.01 175.807 236.473 175.27 235.81 175.27C235.147 175.27 234.61 175.807 234.61 176.47C234.61 177.133 235.147 177.67 235.81 177.67Z" fill="#515563"/>
<path d="M250.79 176.47C250.79 177.13 250.25 177.67 249.59 177.67C248.93 177.67 248.39 177.13 248.39 176.47C248.39 175.81 248.93 175.27 249.59 175.27C250.26 175.27 250.79 175.81 250.79 176.47Z" fill="#515563"/>
<path d="M1.53008 191.15C2.19282 191.15 2.73008 190.613 2.73008 189.95C2.73008 189.287 2.19282 188.75 1.53008 188.75C0.867333 188.75 0.330078 189.287 0.330078 189.95C0.330078 190.613 0.867333 191.15 1.53008 191.15Z" fill="#515563"/>
<path d="M15.3101 191.15C15.9728 191.15 16.5101 190.613 16.5101 189.95C16.5101 189.287 15.9728 188.75 15.3101 188.75C14.6474 188.75 14.1101 189.287 14.1101 189.95C14.1101 190.613 14.6474 191.15 15.3101 191.15Z" fill="#515563"/>
<path d="M29.0901 191.15C29.7529 191.15 30.2901 190.613 30.2901 189.95C30.2901 189.287 29.7529 188.75 29.0901 188.75C28.4274 188.75 27.8901 189.287 27.8901 189.95C27.8901 190.613 28.4274 191.15 29.0901 191.15Z" fill="#515563"/>
<path d="M42.8702 191.15C43.5329 191.15 44.0702 190.613 44.0702 189.95C44.0702 189.287 43.5329 188.75 42.8702 188.75C42.2074 188.75 41.6702 189.287 41.6702 189.95C41.6702 190.613 42.2074 191.15 42.8702 191.15Z" fill="#515563"/>
<path d="M56.6501 191.15C57.3128 191.15 57.8501 190.613 57.8501 189.95C57.8501 189.287 57.3128 188.75 56.6501 188.75C55.9873 188.75 55.4501 189.287 55.4501 189.95C55.4501 190.613 55.9873 191.15 56.6501 191.15Z" fill="#515563"/>
<path d="M70.4301 191.15C71.0928 191.15 71.6301 190.613 71.6301 189.95C71.6301 189.287 71.0928 188.75 70.4301 188.75C69.7674 188.75 69.2301 189.287 69.2301 189.95C69.2301 190.613 69.7674 191.15 70.4301 191.15Z" fill="#515563"/>
<path d="M84.22 191.15C84.8828 191.15 85.42 190.613 85.42 189.95C85.42 189.287 84.8828 188.75 84.22 188.75C83.5573 188.75 83.02 189.287 83.02 189.95C83.02 190.613 83.5573 191.15 84.22 191.15Z" fill="#515563"/>
<path d="M98 191.15C98.6628 191.15 99.2001 190.613 99.2001 189.95C99.2001 189.287 98.6628 188.75 98 188.75C97.3373 188.75 96.8 189.287 96.8 189.95C96.8 190.613 97.3373 191.15 98 191.15Z" fill="#515563"/>
<path d="M112.98 189.95C112.98 190.61 112.44 191.15 111.78 191.15C111.12 191.15 110.58 190.61 110.58 189.95C110.58 189.29 111.12 188.75 111.78 188.75C112.44 188.75 112.98 189.29 112.98 189.95Z" fill="#515563"/>
<path d="M125.56 191.15C126.223 191.15 126.76 190.613 126.76 189.95C126.76 189.287 126.223 188.75 125.56 188.75C124.897 188.75 124.36 189.287 124.36 189.95C124.36 190.613 124.897 191.15 125.56 191.15Z" fill="#515563"/>
<path d="M139.34 191.15C140.003 191.15 140.54 190.613 140.54 189.95C140.54 189.287 140.003 188.75 139.34 188.75C138.677 188.75 138.14 189.287 138.14 189.95C138.14 190.613 138.677 191.15 139.34 191.15Z" fill="#515563"/>
<path d="M153.12 191.15C153.783 191.15 154.32 190.613 154.32 189.95C154.32 189.287 153.783 188.75 153.12 188.75C152.457 188.75 151.92 189.287 151.92 189.95C151.92 190.613 152.457 191.15 153.12 191.15Z" fill="#515563"/>
<path d="M166.91 191.15C167.573 191.15 168.11 190.613 168.11 189.95C168.11 189.287 167.573 188.75 166.91 188.75C166.247 188.75 165.71 189.287 165.71 189.95C165.71 190.613 166.247 191.15 166.91 191.15Z" fill="#515563"/>
<path d="M180.69 191.15C181.353 191.15 181.89 190.613 181.89 189.95C181.89 189.287 181.353 188.75 180.69 188.75C180.027 188.75 179.49 189.287 179.49 189.95C179.49 190.613 180.027 191.15 180.69 191.15Z" fill="#515563"/>
<path d="M194.47 191.15C195.133 191.15 195.67 190.613 195.67 189.95C195.67 189.287 195.133 188.75 194.47 188.75C193.807 188.75 193.27 189.287 193.27 189.95C193.27 190.613 193.807 191.15 194.47 191.15Z" fill="#515563"/>
<path d="M208.25 191.15C208.913 191.15 209.45 190.613 209.45 189.95C209.45 189.287 208.913 188.75 208.25 188.75C207.587 188.75 207.05 189.287 207.05 189.95C207.05 190.613 207.587 191.15 208.25 191.15Z" fill="#515563"/>
<path d="M222.03 191.15C222.693 191.15 223.23 190.613 223.23 189.95C223.23 189.287 222.693 188.75 222.03 188.75C221.367 188.75 220.83 189.287 220.83 189.95C220.83 190.613 221.367 191.15 222.03 191.15Z" fill="#515563"/>
<path d="M235.81 191.15C236.473 191.15 237.01 190.613 237.01 189.95C237.01 189.287 236.473 188.75 235.81 188.75C235.147 188.75 234.61 189.287 234.61 189.95C234.61 190.613 235.147 191.15 235.81 191.15Z" fill="#515563"/>
<path d="M250.79 189.95C250.79 190.61 250.25 191.15 249.59 191.15C248.93 191.15 248.39 190.61 248.39 189.95C248.39 189.29 248.93 188.75 249.59 188.75C250.26 188.75 250.79 189.29 250.79 189.95Z" fill="#515563"/>
<path d="M1.53008 204.63C2.19282 204.63 2.73008 204.093 2.73008 203.43C2.73008 202.767 2.19282 202.23 1.53008 202.23C0.867333 202.23 0.330078 202.767 0.330078 203.43C0.330078 204.093 0.867333 204.63 1.53008 204.63Z" fill="#515563"/>
<path d="M15.3101 204.63C15.9728 204.63 16.5101 204.093 16.5101 203.43C16.5101 202.767 15.9728 202.23 15.3101 202.23C14.6474 202.23 14.1101 202.767 14.1101 203.43C14.1101 204.093 14.6474 204.63 15.3101 204.63Z" fill="#515563"/>
<path d="M29.0901 204.63C29.7529 204.63 30.2901 204.093 30.2901 203.43C30.2901 202.767 29.7529 202.23 29.0901 202.23C28.4274 202.23 27.8901 202.767 27.8901 203.43C27.8901 204.093 28.4274 204.63 29.0901 204.63Z" fill="#515563"/>
<path d="M42.8702 204.63C43.5329 204.63 44.0702 204.093 44.0702 203.43C44.0702 202.767 43.5329 202.23 42.8702 202.23C42.2074 202.23 41.6702 202.767 41.6702 203.43C41.6702 204.093 42.2074 204.63 42.8702 204.63Z" fill="#515563"/>
<path d="M56.6501 204.63C57.3128 204.63 57.8501 204.093 57.8501 203.43C57.8501 202.767 57.3128 202.23 56.6501 202.23C55.9873 202.23 55.4501 202.767 55.4501 203.43C55.4501 204.093 55.9873 204.63 56.6501 204.63Z" fill="#515563"/>
<path d="M70.4301 204.63C71.0928 204.63 71.6301 204.093 71.6301 203.43C71.6301 202.767 71.0928 202.23 70.4301 202.23C69.7674 202.23 69.2301 202.767 69.2301 203.43C69.2301 204.093 69.7674 204.63 70.4301 204.63Z" fill="#515563"/>
<path d="M84.22 204.63C84.8828 204.63 85.42 204.093 85.42 203.43C85.42 202.767 84.8828 202.23 84.22 202.23C83.5573 202.23 83.02 202.767 83.02 203.43C83.02 204.093 83.5573 204.63 84.22 204.63Z" fill="#515563"/>
<path d="M98 204.63C98.6628 204.63 99.2001 204.093 99.2001 203.43C99.2001 202.767 98.6628 202.23 98 202.23C97.3373 202.23 96.8 202.767 96.8 203.43C96.8 204.093 97.3373 204.63 98 204.63Z" fill="#515563"/>
<path d="M112.98 203.43C112.98 204.09 112.44 204.63 111.78 204.63C111.12 204.63 110.58 204.09 110.58 203.43C110.58 202.77 111.12 202.23 111.78 202.23C112.44 202.23 112.98 202.77 112.98 203.43Z" fill="#515563"/>
<path d="M125.56 204.63C126.223 204.63 126.76 204.093 126.76 203.43C126.76 202.767 126.223 202.23 125.56 202.23C124.897 202.23 124.36 202.767 124.36 203.43C124.36 204.093 124.897 204.63 125.56 204.63Z" fill="#515563"/>
<path d="M139.34 204.63C140.003 204.63 140.54 204.093 140.54 203.43C140.54 202.767 140.003 202.23 139.34 202.23C138.677 202.23 138.14 202.767 138.14 203.43C138.14 204.093 138.677 204.63 139.34 204.63Z" fill="#515563"/>
<path d="M153.12 204.63C153.783 204.63 154.32 204.093 154.32 203.43C154.32 202.767 153.783 202.23 153.12 202.23C152.457 202.23 151.92 202.767 151.92 203.43C151.92 204.093 152.457 204.63 153.12 204.63Z" fill="#515563"/>
<path d="M166.91 204.63C167.573 204.63 168.11 204.093 168.11 203.43C168.11 202.767 167.573 202.23 166.91 202.23C166.247 202.23 165.71 202.767 165.71 203.43C165.71 204.093 166.247 204.63 166.91 204.63Z" fill="#515563"/>
<path d="M180.69 204.63C181.353 204.63 181.89 204.093 181.89 203.43C181.89 202.767 181.353 202.23 180.69 202.23C180.027 202.23 179.49 202.767 179.49 203.43C179.49 204.093 180.027 204.63 180.69 204.63Z" fill="#515563"/>
<path d="M194.47 204.63C195.133 204.63 195.67 204.093 195.67 203.43C195.67 202.767 195.133 202.23 194.47 202.23C193.807 202.23 193.27 202.767 193.27 203.43C193.27 204.093 193.807 204.63 194.47 204.63Z" fill="#515563"/>
<path d="M208.25 204.63C208.913 204.63 209.45 204.093 209.45 203.43C209.45 202.767 208.913 202.23 208.25 202.23C207.587 202.23 207.05 202.767 207.05 203.43C207.05 204.093 207.587 204.63 208.25 204.63Z" fill="#515563"/>
<path d="M222.03 204.63C222.693 204.63 223.23 204.093 223.23 203.43C223.23 202.767 222.693 202.23 222.03 202.23C221.367 202.23 220.83 202.767 220.83 203.43C220.83 204.093 221.367 204.63 222.03 204.63Z" fill="#515563"/>
<path d="M235.81 204.63C236.473 204.63 237.01 204.093 237.01 203.43C237.01 202.767 236.473 202.23 235.81 202.23C235.147 202.23 234.61 202.767 234.61 203.43C234.61 204.093 235.147 204.63 235.81 204.63Z" fill="#515563"/>
<path d="M250.79 203.43C250.79 204.09 250.25 204.63 249.59 204.63C248.93 204.63 248.39 204.09 248.39 203.43C248.39 202.77 248.93 202.23 249.59 202.23C250.26 202.23 250.79 202.77 250.79 203.43Z" fill="#515563"/>
<path d="M1.53008 218.11C2.19282 218.11 2.73008 217.573 2.73008 216.91C2.73008 216.247 2.19282 215.71 1.53008 215.71C0.867333 215.71 0.330078 216.247 0.330078 216.91C0.330078 217.573 0.867333 218.11 1.53008 218.11Z" fill="#515563"/>
<path d="M15.3101 218.11C15.9728 218.11 16.5101 217.573 16.5101 216.91C16.5101 216.247 15.9728 215.71 15.3101 215.71C14.6474 215.71 14.1101 216.247 14.1101 216.91C14.1101 217.573 14.6474 218.11 15.3101 218.11Z" fill="#515563"/>
<path d="M29.0901 218.11C29.7529 218.11 30.2901 217.573 30.2901 216.91C30.2901 216.247 29.7529 215.71 29.0901 215.71C28.4274 215.71 27.8901 216.247 27.8901 216.91C27.8901 217.573 28.4274 218.11 29.0901 218.11Z" fill="#515563"/>
<path d="M42.8702 218.11C43.5329 218.11 44.0702 217.573 44.0702 216.91C44.0702 216.247 43.5329 215.71 42.8702 215.71C42.2074 215.71 41.6702 216.247 41.6702 216.91C41.6702 217.573 42.2074 218.11 42.8702 218.11Z" fill="#515563"/>
<path d="M56.6501 218.11C57.3128 218.11 57.8501 217.573 57.8501 216.91C57.8501 216.247 57.3128 215.71 56.6501 215.71C55.9873 215.71 55.4501 216.247 55.4501 216.91C55.4501 217.573 55.9873 218.11 56.6501 218.11Z" fill="#515563"/>
<path d="M70.4301 218.11C71.0928 218.11 71.6301 217.573 71.6301 216.91C71.6301 216.247 71.0928 215.71 70.4301 215.71C69.7674 215.71 69.2301 216.247 69.2301 216.91C69.2301 217.573 69.7674 218.11 70.4301 218.11Z" fill="#515563"/>
<path d="M84.22 218.11C84.8828 218.11 85.42 217.573 85.42 216.91C85.42 216.247 84.8828 215.71 84.22 215.71C83.5573 215.71 83.02 216.247 83.02 216.91C83.02 217.573 83.5573 218.11 84.22 218.11Z" fill="#515563"/>
<path d="M98 218.11C98.6628 218.11 99.2001 217.573 99.2001 216.91C99.2001 216.247 98.6628 215.71 98 215.71C97.3373 215.71 96.8 216.247 96.8 216.91C96.8 217.573 97.3373 218.11 98 218.11Z" fill="#515563"/>
<path d="M112.98 216.91C112.98 217.57 112.44 218.11 111.78 218.11C111.12 218.11 110.58 217.57 110.58 216.91C110.58 216.25 111.12 215.71 111.78 215.71C112.44 215.72 112.98 216.25 112.98 216.91Z" fill="#515563"/>
<path d="M125.56 218.11C126.223 218.11 126.76 217.573 126.76 216.91C126.76 216.247 126.223 215.71 125.56 215.71C124.897 215.71 124.36 216.247 124.36 216.91C124.36 217.573 124.897 218.11 125.56 218.11Z" fill="#515563"/>
<path d="M139.34 218.11C140.003 218.11 140.54 217.573 140.54 216.91C140.54 216.247 140.003 215.71 139.34 215.71C138.677 215.71 138.14 216.247 138.14 216.91C138.14 217.573 138.677 218.11 139.34 218.11Z" fill="#515563"/>
<path d="M153.12 218.11C153.783 218.11 154.32 217.573 154.32 216.91C154.32 216.247 153.783 215.71 153.12 215.71C152.457 215.71 151.92 216.247 151.92 216.91C151.92 217.573 152.457 218.11 153.12 218.11Z" fill="#515563"/>
<path d="M166.91 218.11C167.573 218.11 168.11 217.573 168.11 216.91C168.11 216.247 167.573 215.71 166.91 215.71C166.247 215.71 165.71 216.247 165.71 216.91C165.71 217.573 166.247 218.11 166.91 218.11Z" fill="#515563"/>
<path d="M180.69 218.11C181.353 218.11 181.89 217.573 181.89 216.91C181.89 216.247 181.353 215.71 180.69 215.71C180.027 215.71 179.49 216.247 179.49 216.91C179.49 217.573 180.027 218.11 180.69 218.11Z" fill="#515563"/>
<path d="M194.47 218.11C195.133 218.11 195.67 217.573 195.67 216.91C195.67 216.247 195.133 215.71 194.47 215.71C193.807 215.71 193.27 216.247 193.27 216.91C193.27 217.573 193.807 218.11 194.47 218.11Z" fill="#515563"/>
<path d="M208.25 218.11C208.913 218.11 209.45 217.573 209.45 216.91C209.45 216.247 208.913 215.71 208.25 215.71C207.587 215.71 207.05 216.247 207.05 216.91C207.05 217.573 207.587 218.11 208.25 218.11Z" fill="#515563"/>
<path d="M222.03 218.11C222.693 218.11 223.23 217.573 223.23 216.91C223.23 216.247 222.693 215.71 222.03 215.71C221.367 215.71 220.83 216.247 220.83 216.91C220.83 217.573 221.367 218.11 222.03 218.11Z" fill="#515563"/>
<path d="M235.81 218.11C236.473 218.11 237.01 217.573 237.01 216.91C237.01 216.247 236.473 215.71 235.81 215.71C235.147 215.71 234.61 216.247 234.61 216.91C234.61 217.573 235.147 218.11 235.81 218.11Z" fill="#515563"/>
<path d="M250.79 216.91C250.79 217.57 250.25 218.11 249.59 218.11C248.93 218.11 248.39 217.57 248.39 216.91C248.39 216.25 248.93 215.71 249.59 215.71C250.26 215.72 250.79 216.25 250.79 216.91Z" fill="#515563"/>
<path d="M1.53008 231.6C2.19282 231.6 2.73008 231.063 2.73008 230.4C2.73008 229.737 2.19282 229.2 1.53008 229.2C0.867333 229.2 0.330078 229.737 0.330078 230.4C0.330078 231.063 0.867333 231.6 1.53008 231.6Z" fill="#515563"/>
<path d="M15.3101 231.6C15.9728 231.6 16.5101 231.063 16.5101 230.4C16.5101 229.737 15.9728 229.2 15.3101 229.2C14.6474 229.2 14.1101 229.737 14.1101 230.4C14.1101 231.063 14.6474 231.6 15.3101 231.6Z" fill="#515563"/>
<path d="M29.0901 231.6C29.7529 231.6 30.2901 231.063 30.2901 230.4C30.2901 229.737 29.7529 229.2 29.0901 229.2C28.4274 229.2 27.8901 229.737 27.8901 230.4C27.8901 231.063 28.4274 231.6 29.0901 231.6Z" fill="#515563"/>
<path d="M42.8702 231.6C43.5329 231.6 44.0702 231.063 44.0702 230.4C44.0702 229.737 43.5329 229.2 42.8702 229.2C42.2074 229.2 41.6702 229.737 41.6702 230.4C41.6702 231.063 42.2074 231.6 42.8702 231.6Z" fill="#515563"/>
<path d="M56.6501 231.6C57.3128 231.6 57.8501 231.063 57.8501 230.4C57.8501 229.737 57.3128 229.2 56.6501 229.2C55.9873 229.2 55.4501 229.737 55.4501 230.4C55.4501 231.063 55.9873 231.6 56.6501 231.6Z" fill="#515563"/>
<path d="M70.4301 231.6C71.0928 231.6 71.6301 231.063 71.6301 230.4C71.6301 229.737 71.0928 229.2 70.4301 229.2C69.7674 229.2 69.2301 229.737 69.2301 230.4C69.2301 231.063 69.7674 231.6 70.4301 231.6Z" fill="#515563"/>
<path d="M84.22 231.6C84.8828 231.6 85.42 231.063 85.42 230.4C85.42 229.737 84.8828 229.2 84.22 229.2C83.5573 229.2 83.02 229.737 83.02 230.4C83.02 231.063 83.5573 231.6 84.22 231.6Z" fill="#515563"/>
<path d="M98 231.6C98.6628 231.6 99.2001 231.063 99.2001 230.4C99.2001 229.737 98.6628 229.2 98 229.2C97.3373 229.2 96.8 229.737 96.8 230.4C96.8 231.063 97.3373 231.6 98 231.6Z" fill="#515563"/>
<path d="M112.98 230.4C112.98 231.06 112.44 231.6 111.78 231.6C111.12 231.6 110.58 231.06 110.58 230.4C110.58 229.74 111.12 229.2 111.78 229.2C112.44 229.2 112.98 229.73 112.98 230.4Z" fill="#515563"/>
<path d="M125.56 231.6C126.223 231.6 126.76 231.063 126.76 230.4C126.76 229.737 126.223 229.2 125.56 229.2C124.897 229.2 124.36 229.737 124.36 230.4C124.36 231.063 124.897 231.6 125.56 231.6Z" fill="#515563"/>
<path d="M139.34 231.6C140.003 231.6 140.54 231.063 140.54 230.4C140.54 229.737 140.003 229.2 139.34 229.2C138.677 229.2 138.14 229.737 138.14 230.4C138.14 231.063 138.677 231.6 139.34 231.6Z" fill="#515563"/>
<path d="M153.12 231.6C153.783 231.6 154.32 231.063 154.32 230.4C154.32 229.737 153.783 229.2 153.12 229.2C152.457 229.2 151.92 229.737 151.92 230.4C151.92 231.063 152.457 231.6 153.12 231.6Z" fill="#515563"/>
<path d="M166.91 231.6C167.573 231.6 168.11 231.063 168.11 230.4C168.11 229.737 167.573 229.2 166.91 229.2C166.247 229.2 165.71 229.737 165.71 230.4C165.71 231.063 166.247 231.6 166.91 231.6Z" fill="#515563"/>
<path d="M180.69 231.6C181.353 231.6 181.89 231.063 181.89 230.4C181.89 229.737 181.353 229.2 180.69 229.2C180.027 229.2 179.49 229.737 179.49 230.4C179.49 231.063 180.027 231.6 180.69 231.6Z" fill="#515563"/>
<path d="M194.47 231.6C195.133 231.6 195.67 231.063 195.67 230.4C195.67 229.737 195.133 229.2 194.47 229.2C193.807 229.2 193.27 229.737 193.27 230.4C193.27 231.063 193.807 231.6 194.47 231.6Z" fill="#515563"/>
<path d="M208.25 231.6C208.913 231.6 209.45 231.063 209.45 230.4C209.45 229.737 208.913 229.2 208.25 229.2C207.587 229.2 207.05 229.737 207.05 230.4C207.05 231.063 207.587 231.6 208.25 231.6Z" fill="#515563"/>
<path d="M222.03 231.6C222.693 231.6 223.23 231.063 223.23 230.4C223.23 229.737 222.693 229.2 222.03 229.2C221.367 229.2 220.83 229.737 220.83 230.4C220.83 231.063 221.367 231.6 222.03 231.6Z" fill="#515563"/>
<path d="M235.81 231.6C236.473 231.6 237.01 231.063 237.01 230.4C237.01 229.737 236.473 229.2 235.81 229.2C235.147 229.2 234.61 229.737 234.61 230.4C234.61 231.063 235.147 231.6 235.81 231.6Z" fill="#515563"/>
<path d="M250.79 230.4C250.79 231.06 250.25 231.6 249.59 231.6C248.93 231.6 248.39 231.06 248.39 230.4C248.39 229.74 248.93 229.2 249.59 229.2C250.26 229.2 250.79 229.73 250.79 230.4Z" fill="#515563"/>
<path d="M1.53008 245.08C2.19282 245.08 2.73008 244.543 2.73008 243.88C2.73008 243.217 2.19282 242.68 1.53008 242.68C0.867333 242.68 0.330078 243.217 0.330078 243.88C0.330078 244.543 0.867333 245.08 1.53008 245.08Z" fill="#515563"/>
<path d="M15.3101 245.08C15.9728 245.08 16.5101 244.543 16.5101 243.88C16.5101 243.217 15.9728 242.68 15.3101 242.68C14.6474 242.68 14.1101 243.217 14.1101 243.88C14.1101 244.543 14.6474 245.08 15.3101 245.08Z" fill="#515563"/>
<path d="M29.0901 245.08C29.7529 245.08 30.2901 244.543 30.2901 243.88C30.2901 243.217 29.7529 242.68 29.0901 242.68C28.4274 242.68 27.8901 243.217 27.8901 243.88C27.8901 244.543 28.4274 245.08 29.0901 245.08Z" fill="#515563"/>
<path d="M42.8702 245.08C43.5329 245.08 44.0702 244.543 44.0702 243.88C44.0702 243.217 43.5329 242.68 42.8702 242.68C42.2074 242.68 41.6702 243.217 41.6702 243.88C41.6702 244.543 42.2074 245.08 42.8702 245.08Z" fill="#515563"/>
<path d="M56.6501 245.08C57.3128 245.08 57.8501 244.543 57.8501 243.88C57.8501 243.217 57.3128 242.68 56.6501 242.68C55.9873 242.68 55.4501 243.217 55.4501 243.88C55.4501 244.543 55.9873 245.08 56.6501 245.08Z" fill="#515563"/>
<path d="M70.4301 245.08C71.0928 245.08 71.6301 244.543 71.6301 243.88C71.6301 243.217 71.0928 242.68 70.4301 242.68C69.7674 242.68 69.2301 243.217 69.2301 243.88C69.2301 244.543 69.7674 245.08 70.4301 245.08Z" fill="#515563"/>
<path d="M84.22 245.08C84.8828 245.08 85.42 244.543 85.42 243.88C85.42 243.217 84.8828 242.68 84.22 242.68C83.5573 242.68 83.02 243.217 83.02 243.88C83.02 244.543 83.5573 245.08 84.22 245.08Z" fill="#515563"/>
<path d="M98 245.08C98.6628 245.08 99.2001 244.543 99.2001 243.88C99.2001 243.217 98.6628 242.68 98 242.68C97.3373 242.68 96.8 243.217 96.8 243.88C96.8 244.543 97.3373 245.08 98 245.08Z" fill="#515563"/>
<path d="M112.98 243.88C112.98 244.54 112.44 245.08 111.78 245.08C111.12 245.08 110.58 244.54 110.58 243.88C110.58 243.22 111.12 242.68 111.78 242.68C112.44 242.68 112.98 243.22 112.98 243.88Z" fill="#515563"/>
<path d="M125.56 245.08C126.223 245.08 126.76 244.543 126.76 243.88C126.76 243.217 126.223 242.68 125.56 242.68C124.897 242.68 124.36 243.217 124.36 243.88C124.36 244.543 124.897 245.08 125.56 245.08Z" fill="#515563"/>
<path d="M139.34 245.08C140.003 245.08 140.54 244.543 140.54 243.88C140.54 243.217 140.003 242.68 139.34 242.68C138.677 242.68 138.14 243.217 138.14 243.88C138.14 244.543 138.677 245.08 139.34 245.08Z" fill="#515563"/>
<path d="M153.12 245.08C153.783 245.08 154.32 244.543 154.32 243.88C154.32 243.217 153.783 242.68 153.12 242.68C152.457 242.68 151.92 243.217 151.92 243.88C151.92 244.543 152.457 245.08 153.12 245.08Z" fill="#515563"/>
<path d="M166.91 245.08C167.573 245.08 168.11 244.543 168.11 243.88C168.11 243.217 167.573 242.68 166.91 242.68C166.247 242.68 165.71 243.217 165.71 243.88C165.71 244.543 166.247 245.08 166.91 245.08Z" fill="#515563"/>
<path d="M180.69 245.08C181.353 245.08 181.89 244.543 181.89 243.88C181.89 243.217 181.353 242.68 180.69 242.68C180.027 242.68 179.49 243.217 179.49 243.88C179.49 244.543 180.027 245.08 180.69 245.08Z" fill="#515563"/>
<path d="M194.47 245.08C195.133 245.08 195.67 244.543 195.67 243.88C195.67 243.217 195.133 242.68 194.47 242.68C193.807 242.68 193.27 243.217 193.27 243.88C193.27 244.543 193.807 245.08 194.47 245.08Z" fill="#515563"/>
<path d="M208.25 245.08C208.913 245.08 209.45 244.543 209.45 243.88C209.45 243.217 208.913 242.68 208.25 242.68C207.587 242.68 207.05 243.217 207.05 243.88C207.05 244.543 207.587 245.08 208.25 245.08Z" fill="#515563"/>
<path d="M222.03 245.08C222.693 245.08 223.23 244.543 223.23 243.88C223.23 243.217 222.693 242.68 222.03 242.68C221.367 242.68 220.83 243.217 220.83 243.88C220.83 244.543 221.367 245.08 222.03 245.08Z" fill="#515563"/>
<path d="M235.81 245.08C236.473 245.08 237.01 244.543 237.01 243.88C237.01 243.217 236.473 242.68 235.81 242.68C235.147 242.68 234.61 243.217 234.61 243.88C234.61 244.543 235.147 245.08 235.81 245.08Z" fill="#515563"/>
<path d="M250.79 243.88C250.79 244.54 250.25 245.08 249.59 245.08C248.93 245.08 248.39 244.54 248.39 243.88C248.39 243.22 248.93 242.68 249.59 242.68C250.26 242.68 250.79 243.22 250.79 243.88Z" fill="#515563"/>
<path d="M1.53008 258.56C2.19282 258.56 2.73008 258.023 2.73008 257.36C2.73008 256.697 2.19282 256.16 1.53008 256.16C0.867333 256.16 0.330078 256.697 0.330078 257.36C0.330078 258.023 0.867333 258.56 1.53008 258.56Z" fill="#515563"/>
<path d="M15.3101 258.56C15.9728 258.56 16.5101 258.023 16.5101 257.36C16.5101 256.697 15.9728 256.16 15.3101 256.16C14.6474 256.16 14.1101 256.697 14.1101 257.36C14.1101 258.023 14.6474 258.56 15.3101 258.56Z" fill="#515563"/>
<path d="M29.0901 258.56C29.7529 258.56 30.2901 258.023 30.2901 257.36C30.2901 256.697 29.7529 256.16 29.0901 256.16C28.4274 256.16 27.8901 256.697 27.8901 257.36C27.8901 258.023 28.4274 258.56 29.0901 258.56Z" fill="#515563"/>
<path d="M42.8702 258.56C43.5329 258.56 44.0702 258.023 44.0702 257.36C44.0702 256.697 43.5329 256.16 42.8702 256.16C42.2074 256.16 41.6702 256.697 41.6702 257.36C41.6702 258.023 42.2074 258.56 42.8702 258.56Z" fill="#515563"/>
<path d="M56.6501 258.56C57.3128 258.56 57.8501 258.023 57.8501 257.36C57.8501 256.697 57.3128 256.16 56.6501 256.16C55.9873 256.16 55.4501 256.697 55.4501 257.36C55.4501 258.023 55.9873 258.56 56.6501 258.56Z" fill="#515563"/>
<path d="M70.4301 258.56C71.0928 258.56 71.6301 258.023 71.6301 257.36C71.6301 256.697 71.0928 256.16 70.4301 256.16C69.7674 256.16 69.2301 256.697 69.2301 257.36C69.2301 258.023 69.7674 258.56 70.4301 258.56Z" fill="#515563"/>
<path d="M84.22 258.56C84.8828 258.56 85.42 258.023 85.42 257.36C85.42 256.697 84.8828 256.16 84.22 256.16C83.5573 256.16 83.02 256.697 83.02 257.36C83.02 258.023 83.5573 258.56 84.22 258.56Z" fill="#515563"/>
<path d="M98 258.56C98.6628 258.56 99.2001 258.023 99.2001 257.36C99.2001 256.697 98.6628 256.16 98 256.16C97.3373 256.16 96.8 256.697 96.8 257.36C96.8 258.023 97.3373 258.56 98 258.56Z" fill="#515563"/>
<path d="M112.98 257.36C112.98 258.02 112.44 258.56 111.78 258.56C111.12 258.56 110.58 258.02 110.58 257.36C110.58 256.7 111.12 256.16 111.78 256.16C112.44 256.16 112.98 256.7 112.98 257.36Z" fill="#515563"/>
<path d="M125.56 258.56C126.223 258.56 126.76 258.023 126.76 257.36C126.76 256.697 126.223 256.16 125.56 256.16C124.897 256.16 124.36 256.697 124.36 257.36C124.36 258.023 124.897 258.56 125.56 258.56Z" fill="#515563"/>
<path d="M139.34 258.56C140.003 258.56 140.54 258.023 140.54 257.36C140.54 256.697 140.003 256.16 139.34 256.16C138.677 256.16 138.14 256.697 138.14 257.36C138.14 258.023 138.677 258.56 139.34 258.56Z" fill="#515563"/>
<path d="M153.12 258.56C153.783 258.56 154.32 258.023 154.32 257.36C154.32 256.697 153.783 256.16 153.12 256.16C152.457 256.16 151.92 256.697 151.92 257.36C151.92 258.023 152.457 258.56 153.12 258.56Z" fill="#515563"/>
<path d="M166.91 258.56C167.573 258.56 168.11 258.023 168.11 257.36C168.11 256.697 167.573 256.16 166.91 256.16C166.247 256.16 165.71 256.697 165.71 257.36C165.71 258.023 166.247 258.56 166.91 258.56Z" fill="#515563"/>
<path d="M180.69 258.56C181.353 258.56 181.89 258.023 181.89 257.36C181.89 256.697 181.353 256.16 180.69 256.16C180.027 256.16 179.49 256.697 179.49 257.36C179.49 258.023 180.027 258.56 180.69 258.56Z" fill="#515563"/>
<path d="M194.47 258.56C195.133 258.56 195.67 258.023 195.67 257.36C195.67 256.697 195.133 256.16 194.47 256.16C193.807 256.16 193.27 256.697 193.27 257.36C193.27 258.023 193.807 258.56 194.47 258.56Z" fill="#515563"/>
<path d="M208.25 258.56C208.913 258.56 209.45 258.023 209.45 257.36C209.45 256.697 208.913 256.16 208.25 256.16C207.587 256.16 207.05 256.697 207.05 257.36C207.05 258.023 207.587 258.56 208.25 258.56Z" fill="#515563"/>
<path d="M222.03 258.56C222.693 258.56 223.23 258.023 223.23 257.36C223.23 256.697 222.693 256.16 222.03 256.16C221.367 256.16 220.83 256.697 220.83 257.36C220.83 258.023 221.367 258.56 222.03 258.56Z" fill="#515563"/>
<path d="M235.81 258.56C236.473 258.56 237.01 258.023 237.01 257.36C237.01 256.697 236.473 256.16 235.81 256.16C235.147 256.16 234.61 256.697 234.61 257.36C234.61 258.023 235.147 258.56 235.81 258.56Z" fill="#515563"/>
<path d="M250.79 257.36C250.79 258.02 250.25 258.56 249.59 258.56C248.93 258.56 248.39 258.02 248.39 257.36C248.39 256.7 248.93 256.16 249.59 256.16C250.26 256.16 250.79 256.7 250.79 257.36Z" fill="#515563"/>
<path d="M1.53008 272.04C2.19282 272.04 2.73008 271.503 2.73008 270.84C2.73008 270.177 2.19282 269.64 1.53008 269.64C0.867333 269.64 0.330078 270.177 0.330078 270.84C0.330078 271.503 0.867333 272.04 1.53008 272.04Z" fill="#515563"/>
<path d="M15.3101 272.04C15.9728 272.04 16.5101 271.503 16.5101 270.84C16.5101 270.177 15.9728 269.64 15.3101 269.64C14.6474 269.64 14.1101 270.177 14.1101 270.84C14.1101 271.503 14.6474 272.04 15.3101 272.04Z" fill="#515563"/>
<path d="M29.0901 272.04C29.7529 272.04 30.2901 271.503 30.2901 270.84C30.2901 270.177 29.7529 269.64 29.0901 269.64C28.4274 269.64 27.8901 270.177 27.8901 270.84C27.8901 271.503 28.4274 272.04 29.0901 272.04Z" fill="#515563"/>
<path d="M42.8702 272.04C43.5329 272.04 44.0702 271.503 44.0702 270.84C44.0702 270.177 43.5329 269.64 42.8702 269.64C42.2074 269.64 41.6702 270.177 41.6702 270.84C41.6702 271.503 42.2074 272.04 42.8702 272.04Z" fill="#515563"/>
<path d="M56.6501 272.04C57.3128 272.04 57.8501 271.503 57.8501 270.84C57.8501 270.177 57.3128 269.64 56.6501 269.64C55.9873 269.64 55.4501 270.177 55.4501 270.84C55.4501 271.503 55.9873 272.04 56.6501 272.04Z" fill="#515563"/>
<path d="M70.4301 272.04C71.0928 272.04 71.6301 271.503 71.6301 270.84C71.6301 270.177 71.0928 269.64 70.4301 269.64C69.7674 269.64 69.2301 270.177 69.2301 270.84C69.2301 271.503 69.7674 272.04 70.4301 272.04Z" fill="#515563"/>
<path d="M84.22 272.04C84.8828 272.04 85.42 271.503 85.42 270.84C85.42 270.177 84.8828 269.64 84.22 269.64C83.5573 269.64 83.02 270.177 83.02 270.84C83.02 271.503 83.5573 272.04 84.22 272.04Z" fill="#515563"/>
<path d="M98 272.04C98.6628 272.04 99.2001 271.503 99.2001 270.84C99.2001 270.177 98.6628 269.64 98 269.64C97.3373 269.64 96.8 270.177 96.8 270.84C96.8 271.503 97.3373 272.04 98 272.04Z" fill="#515563"/>
<path d="M112.98 270.84C112.98 271.5 112.44 272.04 111.78 272.04C111.12 272.04 110.58 271.5 110.58 270.84C110.58 270.18 111.12 269.64 111.78 269.64C112.44 269.64 112.98 270.18 112.98 270.84Z" fill="#515563"/>
<path d="M125.56 272.04C126.223 272.04 126.76 271.503 126.76 270.84C126.76 270.177 126.223 269.64 125.56 269.64C124.897 269.64 124.36 270.177 124.36 270.84C124.36 271.503 124.897 272.04 125.56 272.04Z" fill="#515563"/>
<path d="M139.34 272.04C140.003 272.04 140.54 271.503 140.54 270.84C140.54 270.177 140.003 269.64 139.34 269.64C138.677 269.64 138.14 270.177 138.14 270.84C138.14 271.503 138.677 272.04 139.34 272.04Z" fill="#515563"/>
<path d="M153.12 272.04C153.783 272.04 154.32 271.503 154.32 270.84C154.32 270.177 153.783 269.64 153.12 269.64C152.457 269.64 151.92 270.177 151.92 270.84C151.92 271.503 152.457 272.04 153.12 272.04Z" fill="#515563"/>
<path d="M166.91 272.04C167.573 272.04 168.11 271.503 168.11 270.84C168.11 270.177 167.573 269.64 166.91 269.64C166.247 269.64 165.71 270.177 165.71 270.84C165.71 271.503 166.247 272.04 166.91 272.04Z" fill="#515563"/>
<path d="M180.69 272.04C181.353 272.04 181.89 271.503 181.89 270.84C181.89 270.177 181.353 269.64 180.69 269.64C180.027 269.64 179.49 270.177 179.49 270.84C179.49 271.503 180.027 272.04 180.69 272.04Z" fill="#515563"/>
<path d="M194.47 272.04C195.133 272.04 195.67 271.503 195.67 270.84C195.67 270.177 195.133 269.64 194.47 269.64C193.807 269.64 193.27 270.177 193.27 270.84C193.27 271.503 193.807 272.04 194.47 272.04Z" fill="#515563"/>
<path d="M208.25 272.04C208.913 272.04 209.45 271.503 209.45 270.84C209.45 270.177 208.913 269.64 208.25 269.64C207.587 269.64 207.05 270.177 207.05 270.84C207.05 271.503 207.587 272.04 208.25 272.04Z" fill="#515563"/>
<path d="M222.03 272.04C222.693 272.04 223.23 271.503 223.23 270.84C223.23 270.177 222.693 269.64 222.03 269.64C221.367 269.64 220.83 270.177 220.83 270.84C220.83 271.503 221.367 272.04 222.03 272.04Z" fill="#515563"/>
<path d="M235.81 272.04C236.473 272.04 237.01 271.503 237.01 270.84C237.01 270.177 236.473 269.64 235.81 269.64C235.147 269.64 234.61 270.177 234.61 270.84C234.61 271.503 235.147 272.04 235.81 272.04Z" fill="#515563"/>
<path d="M250.79 270.84C250.79 271.5 250.25 272.04 249.59 272.04C248.93 272.04 248.39 271.5 248.39 270.84C248.39 270.18 248.93 269.64 249.59 269.64C250.26 269.64 250.79 270.18 250.79 270.84Z" fill="#515563"/>
<path d="M2.73008 284.32C2.73008 284.98 2.19008 285.52 1.53008 285.52C0.870075 285.52 0.330078 284.98 0.330078 284.32C0.330078 283.66 0.870075 283.12 1.53008 283.12C2.19008 283.13 2.73008 283.66 2.73008 284.32Z" fill="#515563"/>
<path d="M16.5101 284.32C16.5101 284.98 15.9701 285.52 15.3101 285.52C14.6501 285.52 14.1101 284.98 14.1101 284.32C14.1101 283.66 14.6501 283.12 15.3101 283.12C15.9701 283.13 16.5101 283.66 16.5101 284.32Z" fill="#515563"/>
<path d="M30.2901 284.32C30.2901 284.98 29.7501 285.52 29.0901 285.52C28.4301 285.52 27.8901 284.98 27.8901 284.32C27.8901 283.66 28.4301 283.12 29.0901 283.12C29.7501 283.13 30.2901 283.66 30.2901 284.32Z" fill="#515563"/>
<path d="M44.0702 284.32C44.0702 284.98 43.5302 285.52 42.8702 285.52C42.2102 285.52 41.6702 284.98 41.6702 284.32C41.6702 283.66 42.2102 283.12 42.8702 283.12C43.5302 283.13 44.0702 283.66 44.0702 284.32Z" fill="#515563"/>
<path d="M57.8501 284.32C57.8501 284.98 57.3101 285.52 56.6501 285.52C55.9901 285.52 55.4501 284.98 55.4501 284.32C55.4501 283.66 55.9901 283.12 56.6501 283.12C57.3101 283.13 57.8501 283.66 57.8501 284.32Z" fill="#515563"/>
<path d="M71.6301 284.32C71.6301 284.98 71.0901 285.52 70.4301 285.52C69.7701 285.52 69.2301 284.98 69.2301 284.32C69.2301 283.66 69.7701 283.12 70.4301 283.12C71.1001 283.13 71.6301 283.66 71.6301 284.32Z" fill="#515563"/>
<path d="M85.4101 284.32C85.4101 284.98 84.8701 285.52 84.2101 285.52C83.5501 285.52 83.0101 284.98 83.0101 284.32C83.0101 283.66 83.5501 283.12 84.2101 283.12C84.8801 283.13 85.4101 283.66 85.4101 284.32Z" fill="#515563"/>
<path d="M99.2001 284.32C99.2001 284.98 98.66 285.52 98 285.52C97.34 285.52 96.8 284.98 96.8 284.32C96.8 283.66 97.34 283.12 98 283.12C98.66 283.12 99.2001 283.66 99.2001 284.32Z" fill="#515563"/>
<path d="M112.98 284.32C112.98 284.98 112.44 285.52 111.78 285.52C111.12 285.52 110.58 284.98 110.58 284.32C110.58 283.66 111.12 283.12 111.78 283.12C112.44 283.13 112.98 283.66 112.98 284.32Z" fill="#515563"/>
<path d="M126.76 284.32C126.76 284.98 126.22 285.52 125.56 285.52C124.9 285.52 124.36 284.98 124.36 284.32C124.36 283.66 124.9 283.12 125.56 283.12C126.22 283.13 126.76 283.66 126.76 284.32Z" fill="#515563"/>
<path d="M140.54 284.32C140.54 284.98 140 285.52 139.34 285.52C138.68 285.52 138.14 284.98 138.14 284.32C138.14 283.66 138.68 283.12 139.34 283.12C140 283.13 140.54 283.66 140.54 284.32Z" fill="#515563"/>
<path d="M154.32 284.32C154.32 284.98 153.78 285.52 153.12 285.52C152.46 285.52 151.92 284.98 151.92 284.32C151.92 283.66 152.46 283.12 153.12 283.12C153.79 283.13 154.32 283.66 154.32 284.32Z" fill="#515563"/>
<path d="M168.1 284.32C168.1 284.98 167.56 285.52 166.9 285.52C166.24 285.52 165.7 284.98 165.7 284.32C165.7 283.66 166.24 283.12 166.9 283.12C167.57 283.13 168.1 283.66 168.1 284.32Z" fill="#515563"/>
<path d="M181.89 284.32C181.89 284.98 181.35 285.52 180.69 285.52C180.03 285.52 179.49 284.98 179.49 284.32C179.49 283.66 180.03 283.12 180.69 283.12C181.35 283.13 181.89 283.66 181.89 284.32Z" fill="#515563"/>
<path d="M195.67 284.32C195.67 284.98 195.13 285.52 194.47 285.52C193.81 285.52 193.27 284.98 193.27 284.32C193.27 283.66 193.81 283.12 194.47 283.12C195.13 283.12 195.67 283.66 195.67 284.32Z" fill="#515563"/>
<path d="M209.45 284.32C209.45 284.98 208.91 285.52 208.25 285.52C207.59 285.52 207.05 284.98 207.05 284.32C207.05 283.66 207.59 283.12 208.25 283.12C208.91 283.13 209.45 283.66 209.45 284.32Z" fill="#515563"/>
<path d="M223.23 284.32C223.23 284.98 222.69 285.52 222.03 285.52C221.37 285.52 220.83 284.98 220.83 284.32C220.83 283.66 221.37 283.12 222.03 283.12C222.69 283.13 223.23 283.66 223.23 284.32Z" fill="#515563"/>
<path d="M237.01 284.32C237.01 284.98 236.47 285.52 235.81 285.52C235.15 285.52 234.61 284.98 234.61 284.32C234.61 283.66 235.15 283.12 235.81 283.12C236.48 283.13 237.01 283.66 237.01 284.32Z" fill="#515563"/>
<path d="M250.79 284.32C250.79 284.98 250.25 285.52 249.59 285.52C248.93 285.52 248.39 284.98 248.39 284.32C248.39 283.66 248.93 283.12 249.59 283.12C250.26 283.13 250.79 283.66 250.79 284.32Z" fill="#515563"/>
<path d="M1.53008 299.01C2.19282 299.01 2.73008 298.473 2.73008 297.81C2.73008 297.147 2.19282 296.61 1.53008 296.61C0.867333 296.61 0.330078 297.147 0.330078 297.81C0.330078 298.473 0.867333 299.01 1.53008 299.01Z" fill="#515563"/>
<path d="M15.3101 299.01C15.9728 299.01 16.5101 298.473 16.5101 297.81C16.5101 297.147 15.9728 296.61 15.3101 296.61C14.6474 296.61 14.1101 297.147 14.1101 297.81C14.1101 298.473 14.6474 299.01 15.3101 299.01Z" fill="#515563"/>
<path d="M29.0901 299.01C29.7529 299.01 30.2901 298.473 30.2901 297.81C30.2901 297.147 29.7529 296.61 29.0901 296.61C28.4274 296.61 27.8901 297.147 27.8901 297.81C27.8901 298.473 28.4274 299.01 29.0901 299.01Z" fill="#515563"/>
<path d="M42.8702 299.01C43.5329 299.01 44.0702 298.473 44.0702 297.81C44.0702 297.147 43.5329 296.61 42.8702 296.61C42.2074 296.61 41.6702 297.147 41.6702 297.81C41.6702 298.473 42.2074 299.01 42.8702 299.01Z" fill="#515563"/>
<path d="M56.6501 299.01C57.3128 299.01 57.8501 298.473 57.8501 297.81C57.8501 297.147 57.3128 296.61 56.6501 296.61C55.9873 296.61 55.4501 297.147 55.4501 297.81C55.4501 298.473 55.9873 299.01 56.6501 299.01Z" fill="#515563"/>
<path d="M70.4301 299.01C71.0928 299.01 71.6301 298.473 71.6301 297.81C71.6301 297.147 71.0928 296.61 70.4301 296.61C69.7674 296.61 69.2301 297.147 69.2301 297.81C69.2301 298.473 69.7674 299.01 70.4301 299.01Z" fill="#515563"/>
<path d="M84.22 299.01C84.8828 299.01 85.42 298.473 85.42 297.81C85.42 297.147 84.8828 296.61 84.22 296.61C83.5573 296.61 83.02 297.147 83.02 297.81C83.02 298.473 83.5573 299.01 84.22 299.01Z" fill="#515563"/>
<path d="M98 299.01C98.6628 299.01 99.2001 298.473 99.2001 297.81C99.2001 297.147 98.6628 296.61 98 296.61C97.3373 296.61 96.8 297.147 96.8 297.81C96.8 298.473 97.3373 299.01 98 299.01Z" fill="#515563"/>
<path d="M112.98 297.81C112.98 298.47 112.44 299.01 111.78 299.01C111.12 299.01 110.58 298.47 110.58 297.81C110.58 297.15 111.12 296.61 111.78 296.61C112.44 296.61 112.98 297.14 112.98 297.81Z" fill="#515563"/>
<path d="M125.56 299.01C126.223 299.01 126.76 298.473 126.76 297.81C126.76 297.147 126.223 296.61 125.56 296.61C124.897 296.61 124.36 297.147 124.36 297.81C124.36 298.473 124.897 299.01 125.56 299.01Z" fill="#515563"/>
<path d="M139.34 299.01C140.003 299.01 140.54 298.473 140.54 297.81C140.54 297.147 140.003 296.61 139.34 296.61C138.677 296.61 138.14 297.147 138.14 297.81C138.14 298.473 138.677 299.01 139.34 299.01Z" fill="#515563"/>
<path d="M153.12 299.01C153.783 299.01 154.32 298.473 154.32 297.81C154.32 297.147 153.783 296.61 153.12 296.61C152.457 296.61 151.92 297.147 151.92 297.81C151.92 298.473 152.457 299.01 153.12 299.01Z" fill="#515563"/>
<path d="M166.91 299.01C167.573 299.01 168.11 298.473 168.11 297.81C168.11 297.147 167.573 296.61 166.91 296.61C166.247 296.61 165.71 297.147 165.71 297.81C165.71 298.473 166.247 299.01 166.91 299.01Z" fill="#515563"/>
<path d="M180.69 299.01C181.353 299.01 181.89 298.473 181.89 297.81C181.89 297.147 181.353 296.61 180.69 296.61C180.027 296.61 179.49 297.147 179.49 297.81C179.49 298.473 180.027 299.01 180.69 299.01Z" fill="#515563"/>
<path d="M194.47 299.01C195.133 299.01 195.67 298.473 195.67 297.81C195.67 297.147 195.133 296.61 194.47 296.61C193.807 296.61 193.27 297.147 193.27 297.81C193.27 298.473 193.807 299.01 194.47 299.01Z" fill="#515563"/>
<path d="M208.25 299.01C208.913 299.01 209.45 298.473 209.45 297.81C209.45 297.147 208.913 296.61 208.25 296.61C207.587 296.61 207.05 297.147 207.05 297.81C207.05 298.473 207.587 299.01 208.25 299.01Z" fill="#515563"/>
<path d="M222.03 299.01C222.693 299.01 223.23 298.473 223.23 297.81C223.23 297.147 222.693 296.61 222.03 296.61C221.367 296.61 220.83 297.147 220.83 297.81C220.83 298.473 221.367 299.01 222.03 299.01Z" fill="#515563"/>
<path d="M235.81 299.01C236.473 299.01 237.01 298.473 237.01 297.81C237.01 297.147 236.473 296.61 235.81 296.61C235.147 296.61 234.61 297.147 234.61 297.81C234.61 298.473 235.147 299.01 235.81 299.01Z" fill="#515563"/>
<path d="M250.79 297.81C250.79 298.47 250.25 299.01 249.59 299.01C248.93 299.01 248.39 298.47 248.39 297.81C248.39 297.15 248.93 296.61 249.59 296.61C250.26 296.61 250.79 297.14 250.79 297.81Z" fill="#515563"/>
</svg>
