<svg width="24" height="24" viewBox="0 0 24 24" fill="none" xmlns="http://www.w3.org/2000/svg">
<path d="M5.57112 7.88696C5.28462 5.99996 6.61512 4.30497 8.64762 3.68397C9.0083 3.57369 9.39746 3.60508 9.73581 3.77174C10.0742 3.93841 10.3362 4.2278 10.4686 4.58097L11.1211 6.32097C11.2262 6.60088 11.2452 6.90581 11.1757 7.1966C11.1062 7.48739 10.9514 7.75078 10.7311 7.95297L8.79012 9.73046C8.69444 9.81826 8.62315 9.92936 8.58319 10.0529C8.54324 10.1765 8.53598 10.3083 8.56212 10.4355L8.58012 10.5135L8.62662 10.7085C8.86801 11.6559 9.23581 12.5666 9.72012 13.416C10.2477 14.3185 10.9024 15.1404 11.6641 15.8565L11.7241 15.9105C11.821 15.9965 11.9386 16.0559 12.0653 16.083C12.192 16.1101 12.3235 16.1039 12.4471 16.065L14.9566 15.2745C15.2418 15.1849 15.5473 15.1826 15.8338 15.2679C16.1203 15.3531 16.3748 15.5221 16.5646 15.753L17.7526 17.1945C18.2476 17.7945 18.1876 18.6765 17.6191 19.206C16.0636 20.6565 13.9246 20.9535 12.4366 19.758C10.6127 18.2867 9.07505 16.4923 7.90062 14.4645C6.71666 12.4382 5.92581 10.2066 5.56962 7.88696H5.57112ZM10.1356 10.5345L11.7436 9.05847C12.1844 8.65427 12.4943 8.12757 12.6335 7.54598C12.7728 6.96439 12.735 6.35445 12.5251 5.79447L11.8741 4.05447C11.6076 3.34384 11.0802 2.76156 10.3993 2.42627C9.71847 2.09099 8.93537 2.02794 8.20962 2.24997C5.68512 3.02247 3.65862 5.28596 4.08762 8.11347C4.38762 10.0875 5.07912 12.5985 6.60462 15.2205C7.87169 17.407 9.53031 19.3417 11.4976 20.928C13.7296 22.7205 16.7086 22.1085 18.6436 20.3055C19.1973 19.7899 19.5334 19.0826 19.5833 18.3277C19.6332 17.5728 19.3931 16.8274 18.9121 16.2435L17.7241 14.8005C17.3441 14.3392 16.8349 14.0019 16.2619 13.832C15.6889 13.662 15.0782 13.667 14.5081 13.8465L12.4246 14.502C11.8867 13.9473 11.4155 13.3316 11.0206 12.6675C10.6392 11.996 10.342 11.2801 10.1356 10.536V10.5345Z" fill="white"/>
</svg>
