<svg width="24" height="24" viewBox="0 0 24 24" fill="none" xmlns="http://www.w3.org/2000/svg">
<g clip-path="url(#clip0_125_486)">
<path d="M22 14.98V24C22 25.1 21.1 26 20 26H4C2.9 26 2 25.1 2 24V12C2 10.9 2.9 10 4 10H14.1C14.04 10.32 14 10.66 14 11C14 12.48 14.65 13.79 15.67 14.71L12 17L4 12V14L12 19L17.3 15.68C17.84 15.88 18.4 16 19 16C20.13 16 21.16 15.61 22 14.98ZM16 11C16 12.66 17.34 14 19 14C20.66 14 22 12.66 22 11C22 9.34 20.66 8 19 8C17.34 8 16 9.34 16 11Z" fill="white"/>
</g>
<defs>
<clipPath id="clip0_125_486">
<rect width="24" height="24" fill="white"/>
</clipPath>
</defs>
</svg>
