<svg width="24" height="24" viewBox="0 0 24 24" fill="none" xmlns="http://www.w3.org/2000/svg">
<path d="M7.77189 2.43899L8.84789 2.09499C9.85689 1.77299 10.9349 2.29399 11.3669 3.31199L12.2269 5.33999C12.6009 6.22299 12.3929 7.26199 11.7129 7.90799L9.81789 9.70599C9.93489 10.782 10.2969 11.841 10.9029 12.883C11.4784 13.8911 12.2503 14.7735 13.1729 15.478L15.4489 14.718C16.3109 14.431 17.2509 14.762 17.7789 15.539L19.0119 17.349C19.6269 18.253 19.5159 19.499 18.7529 20.265L17.9359 21.086C17.1219 21.903 15.9589 22.2 14.8839 21.864C12.3439 21.072 10.0109 18.721 7.88089 14.811C5.74789 10.895 4.99489 7.57099 5.62289 4.84299C5.88689 3.69499 6.70389 2.77999 7.77189 2.43899Z" fill="white"/>
</svg>
