<svg width="24" height="24" viewBox="0 0 24 24" fill="none" xmlns="http://www.w3.org/2000/svg">
<path d="M9 12L11 14M12 3C11.391 2.9992 10.7918 3.15289 10.2584 3.44671C9.72495 3.74053 9.27479 4.16486 8.95 4.68C8.6554 4.60892 8.35301 4.57532 8.05 4.58C7.13815 4.61387 6.27318 4.99274 5.63 5.64C5.20785 6.07042 4.90056 6.59996 4.73632 7.18004C4.57208 7.76012 4.55615 8.37216 4.69 8.96C4.17443 9.28269 3.74903 9.73075 3.4535 10.2624C3.15797 10.794 3.00195 11.3918 3 12C3.00026 12.6099 3.15548 13.2098 3.45109 13.7433C3.7467 14.2768 4.173 14.7264 4.69 15.05C4.55742 15.6387 4.57494 16.2512 4.74094 16.8313C4.90694 17.4115 5.2161 17.9406 5.64 18.37C6.07146 18.8005 6.60517 19.1145 7.1911 19.2824C7.77703 19.4503 8.396 19.4667 8.99 19.33C9.31234 19.8376 9.75668 20.2564 10.2825 20.5481C10.8083 20.8398 11.3987 20.9952 12 21C12.6064 21.0002 13.2029 20.8472 13.7344 20.5553C14.2658 20.2633 14.7149 19.8419 15.04 19.33C15.632 19.4626 16.2479 19.4435 16.8306 19.2744C17.4132 19.1053 17.9437 18.7917 18.3727 18.3627C18.8017 17.9337 19.1153 17.4032 19.2844 16.8206C19.4535 16.2379 19.4726 15.622 19.34 15.03C19.8486 14.7047 20.2672 14.2566 20.5572 13.7271C20.8473 13.1977 20.9996 12.6037 21 12C21.0002 11.3936 20.8472 10.7971 20.5553 10.2656C20.2633 9.73417 19.8419 9.28507 19.33 8.96V8.96C19.4626 8.36799 19.4435 7.75205 19.2744 7.16941C19.1053 6.58677 18.7917 6.05631 18.3627 5.62732C17.9337 5.19832 17.4032 4.8847 16.8206 4.71559C16.2379 4.54648 15.622 4.52735 15.03 4.66C14.7047 4.15143 14.2566 3.73284 13.7271 3.44277C13.1977 3.15269 12.6037 3.00043 12 3V3ZM15 10L11 14L15 10Z" stroke="white" stroke-width="2" stroke-linecap="round" stroke-linejoin="round"/>
</svg>
