<svg width="133" height="133" viewBox="0 0 133 133" fill="none" xmlns="http://www.w3.org/2000/svg">
<path d="M66.12 132.24C29.66 132.24 0 102.58 0 66.12C0 29.66 29.66 0 66.12 0C102.58 0 132.24 29.66 132.24 66.12C132.24 102.58 102.58 132.24 66.12 132.24ZM66.12 0.819977C30.12 0.819977 0.819977 30.11 0.819977 66.12C0.819977 102.12 30.11 131.42 66.12 131.42C102.13 131.42 131.42 102.13 131.42 66.12C131.41 30.11 102.12 0.819977 66.12 0.819977Z" fill="#30323A"/>
<path d="M66.1199 125.86C33.1799 125.86 6.37988 99.06 6.37988 66.12C6.37988 33.18 33.1799 6.38 66.1199 6.38C99.0599 6.38 125.86 33.18 125.86 66.12C125.86 99.06 99.0599 125.86 66.1199 125.86ZM66.1199 8.03C34.0899 8.03 8.02988 34.09 8.02988 66.12C8.02988 98.15 34.0899 124.21 66.1199 124.21C98.1499 124.21 124.21 98.15 124.21 66.12C124.2 34.09 98.1499 8.03 66.1199 8.03Z" fill="#30323A"/>
<path d="M66.12 109.26C42.33 109.26 22.97 89.9 22.97 66.11C22.97 42.32 42.33 22.96 66.12 22.96C89.91 22.96 109.27 42.32 109.27 66.11C109.27 89.91 89.91 109.26 66.12 109.26ZM66.12 24.62C43.24 24.62 24.63 43.23 24.63 66.11C24.63 88.99 43.24 107.6 66.12 107.6C89 107.6 107.61 88.99 107.61 66.11C107.61 43.24 89 24.62 66.12 24.62Z" fill="#30323A"/>
<path d="M66.1199 101.85C46.4199 101.85 30.3899 85.82 30.3899 66.12C30.3899 46.42 46.4199 30.38 66.1199 30.38C85.8199 30.38 101.86 46.41 101.86 66.12C101.85 85.82 85.8199 101.85 66.1199 101.85ZM66.1199 31.21C46.8699 31.21 31.2099 46.87 31.2099 66.12C31.2099 85.37 46.8699 101.03 66.1199 101.03C85.3699 101.03 101.03 85.37 101.03 66.12C101.03 46.87 85.3699 31.21 66.1199 31.21Z" fill="#30323A"/>
<path d="M66.1199 88.34C53.8599 88.34 43.8899 78.37 43.8899 66.11C43.8899 53.85 53.8599 43.88 66.1199 43.88C78.3799 43.88 88.3499 53.85 88.3499 66.11C88.3499 78.37 78.3699 88.34 66.1199 88.34ZM66.1199 45.54C54.7799 45.54 45.5499 54.77 45.5499 66.11C45.5499 77.45 54.7799 86.68 66.1199 86.68C77.4599 86.68 86.6899 77.45 86.6899 66.11C86.6899 54.77 77.4599 45.54 66.1199 45.54Z" fill="#30323A"/>
<path d="M66.1201 77.16C60.0301 77.16 55.0701 72.2 55.0701 66.11C55.0701 60.02 60.0301 55.06 66.1201 55.06C72.2101 55.06 77.1701 60.02 77.1701 66.11C77.1601 72.21 72.2101 77.16 66.1201 77.16ZM66.1201 55.9C60.4801 55.9 55.9001 60.49 55.9001 66.12C55.9001 71.76 60.4801 76.34 66.1201 76.34C71.7601 76.34 76.3401 71.76 76.3401 66.12C76.3401 60.48 71.7501 55.9 66.1201 55.9Z" fill="#30323A"/>
</svg>
