<svg width="18" height="16" viewBox="0 0 18 16" fill="none" xmlns="http://www.w3.org/2000/svg">
<path d="M9.03226 14.4516C8.60468 14.4516 8.25807 14.7982 8.25807 15.2258C8.25807 15.6534 8.60468 16 9.03226 16H15.2258C16.2235 16 17.0323 15.1912 17.0323 14.1935V1.80645C17.0323 0.808776 16.2235 0 15.2258 0H9.03226C8.60468 0 8.25806 0.34662 8.25806 0.774195C8.25806 1.20177 8.60468 1.54839 9.03226 1.54839L15.2258 1.54839C15.3683 1.54839 15.4839 1.66393 15.4839 1.80645L15.4839 14.1935C15.4839 14.3361 15.3683 14.4516 15.2258 14.4516H9.03226Z" fill="white"/>
<path fill-rule="evenodd" clip-rule="evenodd" d="M0 9.15119C0 9.86382 0.577696 10.4415 1.29032 10.4415H6.05171C6.05845 10.5173 6.0655 10.5931 6.07286 10.6688L6.12863 11.2426C6.21372 12.1181 7.14337 12.6424 7.93658 12.2623C9.62353 11.4538 11.2531 10.2406 12.547 8.8896C13.0262 8.38929 13.0262 7.60029 12.547 7.09999L12.4446 6.99307C11.1507 5.6421 9.62353 4.53578 7.93658 3.72732C7.14337 3.34718 6.21372 3.87148 6.12863 4.74694L6.07286 5.32076C6.0655 5.39651 6.05845 5.47228 6.05171 5.54808L1.29032 5.54808C0.577697 5.54808 0 6.12578 0 6.8384V9.15119ZM7.53879 9.58006C7.49493 9.19095 7.16524 8.89313 6.76952 8.89313H1.54839L1.54839 7.09647H6.76952C7.17838 7.09647 7.51676 6.77854 7.54221 6.37047C7.56094 6.0702 7.58486 5.77018 7.61399 5.47054L7.63017 5.30399C8.9771 5.99813 10.203 6.90674 11.2596 7.99479C10.8184 8.44909 10.3478 8.8721 9.85108 9.26128C9.15821 9.8042 8.41472 10.2813 7.63017 10.6856L7.61399 10.519C7.58486 10.2194 7.56094 9.91939 7.54221 9.61913C7.54139 9.60601 7.54025 9.59299 7.53879 9.58006Z" fill="white"/>
</svg>
