<svg width="179" height="178" viewBox="0 0 179 178" fill="none" xmlns="http://www.w3.org/2000/svg">
<path d="M82.3146 119.883C78.7548 122.267 75.0971 122.74 71.5537 119.997C68.0266 117.27 67.7001 113.563 69.0718 108.991C64.4507 109.987 60.2868 109.971 57.5598 105.84C55.2248 102.313 55.7799 98.8508 58.0986 95.5197C58.3925 95.2421 58.6702 94.9646 58.9641 94.687C60.6133 93.4949 62.5401 92.3519 64.4506 92.7275C67.9614 93.4296 67.3245 91.7967 67.5041 89.3311C67.7654 85.9183 67.4062 84.514 63.5689 85.0692C62.1809 85.2651 60.5807 84.0241 59.0621 83.4363C58.6538 83.028 58.262 82.6361 57.8537 82.2279C55.8126 78.8315 55.1921 75.3534 57.6578 71.908C60.3847 68.087 64.2546 67.7604 69.0064 69.034C67.798 64.364 67.9777 60.2654 72.0926 57.5548C75.6033 55.236 79.0488 55.8239 82.3636 58.11C82.6412 58.4039 82.9187 58.6815 83.1963 58.9754C83.8658 60.641 85.3354 62.4208 85.0742 63.9231C84.3883 67.9727 86.3151 67.2379 89.1237 67.4665C92.5038 67.7441 92.7978 66.8296 92.6998 63.9394C92.6508 62.3065 93.9245 60.6247 94.6104 58.9754C94.9043 58.6652 95.2145 58.3712 95.5084 58.061C99.0518 55.5789 102.693 55.1544 106.253 57.8487C109.796 60.543 110.221 64.2497 108.849 68.7891C113.356 68.0053 117.569 67.8094 120.312 71.9733C122.647 75.5004 122.125 78.9458 119.904 82.3095C119.561 82.6525 119.218 82.9954 118.875 83.3219C117.193 83.9751 115.43 85.3304 113.846 85.1508C110.417 84.7589 110.449 85.9836 110.498 88.8901C110.547 91.6987 110.368 93.0704 113.862 92.6785C115.446 92.4989 117.21 93.8542 118.875 94.5237C119.218 94.8666 119.577 95.2095 119.92 95.5687C122.288 99.1121 122.761 102.754 120.035 106.281C117.34 109.775 113.699 110.33 109.127 108.844C110.058 113.563 109.894 117.858 105.551 120.568C102.203 122.642 98.8885 122.071 95.7207 120.046C95.2962 119.621 94.8552 119.18 94.4307 118.756C92.7488 116.274 92.3242 113.482 92.7814 110.575C87.997 110.036 84.0128 110.167 84.5027 116.519C84.568 117.286 83.7188 118.103 83.2943 118.903C82.9514 119.246 82.6411 119.572 82.3146 119.883ZM105.257 105.284C102.514 103.619 108.278 98.3773 102.154 98.361C99.0192 98.3447 98.3006 99.4223 98.317 102.313C98.366 108.371 103.526 102.623 105.257 105.284ZM72.7458 105.35C74.4277 103.047 80.5511 108.501 79.4897 101.023C78.6406 95.0789 74.8685 99.7653 72.7784 98.2303C73.6275 100.712 72.7295 102.786 72.7458 105.35ZM105.469 72.7571C98.219 73.5082 98.3987 73.5245 98.1864 75.2228C97.4679 81.0685 101.893 79.0764 105.322 79.9909C104.293 77.2802 105.077 75.0595 105.469 72.7571ZM72.6804 72.4305C73.0886 75.0758 73.3336 77.3292 72.9417 79.8929C74.9339 78.0967 78.9507 82.5218 79.6202 76.6434C80.453 69.3606 74.297 75.1411 72.6804 72.4305ZM86.1356 88.5146C86.2499 90.0659 85.0905 92.2703 88.2583 91.6661C89.8586 91.3558 91.9324 92.4989 91.6548 89.1514C91.4752 86.8817 91.3609 85.9999 88.7645 86.1632C86.8214 86.2938 85.4171 86.0979 86.1356 88.5146Z" fill="#363A49"/>
<path d="M83.1962 58.9925C82.9186 58.6986 82.6411 58.421 82.3635 58.1271C82.3145 57.7678 82.3635 57.3596 82.2165 57.0493C80.3713 52.9834 80.306 49.1298 84.0944 46.1579C87.1642 43.7412 90.6422 43.7249 93.7284 46.1252C97.5331 49.0645 97.4841 52.9344 95.6716 57.0004C95.5246 57.3269 95.5573 57.7188 95.5083 58.0781C95.2144 58.3883 94.9042 58.6823 94.6102 58.9925C90.8056 60.5601 87.0009 60.5111 83.1962 58.9925Z" fill="#363A49"/>
<path d="M119.904 95.6021C119.561 95.2592 119.202 94.9163 118.859 94.557C117.259 90.8177 117.292 87.0947 118.859 83.3554C119.202 83.0124 119.545 82.6695 119.888 82.343C121.096 81.9674 122.288 81.4939 123.529 81.2652C127.056 80.5958 130.093 81.4449 132.118 84.58C133.963 87.4376 133.963 90.4585 132.135 93.3324C130.11 96.4675 127.089 97.333 123.562 96.6798C122.321 96.4512 121.129 95.9614 119.904 95.6021Z" fill="#363A49"/>
<path d="M94.3981 118.773C94.8226 119.214 95.2635 119.638 95.688 120.063C95.9167 120.945 96.1616 121.81 96.3902 122.692C97.3699 126.415 96.7821 129.73 93.4673 132.032C90.4301 134.122 87.1643 134.089 84.1761 131.918C80.9266 129.55 80.4041 126.219 81.4981 122.512C81.7594 121.63 82.037 120.765 82.2982 119.9C82.6085 119.573 82.9351 119.263 83.2454 118.936C86.952 117.369 90.6751 117.401 94.3981 118.773Z" fill="#363A49"/>
<path d="M58.9476 94.7041C58.6537 94.9817 58.3761 95.2593 58.0821 95.5369C53.6243 96.9575 49.1503 98.2311 45.8191 93.4304C43.876 90.6381 43.8433 87.5846 45.6885 84.7107C48.8563 79.7957 53.3468 80.8898 57.8536 82.2451C58.2618 82.6533 58.6537 83.0452 59.0619 83.4534C60.5479 87.2254 60.4009 90.9647 58.9476 94.7041Z" fill="#363A49"/>
<path d="M133.13 113.204C133.212 117.336 129.505 121.059 125.374 120.977C121.455 120.895 117.961 117.417 117.879 113.498C117.798 109.351 121.488 105.644 125.636 105.726C129.554 105.807 133.049 109.285 133.13 113.204Z" fill="#363A49"/>
<path d="M52.4164 120.912C48.3341 120.961 44.6601 117.221 44.7907 113.139C44.905 109.253 48.3994 105.824 52.2857 105.791C56.3679 105.742 60.042 109.481 59.9114 113.564C59.7808 117.45 56.3027 120.879 52.4164 120.912Z" fill="#363A49"/>
<path d="M72.1256 125.288C72.2889 129.371 68.6475 133.143 64.5326 133.143C60.6463 133.143 57.1193 129.73 56.956 125.827C56.7927 121.745 60.434 117.973 64.5489 117.973C68.4352 117.973 71.9623 121.369 72.1256 125.288Z" fill="#363A49"/>
<path d="M125.08 72.1856C120.949 71.9244 117.52 67.9401 117.928 63.8905C118.336 59.9552 122.059 56.7384 125.929 56.9833C130.061 57.2446 133.506 61.2289 133.081 65.2784C132.673 69.2137 128.934 72.4306 125.08 72.1856Z" fill="#363A49"/>
<path d="M52.073 57.0164C55.9266 56.8694 59.5681 60.1352 59.8783 64.0378C60.2049 68.0874 56.7104 71.9738 52.5955 72.1371C48.5133 72.3004 44.7576 68.659 44.774 64.5604C44.7903 60.6904 48.1867 57.1797 52.073 57.0164Z" fill="#363A49"/>
<path d="M120.916 52.4281C120.9 56.5593 117.111 60.1843 112.996 60.0047C109.077 59.8251 105.681 56.2817 105.697 52.3628C105.714 48.2315 109.518 44.6065 113.617 44.7861C117.536 44.9657 120.932 48.5255 120.916 52.4281Z" fill="#363A49"/>
<path d="M64.5647 44.8351C68.6633 44.8515 72.2883 48.6398 72.0924 52.7057C71.9128 56.6083 68.3694 59.9721 64.4995 59.9558C60.4009 59.9394 56.7758 56.1511 56.9717 52.0852C57.1513 48.1826 60.6948 44.8025 64.5647 44.8351Z" fill="#363A49"/>
<path d="M120.916 125.451C120.965 129.566 117.242 133.256 113.127 133.142C109.208 133.028 105.763 129.55 105.714 125.631C105.665 121.499 109.371 117.825 113.503 117.94C117.422 118.054 120.851 121.532 120.916 125.451Z" fill="#363A49"/>
<path d="M69.6758 137.306C70.2963 133.012 72.713 130.709 77.0402 130.758C81.1714 130.807 84.1923 134.318 83.6698 138.466C83.1146 142.809 80.404 144.981 76.1421 144.671C71.7659 144.36 69.8064 141.535 69.6758 137.306Z" fill="#363A49"/>
<path d="M137.686 108.257C133.392 107.881 130.877 105.644 130.665 101.284C130.469 97.1366 133.833 93.8382 137.98 94.1484C142.307 94.475 144.757 97.006 144.691 101.317C144.61 105.677 141.964 107.897 137.686 108.257Z" fill="#363A49"/>
<path d="M47.1416 101.088C46.815 105.383 44.6269 108.028 40.2181 108.061C35.8583 108.094 33.2946 105.628 33.2456 101.252C33.1966 96.8918 35.6786 94.3445 40.0548 94.2792C44.4636 94.1976 46.717 96.7775 47.1416 101.088Z" fill="#363A49"/>
<path d="M108.213 137.666C107.902 141.928 105.714 144.606 101.354 144.736C97.0435 144.867 94.4636 142.45 94.0881 138.123C93.7288 133.976 96.9947 130.579 101.142 130.726C105.502 130.873 107.772 133.355 108.213 137.666Z" fill="#363A49"/>
<path d="M137.572 83.8612C133.261 83.404 130.795 81.1179 130.665 76.7581C130.534 72.6105 133.98 69.361 138.111 69.7529C142.438 70.1612 144.838 72.7411 144.675 77.052C144.528 81.4118 141.834 83.5673 137.572 83.8612Z" fill="#363A49"/>
<path d="M40.4308 69.7857C44.7253 70.3082 47.2074 72.6759 47.0441 77.0521C46.8808 81.4282 44.2192 83.8286 39.8756 83.6653C35.4995 83.5184 33.1154 80.8567 33.2461 76.5132C33.393 72.1044 36.1199 70.0143 40.4308 69.7857Z" fill="#363A49"/>
<path d="M83.7842 40.0346C83.327 44.623 81.041 47.1867 76.6321 47.1214C72.2396 47.056 69.7576 44.476 69.8066 40.0999C69.8556 35.7073 72.4519 33.2417 76.8281 33.2743C81.2696 33.2907 83.376 36.034 83.7842 40.0346Z" fill="#363A49"/>
<path d="M108.164 40.2789C107.755 44.5571 105.502 47.0392 101.158 47.1861C97.0108 47.3331 93.794 43.9856 94.1369 39.8381C94.4961 35.5109 97.0435 33.1268 101.338 33.2411C105.698 33.3554 107.853 36.0171 108.164 40.2789Z" fill="#363A49"/>
<path d="M52.5306 144.165C48.6933 143.724 46.1459 141.715 46.0643 137.878C45.9826 134.041 48.3993 131.559 52.204 131.461C56.025 131.363 58.5233 133.796 58.6213 137.601C58.7192 141.454 56.2209 143.528 52.5306 144.165Z" fill="#363A49"/>
<path d="M89.0255 156.395C85.2535 155.954 82.6898 153.929 82.6082 150.075C82.5265 146.222 84.9596 143.723 88.7806 143.625C92.6343 143.527 95.1325 145.977 95.2305 149.798C95.3448 153.668 92.8301 155.774 89.0255 156.395Z" fill="#363A49"/>
<path d="M150.341 82.5382C153.754 83.0934 156.073 85.1345 156.285 88.9718C156.465 92.4336 152.889 95.8137 149.476 95.3565C145.737 94.8503 143.549 92.5152 143.5 88.6942C143.451 85.4121 146.782 82.4566 150.341 82.5382Z" fill="#363A49"/>
<path d="M34.3564 88.9229C33.7359 92.8581 31.6457 95.3238 27.8084 95.2258C24.0037 95.1279 21.6034 92.6458 21.7014 88.8412C21.7994 85.0365 24.2813 82.6525 28.086 82.7341C31.9396 82.7831 33.8665 85.3958 34.3564 88.9229Z" fill="#363A49"/>
<path d="M88.8299 21.5985C92.5855 22.0394 95.1329 24.0479 95.1982 27.8852C95.2635 31.7225 92.8468 34.2045 89.0422 34.2861C85.2048 34.3678 82.7392 31.9348 82.6412 28.1301C82.5432 24.2765 85.0415 22.1864 88.8299 21.5985Z" fill="#363A49"/>
<path d="M58.7192 40.0995C58.2946 43.8388 56.3024 46.3699 52.4815 46.4515C48.6605 46.5332 46.1948 44.1328 46.0969 40.3445C45.9989 36.5398 48.4156 34.0578 52.2039 33.9598C56.0412 33.8455 58.1313 36.3112 58.7192 40.0995Z" fill="#363A49"/>
<path d="M131.955 137.861C131.334 141.666 129.228 144.164 125.358 144.066C121.537 143.952 119.088 141.453 119.186 137.6C119.284 133.779 121.798 131.346 125.636 131.427C129.506 131.509 131.514 134.089 131.955 137.861Z" fill="#363A49"/>
<path d="M125.391 33.7476C129.163 34.1885 131.726 36.2133 131.808 40.0669C131.89 43.9206 129.457 46.4189 125.619 46.5169C121.766 46.6149 119.267 44.1655 119.169 40.3445C119.088 36.4582 121.602 34.3681 125.391 33.7476Z" fill="#363A49"/>
<path d="M40.0878 119.148C44.0231 119.752 46.4887 121.842 46.4071 125.68C46.3091 129.484 43.8434 131.885 40.0224 131.803C36.2341 131.721 33.8337 129.239 33.899 125.418C33.9643 121.581 36.5607 119.654 40.0878 119.148Z" fill="#363A49"/>
<path d="M137.784 58.8456C134.012 58.3883 131.448 56.3635 131.383 52.5099C131.318 48.6562 133.751 46.1579 137.572 46.0763C141.425 45.9946 143.907 48.444 144.005 52.265C144.103 56.1349 141.589 58.2414 137.784 58.8456Z" fill="#363A49"/>
<path d="M46.5375 52.1994C46.0966 56.0203 44.1044 58.5677 40.2834 58.633C36.4625 58.7146 33.9967 56.3143 33.8987 52.5096C33.8171 48.7049 36.2175 46.2229 40.0221 46.125C43.8594 46.0433 45.917 48.5417 46.5375 52.1994Z" fill="#363A49"/>
<path d="M144.169 125.697C143.549 129.436 141.491 131.755 137.67 131.951C134.192 132.13 130.828 128.521 131.318 125.125C131.841 121.386 134.192 119.018 137.997 119.214C141.769 119.394 143.777 121.941 144.169 125.697Z" fill="#363A49"/>
<path d="M150.064 58.7149C153.803 59.1068 155.844 61.1642 155.665 64.9036C155.469 68.6919 153.117 70.5861 149.411 70.3575C145.933 70.1452 144.038 67.9898 144.087 64.5281C144.153 60.7397 146.373 58.9109 150.064 58.7149Z" fill="#363A49"/>
<path d="M150.047 119.279C146.144 118.92 144.005 116.993 144.071 113.27C144.12 109.563 146.275 107.49 149.982 107.539C153.688 107.588 155.746 109.743 155.73 113.433C155.697 117.205 153.394 118.953 150.047 119.279Z" fill="#363A49"/>
<path d="M27.7103 119.165C24.0199 118.757 22.0115 116.699 22.2238 112.992C22.4361 109.237 24.7874 107.392 28.4451 107.636C31.8905 107.865 33.7357 110.004 33.6704 113.45C33.6214 117.222 31.3843 118.985 27.7103 119.165Z" fill="#363A49"/>
<path d="M113.307 22.1706C116.998 22.4645 119.153 24.375 119.072 28.1307C118.99 31.9027 116.769 33.8785 113.046 33.7479C109.584 33.6336 107.609 31.6088 107.56 28.1307C107.494 24.3914 109.601 22.4645 113.307 22.1706Z" fill="#363A49"/>
<path d="M28.3307 70.4062C24.428 70.1776 22.2236 68.3487 22.2236 64.593C22.24 60.8537 24.3627 58.8126 28.0857 58.8616C31.5311 58.8942 33.5397 60.8537 33.6866 64.3155C33.8499 68.0711 31.7271 69.9653 28.3307 70.4062Z" fill="#363A49"/>
<path d="M119.202 149.945C118.761 153.897 116.687 155.938 112.948 155.726C109.159 155.513 107.298 153.129 107.543 149.439C107.771 145.961 109.943 144.099 113.405 144.148C117.226 144.197 118.924 146.532 119.202 149.945Z" fill="#363A49"/>
<path d="M64.7284 155.791C60.7768 155.448 58.6704 153.489 58.7847 149.749C58.899 145.977 61.1524 144.034 64.859 144.181C68.3208 144.312 70.2476 146.386 70.2966 149.847C70.3619 153.668 68.1085 155.448 64.7284 155.791Z" fill="#363A49"/>
<path d="M70.3455 28.2446C69.9373 31.9349 67.8799 33.9434 64.1732 33.7311C60.4175 33.5188 58.5723 31.1675 58.8172 27.5098C59.0458 24.0643 61.1849 22.2192 64.6303 22.2845C68.4023 22.3498 70.1659 24.5706 70.3455 28.2446Z" fill="#363A49"/>
<path d="M162.033 106.461C158.702 105.808 156.644 103.979 156.922 100.779C157.2 97.66 159.355 95.7168 162.588 96.0434C165.478 96.3373 167.324 98.3458 167.226 101.301C167.128 104.518 164.939 106.069 162.033 106.461Z" fill="#363A49"/>
<path d="M15.7739 106.264C12.6714 105.938 10.6629 104.223 10.7446 100.99C10.8099 98.0509 12.7204 96.1567 15.6596 96.1404C18.8764 96.1241 20.8359 98.1162 20.787 101.333C20.7216 104.272 18.8111 105.905 15.7739 106.264Z" fill="#363A49"/>
<path d="M100.962 10.6582C103.803 10.8542 105.877 12.3238 106.155 15.2793C106.465 18.5451 104.571 20.6842 101.37 20.8638C98.1535 21.0434 96.0797 19.035 96.047 15.8019C96.0144 12.83 97.9249 11.1481 100.962 10.6582Z" fill="#363A49"/>
<path d="M167.34 76.5951C167.03 79.6976 165.38 81.8694 162.18 81.9347C158.979 82 156.955 79.9426 156.922 76.7421C156.889 73.8029 158.816 71.8107 161.706 71.6148C164.923 71.4025 166.736 73.411 167.34 76.5951Z" fill="#363A49"/>
<path d="M15.6272 71.6798C18.4357 71.8594 20.4769 73.2964 20.7545 76.2519C21.0484 79.4851 19.2196 81.6079 16.0191 81.7875C12.8187 81.9671 10.7775 79.9913 10.7448 76.7745C10.7121 73.8189 12.5736 72.1207 15.6272 71.6798Z" fill="#363A49"/>
<path d="M81.9392 162.012C81.6126 165.098 79.9633 167.221 76.7628 167.238C73.595 167.254 71.5866 165.213 71.6029 162.029C71.6029 159.106 73.5134 157.163 76.4036 156.999C79.6041 156.836 81.4003 158.812 81.9392 162.012Z" fill="#363A49"/>
<path d="M81.8735 15.7204C81.6449 18.5943 80.11 20.6354 77.1708 20.864C73.9376 21.1089 71.7822 19.1985 71.6679 15.9817C71.5536 12.7485 73.5948 10.7237 76.8279 10.7401C79.7998 10.7564 81.449 12.6995 81.8735 15.7204Z" fill="#363A49"/>
<path d="M101.126 167.352C97.9908 166.944 95.917 165.213 95.9987 162.029C96.0803 158.861 98.1704 156.901 101.355 157.016C104.245 157.114 106.172 159.057 106.237 161.963C106.302 165.164 104.277 166.895 101.126 167.352Z" fill="#363A49"/>
<path d="M149.835 142.417C146.83 142.172 145.132 140.555 145.279 137.469C145.41 134.661 147.092 133.109 149.9 133.142C153.003 133.175 154.619 134.971 154.505 138.024C154.391 140.849 152.66 142.237 149.835 142.417Z" fill="#363A49"/>
<path d="M137.262 23.3462C140.527 23.5095 142.307 24.9954 142.275 28.0816C142.242 30.8739 140.674 32.5068 137.882 32.5721C134.829 32.6374 133.114 30.9881 133.114 27.9183C133.098 25.077 134.812 23.7218 137.262 23.3462Z" fill="#363A49"/>
<path d="M137.752 145.259C140.576 145.504 142.258 146.941 142.307 149.765C142.356 152.852 140.674 154.566 137.588 154.534C134.78 154.501 133.147 152.901 133.081 150.076C133.016 146.99 134.763 145.438 137.752 145.259Z" fill="#363A49"/>
<path d="M149.476 35.5112C152.742 35.6745 154.538 37.1605 154.505 40.2793C154.472 43.0879 152.888 44.7371 150.08 44.8024C146.994 44.8677 145.279 43.2022 145.279 40.0996C145.263 37.2584 146.977 35.8704 149.476 35.5112Z" fill="#363A49"/>
<path d="M44.7252 28.1142C44.4477 30.8738 43.0108 32.5394 40.1858 32.5231C37.0833 32.5067 35.4667 30.6779 35.6463 27.6407C35.8096 24.8485 37.5895 23.3625 40.3818 23.4931C43.2067 23.6238 44.562 25.3383 44.7252 28.1142Z" fill="#363A49"/>
<path d="M28.1349 133.142C30.9108 133.452 32.56 134.938 32.4947 137.779C32.4457 140.931 30.5679 142.498 27.5143 142.286C24.6894 142.09 23.2524 140.261 23.3994 137.453C23.579 134.595 25.3426 133.256 28.1349 133.142Z" fill="#363A49"/>
<path d="M129.848 15.6553C129.62 18.1699 128.297 19.9171 125.783 20.0477C122.974 20.1947 121.21 18.4802 121.243 15.6879C121.276 13.1732 122.941 11.573 125.472 11.5567C128.036 11.5403 129.408 13.1896 129.848 15.6553Z" fill="#363A49"/>
<path d="M56.6617 15.8347C56.3025 18.3003 54.9636 20.0149 52.4489 20.0312C49.6893 20.0476 47.9584 18.284 48.1217 15.5244C48.2687 13.0751 49.9669 11.4911 52.4815 11.5891C55.0125 11.6871 56.3188 13.369 56.6617 15.8347Z" fill="#363A49"/>
<path d="M40.1368 145.324C42.929 145.52 44.6436 146.94 44.6926 149.782C44.7416 152.901 42.9944 154.599 39.8919 154.468C37.067 154.354 35.5484 152.623 35.5973 149.814C35.6627 146.957 37.3445 145.536 40.1368 145.324Z" fill="#363A49"/>
<path d="M162.049 129.958C159.372 129.582 157.624 128.113 157.771 125.288C157.902 122.773 159.535 121.189 162.066 121.222C164.858 121.271 166.524 122.985 166.393 125.794C166.295 128.341 164.597 129.664 162.049 129.958Z" fill="#363A49"/>
<path d="M15.4309 121.206C18.1252 121.5 19.8561 122.822 19.9704 125.304C20.0847 128.064 18.3702 129.827 15.5942 129.762C13.1122 129.713 11.5446 128.031 11.5283 125.533C11.5283 122.969 13.2918 121.745 15.4309 121.206Z" fill="#363A49"/>
<path d="M28.1346 44.8187C25.0811 44.4922 23.4156 43.0389 23.4482 40.214C23.4809 37.1114 25.3097 35.4949 28.3469 35.6908C31.1392 35.8705 32.5924 37.6667 32.4781 40.4426C32.3475 43.3165 30.5187 44.5412 28.1346 44.8187Z" fill="#363A49"/>
<path d="M161.804 56.7716C159.208 56.2164 157.493 54.6978 157.804 51.9055C158.081 49.4725 159.763 47.905 162.278 48.1009C165.021 48.3132 166.621 50.1093 166.344 52.8689C166.099 55.3183 164.368 56.6083 161.804 56.7716Z" fill="#363A49"/>
<path d="M56.6942 162.305C56.2369 164.771 54.8653 166.42 52.3016 166.388C49.7707 166.355 48.1051 164.755 48.0887 162.224C48.0724 159.415 49.836 157.717 52.6446 157.88C55.1593 158.027 56.4819 159.774 56.6942 162.305Z" fill="#363A49"/>
<path d="M125.211 157.701C128.134 158.109 129.897 159.546 129.783 162.338C129.685 164.82 128.052 166.421 125.554 166.404C122.794 166.388 121.129 164.673 121.21 161.897C121.276 159.383 123.072 158.191 125.211 157.701Z" fill="#363A49"/>
<path d="M20.0359 52.5097C19.5623 55.0081 18.1744 56.6737 15.6108 56.5757C13.0961 56.4614 11.4795 54.7958 11.5775 52.2485C11.6754 49.7338 13.3574 48.1172 15.9047 48.2152C18.452 48.2968 19.7583 50.0277 20.0359 52.5097Z" fill="#363A49"/>
<path d="M178.117 88.8748C177.872 91.3568 176.582 92.7774 174.23 92.7447C171.879 92.7121 170.475 91.2751 170.491 88.9238C170.524 86.5724 171.961 85.1681 174.312 85.1844C176.68 85.2171 177.872 86.703 178.117 88.8748Z" fill="#363A49"/>
<path d="M116.655 173.883C116.573 176.12 115.593 177.41 113.699 177.589C111.544 177.802 110.107 176.659 110.041 174.438C109.96 172.233 111.266 171.009 113.47 171.041C115.43 171.058 116.312 172.397 116.655 173.883Z" fill="#363A49"/>
<path d="M85.1721 174.389C85.515 171.76 86.903 170.47 89.238 170.666C91.6221 170.862 92.7978 172.478 92.5692 174.797C92.3569 176.854 90.9689 178.063 88.8461 177.997C86.4458 177.932 85.3681 176.414 85.1721 174.389Z" fill="#363A49"/>
<path d="M67.847 174.292C67.6184 176.366 66.508 177.656 64.3362 177.558C62.4584 177.476 61.2991 176.268 61.2991 174.39C61.2991 172.235 62.589 170.994 64.7445 171.075C66.6223 171.157 67.6021 172.398 67.847 174.292Z" fill="#363A49"/>
<path d="M67.7982 3.63708C67.5369 5.51492 66.5409 6.78859 64.6304 6.80492C62.4586 6.82124 61.1687 5.46591 61.332 3.31048C61.4789 1.46531 62.7526 0.289619 64.6958 0.403922C66.6062 0.518225 67.5859 1.77558 67.7982 3.63708Z" fill="#363A49"/>
<path d="M92.5854 3.63698C92.2751 6.28228 90.8056 7.45798 88.4542 7.21304C86.3151 7.00076 85.1884 5.5638 85.3191 3.4247C85.466 0.959017 87.0336 -0.20032 89.4013 0.0282858C91.5404 0.224234 92.5201 1.71016 92.5854 3.63698Z" fill="#363A49"/>
<path d="M116.655 3.49007C116.263 5.84144 115.055 7.08245 112.915 6.85384C111.087 6.65789 109.927 5.40058 110.058 3.50641C110.205 1.35098 111.56 0.191617 113.699 0.387565C115.577 0.550856 116.426 1.93881 116.655 3.49007Z" fill="#363A49"/>
<path d="M6.8418 64.5771C6.6132 66.455 5.61706 67.745 3.70656 67.7776C1.5348 67.8266 0.22852 66.4713 0.375481 64.3159C0.506113 62.4544 1.76339 61.295 3.69022 61.3767C5.61704 61.4583 6.59687 62.7156 6.8418 64.5771Z" fill="#363A49"/>
<path d="M177.66 64.2332C177.497 66.6336 176.419 67.8909 174.231 67.9073C172.32 67.9073 171.128 66.8295 170.965 64.9517C170.785 62.8289 171.847 61.4409 174.035 61.2776C176.255 61.1143 177.317 62.4207 177.66 64.2332Z" fill="#363A49"/>
<path d="M7.1685 88.9888C7.02154 91.2749 5.78061 92.6139 3.36391 92.5323C1.22482 92.4506 0.0164732 91.1769 0.000144155 89.0542C-0.0161848 86.6375 1.35543 85.3475 3.75579 85.4291C5.91122 85.4781 7.00521 86.7844 7.1685 88.9888Z" fill="#363A49"/>
<path d="M6.84208 113.433C6.54816 115.294 5.53571 116.568 3.62522 116.552C1.45346 116.535 0.179827 115.164 0.392104 112.992C0.571723 111.163 1.87799 109.988 3.80481 110.151C5.68265 110.298 6.66246 111.555 6.84208 113.433Z" fill="#363A49"/>
<path d="M177.643 113.287C177.496 115.409 176.435 116.667 174.231 116.683C172.32 116.683 171.128 115.605 170.965 113.727C170.785 111.605 171.847 110.2 174.035 110.053C176.206 109.906 177.382 111.115 177.643 113.287Z" fill="#363A49"/>
</svg>
