<svg width="69" height="44" viewBox="0 0 69 44" fill="none" xmlns="http://www.w3.org/2000/svg">
<path d="M3.42106 43.0472V35.6838M6.84211 39.3655H0H6.84211Z" stroke="#8BD2BD" stroke-miterlimit="10"/>
<path d="M3.42106 24.9222V17.5587M6.84211 21.2405H0H6.84211Z" stroke="#8BD2BD" stroke-miterlimit="10"/>
<path d="M3.42106 7.3634V0M6.84211 3.6817H0H6.84211Z" stroke="#8BD2BD" stroke-miterlimit="10"/>
<path d="M3.42106 43.0472V35.6838M6.84211 39.3655H0H6.84211Z" stroke="#4E5263" stroke-width="2" stroke-miterlimit="10"/>
<path d="M3.42106 24.9222V17.5587M6.84211 21.2405H0H6.84211Z" stroke="#4E5263" stroke-width="2" stroke-miterlimit="10"/>
<path d="M3.42106 7.3634V0M6.84211 3.6817H0H6.84211Z" stroke="#4E5263" stroke-width="2" stroke-miterlimit="10"/>
<path d="M19.2106 43.0472V35.6838M22.6317 39.3655H15.7896H22.6317Z" stroke="#8BD2BD" stroke-miterlimit="10"/>
<path d="M19.2106 24.9222V17.5587M22.6317 21.2405H15.7896H22.6317Z" stroke="#8BD2BD" stroke-miterlimit="10"/>
<path d="M19.2106 7.3634V0M22.6317 3.6817H15.7896H22.6317Z" stroke="#8BD2BD" stroke-miterlimit="10"/>
<path d="M19.2106 43.0472V35.6838M22.6317 39.3655H15.7896H22.6317Z" stroke="#4E5263" stroke-width="2" stroke-miterlimit="10"/>
<path d="M19.2106 24.9222V17.5587M22.6317 21.2405H15.7896H22.6317Z" stroke="#4E5263" stroke-width="2" stroke-miterlimit="10"/>
<path d="M19.2106 7.3634V0M22.6317 3.6817H15.7896H22.6317Z" stroke="#4E5263" stroke-width="2" stroke-miterlimit="10"/>
<path d="M33.4211 43.0472V35.6838M36.8421 39.3655H30H36.8421Z" stroke="#8BD2BD" stroke-miterlimit="10"/>
<path d="M33.4211 24.9222V17.5587M36.8421 21.2405H30H36.8421Z" stroke="#8BD2BD" stroke-miterlimit="10"/>
<path d="M33.4211 7.3634V0M36.8421 3.6817H30H36.8421Z" stroke="#8BD2BD" stroke-miterlimit="10"/>
<path d="M33.4211 43.0472V35.6838M36.8421 39.3655H30H36.8421Z" stroke="#4E5263" stroke-width="2" stroke-miterlimit="10"/>
<path d="M33.4211 24.9222V17.5587M36.8421 21.2405H30H36.8421Z" stroke="#4E5263" stroke-width="2" stroke-miterlimit="10"/>
<path d="M33.4211 7.3634V0M36.8421 3.6817H30H36.8421Z" stroke="#4E5263" stroke-width="2" stroke-miterlimit="10"/>
<path d="M65.4211 43.0472V35.6838M68.8421 39.3655H62H68.8421Z" stroke="#8BD2BD" stroke-miterlimit="10"/>
<path d="M65.4211 24.9222V17.5587M68.8421 21.2405H62H68.8421Z" stroke="#8BD2BD" stroke-miterlimit="10"/>
<path d="M65.4211 7.3634V0M68.8421 3.6817H62H68.8421Z" stroke="#8BD2BD" stroke-miterlimit="10"/>
<path d="M65.4211 43.0472V35.6838M68.8421 39.3655H62H68.8421Z" stroke="#4E5263" stroke-width="2" stroke-miterlimit="10"/>
<path d="M65.4211 24.9222V17.5587M68.8421 21.2405H62H68.8421Z" stroke="#4E5263" stroke-width="2" stroke-miterlimit="10"/>
<path d="M65.4211 7.3634V0M68.8421 3.6817H62H68.8421Z" stroke="#4E5263" stroke-width="2" stroke-miterlimit="10"/>
<path d="M49.2106 43.0472V35.6838M52.6317 39.3655H45.7896H52.6317Z" stroke="#8BD2BD" stroke-miterlimit="10"/>
<path d="M49.2106 24.9222V17.5587M52.6317 21.2405H45.7896H52.6317Z" stroke="#8BD2BD" stroke-miterlimit="10"/>
<path d="M49.2106 7.3634V0M52.6317 3.6817H45.7896H52.6317Z" stroke="#8BD2BD" stroke-miterlimit="10"/>
<path d="M49.2106 43.0472V35.6838M52.6317 39.3655H45.7896H52.6317Z" stroke="#4E5263" stroke-width="2" stroke-miterlimit="10"/>
<path d="M49.2106 24.9222V17.5587M52.6317 21.2405H45.7896H52.6317Z" stroke="#4E5263" stroke-width="2" stroke-miterlimit="10"/>
<path d="M49.2106 7.3634V0M52.6317 3.6817H45.7896H52.6317Z" stroke="#4E5263" stroke-width="2" stroke-miterlimit="10"/>
</svg>
