<svg width="156" height="16" viewBox="0 0 156 16" fill="none" xmlns="http://www.w3.org/2000/svg">
<g clip-path="url(#clip0_12_97)">
<path d="M3.38463 6.13027C4.60602 6.13027 5.88557 6.06641 7.10696 6.00256C7.63041 6.00256 8.0957 5.9387 8.61915 5.9387C10.8293 5.81099 13.0394 5.68327 15.2495 5.55556C17.925 5.42785 20.5422 5.23627 23.2176 5.10856C26.9981 4.85313 30.7786 4.66156 34.5591 4.40613C35.4315 4.34228 36.304 4.34228 37.1764 4.27842C39.3865 4.1507 41.5966 4.02299 43.8068 3.95913C46.0169 3.83142 48.227 3.70371 50.4372 3.63985C51.3096 3.57599 52.182 3.51214 53.0544 3.51214C56.5441 3.38442 60.0919 3.25671 63.5816 3.12899C65.7336 3.06514 67.8856 3.00128 70.0957 2.87356C70.9681 2.87356 71.7824 2.80971 72.6548 2.80971C76.0281 2.74585 79.4597 2.68199 82.833 2.61814C86.2064 2.55428 89.5216 2.49042 92.8949 2.42657C93.7673 2.42657 94.6398 2.42657 95.5704 2.42657C97.7805 2.42657 99.9325 2.42657 102.143 2.42657C105.574 2.42657 108.947 2.42657 112.379 2.36271C113.484 2.36271 114.589 2.36271 115.694 2.36271C118.021 2.36271 120.347 2.36271 122.674 2.36271C122.848 2.36271 123.081 2.36271 123.255 2.36271C118.021 2.42657 112.728 2.49042 107.493 2.61814C105.283 2.68199 103.131 2.68199 100.921 2.74585C99.9906 2.74585 99.0019 2.74585 98.0713 2.80971C94.8724 2.87356 91.7317 3.00128 88.5328 3.06514C84.8687 3.19285 81.2045 3.25671 77.5403 3.38442C76.9006 3.38442 76.319 3.44828 75.6792 3.44828C73.7017 3.57599 71.7824 3.63985 69.8049 3.76756C65.8499 3.95913 61.8949 4.1507 57.94 4.34228C57.3584 4.34228 56.7767 4.40613 56.1951 4.46999C54.2758 4.5977 52.2983 4.78928 50.379 4.91699C46.8893 5.17242 43.4578 5.42785 39.9681 5.68327C39.0375 5.74713 38.0488 5.87484 37.1182 5.9387C34.9081 6.13027 32.6979 6.32184 30.4878 6.57727C27.6961 6.8327 24.8462 7.08813 22.0544 7.34355C18.1576 7.7267 14.2026 8.10984 10.3058 8.49298C9.37525 8.55684 8.44467 8.68455 7.45592 8.74841C5.76925 8.93998 4.08257 9.13155 2.39589 9.32312C2.2214 9.32312 2.04692 9.45084 2.04692 9.70626C2.04692 9.89783 2.2214 10.0894 2.39589 10.0894C3.03566 10.0894 3.61728 10.1533 4.25705 10.1533C4.14073 10.4725 4.08257 10.6641 4.08257 10.8557C4.08257 11.5581 4.60602 12.1967 5.30396 12.1967C10.1313 11.8774 14.9006 11.4943 19.728 11.2388C23.9156 11.0473 28.1032 10.7918 32.2908 10.6003C36.8856 10.3448 41.5385 10.0894 46.1332 9.89783C47.5872 9.83398 49.0413 9.77012 50.4953 9.64241C50.9024 9.64241 51.3096 9.57855 51.7749 9.57855C59.2195 9.38698 66.6642 9.13155 74.1088 8.93998C78.0638 8.81227 82.0769 8.68455 86.0319 8.6207C87.4859 8.55684 88.8818 8.55684 90.3358 8.49298C97.955 8.36527 105.574 8.23755 113.193 8.10984C116.45 8.04598 119.707 7.98212 122.964 7.91827C125.756 7.85441 128.548 7.85441 131.34 7.7267C133.666 7.66284 135.934 7.53513 138.261 7.47127C139.424 7.40741 140.587 7.40741 141.692 7.34355C144.31 7.15198 146.927 6.96041 149.544 6.76884C149.37 7.02427 149.37 7.40741 149.428 7.66284C149.486 7.98213 149.66 8.23755 149.951 8.36527C150.184 8.49298 150.533 8.6207 150.765 8.49298C151.347 8.23755 151.929 7.98212 152.452 7.7267C152.452 7.7267 152.452 7.7267 152.394 7.7267C152.452 7.7267 152.452 7.66284 152.51 7.66284C152.568 7.66284 152.627 7.59898 152.627 7.59898H152.568C152.859 7.47127 153.15 7.34355 153.499 7.15198C153.79 7.02427 154.139 6.8327 154.43 6.70499C154.779 6.51341 155.069 6.32184 155.418 6.13027C155.767 5.9387 156 5.42785 156 4.98085C156 4.72542 155.942 4.53385 155.826 4.27842C155.709 4.02299 155.418 3.70371 155.128 3.63985C154.837 3.57599 154.546 3.51214 154.255 3.51214C154.197 3.51214 154.139 3.51214 154.081 3.51214C153.906 3.51214 153.674 3.51214 153.499 3.57599C153.034 3.63985 152.627 3.70371 152.161 3.70371C151.812 3.70371 151.463 3.76756 151.056 3.76756C150.068 3.83142 149.137 3.89528 148.148 4.02299C147.916 4.02299 147.625 4.08685 147.392 4.08685C147.508 3.95913 147.567 3.83142 147.567 3.70371C147.625 3.57599 147.625 3.44828 147.625 3.32056C147.625 3.25671 147.625 3.12899 147.683 3.06514C147.683 2.93742 147.683 2.80971 147.625 2.74585C147.625 2.74585 147.683 2.74585 147.683 2.68199C147.857 2.55428 148.032 2.42657 148.148 2.17114C148.265 1.97957 148.323 1.72414 148.323 1.46871C148.323 1.21328 148.265 1.02171 148.148 0.766284C148.09 0.702427 148.032 0.574713 147.974 0.510856C147.799 0.319285 147.625 0.255428 147.45 0.191571C147.101 0.063857 146.694 0 146.287 0C145.938 0 145.647 0 145.298 0C144.833 0 144.368 0 143.902 0C143.263 0 142.565 0 141.925 0C140.18 0 138.435 0 136.69 0C135.062 0 133.375 0 131.747 0C130.235 0 128.78 0 127.268 0C121.278 0 115.345 0.063857 109.355 0.127714C104.876 0.191571 100.398 0.255428 95.9193 0.255428C93.9418 0.255428 91.9062 0.319285 89.9287 0.383142C85.4503 0.510856 80.9719 0.574713 76.4934 0.702427C75.2139 0.702427 73.9343 0.766284 72.6548 0.766284C71.8987 0.766284 71.2008 0.830141 70.4447 0.830141C66.0244 1.02171 61.6041 1.21328 57.1839 1.40485C55.8462 1.46871 54.5084 1.53257 53.1126 1.59643C52.3565 1.59643 51.6004 1.66028 50.8443 1.72414C46.424 1.97957 42.0619 2.235 37.6417 2.49042C35.3734 2.61814 33.1051 2.74585 30.8368 2.93742C26.94 3.19285 23.0432 3.44828 19.2045 3.76756C15.8312 4.02299 12.4578 4.21456 9.08444 4.40613C8.56099 4.46999 8.03754 4.46999 7.45592 4.53385C6.5835 4.5977 5.71108 4.5977 4.83866 4.66156C4.08257 4.91699 3.26831 4.91699 2.51221 4.91699C2.45405 4.66156 2.2214 4.46999 2.04692 4.53385C1.52347 4.53385 1.05818 4.5977 0.534725 4.66156C0.302079 4.72542 0.0694339 4.85313 0.0112725 5.10856C-0.0468888 5.42785 0.127595 5.74713 0.360241 5.81099C0.592886 5.87484 0.825531 5.9387 1.05818 6.00256C1.29082 6.06641 1.46531 6.06642 1.69795 6.06642C2.27956 6.13027 2.80302 6.13027 3.38463 6.13027ZM139.482 4.08685C140.18 4.08685 140.936 4.08685 141.634 4.08685C141.692 4.27842 141.809 4.40613 141.925 4.53385C141.634 4.53385 141.343 4.5977 141.111 4.5977C140.587 4.5977 140.064 4.66156 139.54 4.66156C137.214 4.72542 134.946 4.85313 132.619 4.91699C131.572 4.98085 130.525 5.0447 129.478 5.0447C127.85 5.0447 126.163 5.10856 124.535 5.10856C120.754 5.17242 117.032 5.23627 113.251 5.30013C105.923 5.42785 98.6529 5.55556 91.3246 5.68327C86.0901 5.74713 80.8555 5.9387 75.621 6.13027C67.7692 6.3857 59.8593 6.57727 52.0075 6.8327C50.4372 6.89656 48.8668 6.96041 47.2964 7.08813C42.818 7.34355 38.3396 7.53513 33.8612 7.79055C29.4991 8.04598 25.0788 8.23755 20.7167 8.49298C20.3096 8.49298 19.9025 8.55684 19.4953 8.55684C20.6586 8.42912 21.8799 8.36527 23.0432 8.23755C27.1726 7.91827 31.3021 7.53513 35.4315 7.21584C36.8856 7.08813 38.3396 6.96041 39.7355 6.8327C40.4916 6.76884 41.2477 6.70499 41.9456 6.70499C46.3077 6.44956 50.6116 6.13027 54.9156 5.87484C55.7298 5.81099 56.6023 5.74713 57.4165 5.68327C58.6379 5.61942 59.8593 5.55556 61.0225 5.55556C65.4428 5.36399 69.863 5.17242 74.2833 4.98085C75.272 4.91699 76.2608 4.91699 77.1914 4.85313C77.424 4.85313 77.7148 4.85313 77.9475 4.85313C78.6454 4.85313 79.3433 4.85313 79.9831 4.78928C84.4034 4.66156 88.8818 4.5977 93.3021 4.46999C95.3377 4.40613 97.3734 4.34228 99.409 4.34228C105.981 4.27842 112.612 4.21456 119.184 4.1507C126.047 4.1507 132.794 4.08685 139.482 4.08685Z" fill="#4D5367"/>
<path d="M12.0982 15.0665C12.274 15.0665 12.4165 14.9059 12.4165 14.7078C12.4165 14.5097 12.274 14.3491 12.0982 14.3491C11.9223 14.3491 11.7798 14.5097 11.7798 14.7078C11.7798 14.9059 11.9223 15.0665 12.0982 15.0665Z" fill="#4D5367"/>
</g>
<defs>
<clipPath id="clip0_12_97">
<rect width="156" height="15.0665" fill="white"/>
</clipPath>
</defs>
</svg>
