<svg width="114" height="82" viewBox="0 0 114 82" fill="none" xmlns="http://www.w3.org/2000/svg">
<g opacity="0.5">
<path opacity="0.5" d="M3.6449 1.82245C3.6449 2.82582 2.82582 3.6449 1.82245 3.6449C0.819078 3.6449 0 2.82582 0 1.82245C0 0.819078 0.819078 0 1.82245 0C2.82582 0 3.6449 0.819078 3.6449 1.82245Z" fill="white"/>
<path opacity="0.5" d="M17.4975 3.6449C18.504 3.6449 19.3199 2.82896 19.3199 1.82245C19.3199 0.815938 18.504 0 17.4975 0C16.491 0 15.675 0.815938 15.675 1.82245C15.675 2.82896 16.491 3.6449 17.4975 3.6449Z" fill="white"/>
<path opacity="0.5" d="M33.1625 3.6449C34.1691 3.6449 34.985 2.82896 34.985 1.82245C34.985 0.815938 34.1691 0 33.1625 0C32.156 0 31.3401 0.815938 31.3401 1.82245C31.3401 2.82896 32.156 3.6449 33.1625 3.6449Z" fill="white"/>
<path opacity="0.5" d="M50.66 1.82245C50.66 2.82582 49.841 3.6449 48.8376 3.6449C47.8342 3.6449 47.0151 2.82582 47.0151 1.82245C47.0151 0.819078 47.8342 0 48.8376 0C49.841 0 50.66 0.819078 50.66 1.82245Z" fill="white"/>
<path opacity="0.5" d="M64.5024 3.6449C65.5089 3.6449 66.3248 2.82896 66.3248 1.82245C66.3248 0.815938 65.5089 0 64.5024 0C63.4959 0 62.6799 0.815938 62.6799 1.82245C62.6799 2.82896 63.4959 3.6449 64.5024 3.6449Z" fill="white"/>
<path opacity="0.5" d="M80.1774 3.6449C81.1839 3.6449 81.9999 2.82896 81.9999 1.82245C81.9999 0.815938 81.1839 0 80.1774 0C79.1709 0 78.355 0.815938 78.355 1.82245C78.355 2.82896 79.1709 3.6449 80.1774 3.6449Z" fill="white"/>
<path opacity="0.5" d="M95.8427 3.6449C96.8492 3.6449 97.6652 2.82896 97.6652 1.82245C97.6652 0.815938 96.8492 0 95.8427 0C94.8362 0 94.0203 0.815938 94.0203 1.82245C94.0203 2.82896 94.8362 3.6449 95.8427 3.6449Z" fill="white"/>
<path opacity="0.5" d="M111.518 3.6449C112.524 3.6449 113.34 2.82896 113.34 1.82245C113.34 0.815938 112.524 0 111.518 0C110.511 0 109.695 0.815938 109.695 1.82245C109.695 2.82896 110.511 3.6449 111.518 3.6449Z" fill="white"/>
<path opacity="0.5" d="M3.6449 17.4874C3.6449 18.4907 2.82582 19.3098 1.82245 19.3098C0.819078 19.3098 0 18.4907 0 17.4874C0 16.484 0.819078 15.6649 1.82245 15.6649C2.82582 15.6752 3.6449 16.484 3.6449 17.4874Z" fill="white"/>
<path opacity="0.5" d="M17.4975 19.3098C18.504 19.3098 19.3199 18.4939 19.3199 17.4874C19.3199 16.4809 18.504 15.6649 17.4975 15.6649C16.491 15.6649 15.675 16.4809 15.675 17.4874C15.675 18.4939 16.491 19.3098 17.4975 19.3098Z" fill="white"/>
<path opacity="0.5" d="M33.1625 19.3098C34.1691 19.3098 34.985 18.4939 34.985 17.4874C34.985 16.4809 34.1691 15.6649 33.1625 15.6649C32.156 15.6649 31.3401 16.4809 31.3401 17.4874C31.3401 18.4939 32.156 19.3098 33.1625 19.3098Z" fill="white"/>
<path opacity="0.5" d="M50.66 17.4874C50.66 18.4907 49.841 19.3098 48.8376 19.3098C47.8342 19.3098 47.0151 18.4907 47.0151 17.4874C47.0151 16.484 47.8342 15.6649 48.8376 15.6649C49.841 15.6752 50.66 16.484 50.66 17.4874Z" fill="white"/>
<path opacity="0.5" d="M64.5024 19.3098C65.5089 19.3098 66.3248 18.4939 66.3248 17.4874C66.3248 16.4809 65.5089 15.6649 64.5024 15.6649C63.4959 15.6649 62.6799 16.4809 62.6799 17.4874C62.6799 18.4939 63.4959 19.3098 64.5024 19.3098Z" fill="white"/>
<path opacity="0.5" d="M80.1774 19.3098C81.1839 19.3098 81.9999 18.4939 81.9999 17.4874C81.9999 16.4809 81.1839 15.6649 80.1774 15.6649C79.1709 15.6649 78.355 16.4809 78.355 17.4874C78.355 18.4939 79.1709 19.3098 80.1774 19.3098Z" fill="white"/>
<path opacity="0.5" d="M95.8427 19.3098C96.8492 19.3098 97.6652 18.4939 97.6652 17.4874C97.6652 16.4809 96.8492 15.6649 95.8427 15.6649C94.8362 15.6649 94.0203 16.4809 94.0203 17.4874C94.0203 18.4939 94.8362 19.3098 95.8427 19.3098Z" fill="white"/>
<path opacity="0.5" d="M111.518 19.3098C112.524 19.3098 113.34 18.4939 113.34 17.4874C113.34 16.4809 112.524 15.6649 111.518 15.6649C110.511 15.6649 109.695 16.4809 109.695 17.4874C109.695 18.4939 110.511 19.3098 111.518 19.3098Z" fill="white"/>
<path opacity="0.5" d="M3.6449 33.1625C3.6449 34.1658 2.82582 34.9849 1.82245 34.9849C0.819078 34.9849 0 34.1658 0 33.1625C0 32.1591 0.819078 31.34 1.82245 31.34C2.82582 31.34 3.6449 32.1591 3.6449 33.1625Z" fill="white"/>
<path opacity="0.5" d="M17.4975 34.9849C18.504 34.9849 19.3199 34.169 19.3199 33.1625C19.3199 32.156 18.504 31.34 17.4975 31.34C16.491 31.34 15.675 32.156 15.675 33.1625C15.675 34.169 16.491 34.9849 17.4975 34.9849Z" fill="white"/>
<path opacity="0.5" d="M33.1625 34.9849C34.1691 34.9849 34.985 34.169 34.985 33.1625C34.985 32.156 34.1691 31.34 33.1625 31.34C32.156 31.34 31.3401 32.156 31.3401 33.1625C31.3401 34.169 32.156 34.9849 33.1625 34.9849Z" fill="white"/>
<path opacity="0.5" d="M50.66 33.1625C50.66 34.1658 49.841 34.9849 48.8376 34.9849C47.8342 34.9849 47.0151 34.1658 47.0151 33.1625C47.0151 32.1591 47.8342 31.34 48.8376 31.34C49.841 31.34 50.66 32.1591 50.66 33.1625Z" fill="white"/>
<path opacity="0.5" d="M64.5024 34.9849C65.5089 34.9849 66.3248 34.169 66.3248 33.1625C66.3248 32.156 65.5089 31.34 64.5024 31.34C63.4959 31.34 62.6799 32.156 62.6799 33.1625C62.6799 34.169 63.4959 34.9849 64.5024 34.9849Z" fill="white"/>
<path opacity="0.5" d="M80.1774 34.9849C81.1839 34.9849 81.9999 34.169 81.9999 33.1625C81.9999 32.156 81.1839 31.34 80.1774 31.34C79.1709 31.34 78.355 32.156 78.355 33.1625C78.355 34.169 79.1709 34.9849 80.1774 34.9849Z" fill="white"/>
<path opacity="0.5" d="M95.8427 34.9849C96.8492 34.9849 97.6652 34.169 97.6652 33.1625C97.6652 32.156 96.8492 31.34 95.8427 31.34C94.8362 31.34 94.0203 32.156 94.0203 33.1625C94.0203 34.169 94.8362 34.9849 95.8427 34.9849Z" fill="white"/>
<path opacity="0.5" d="M111.518 34.9849C112.524 34.9849 113.34 34.169 113.34 33.1625C113.34 32.156 112.524 31.34 111.518 31.34C110.511 31.34 109.695 32.156 109.695 33.1625C109.695 34.169 110.511 34.9849 111.518 34.9849Z" fill="white"/>
<path opacity="0.5" d="M3.6449 48.8274C3.6449 49.8308 2.82582 50.6498 1.82245 50.6498C0.819078 50.6498 0 49.8308 0 48.8274C0 47.824 0.819078 47.0049 1.82245 47.0049C2.82582 47.0152 3.6449 47.824 3.6449 48.8274Z" fill="white"/>
<path opacity="0.5" d="M17.4975 50.6498C18.504 50.6498 19.3199 49.8339 19.3199 48.8274C19.3199 47.8209 18.504 47.0049 17.4975 47.0049C16.491 47.0049 15.675 47.8209 15.675 48.8274C15.675 49.8339 16.491 50.6498 17.4975 50.6498Z" fill="white"/>
<path opacity="0.5" d="M33.1625 50.6498C34.1691 50.6498 34.985 49.8339 34.985 48.8274C34.985 47.8209 34.1691 47.0049 33.1625 47.0049C32.156 47.0049 31.3401 47.8209 31.3401 48.8274C31.3401 49.8339 32.156 50.6498 33.1625 50.6498Z" fill="white"/>
<path opacity="0.5" d="M50.66 48.8274C50.66 49.8308 49.841 50.6498 48.8376 50.6498C47.8342 50.6498 47.0151 49.8308 47.0151 48.8274C47.0151 47.824 47.8342 47.0049 48.8376 47.0049C49.841 47.0152 50.66 47.824 50.66 48.8274Z" fill="white"/>
<path opacity="0.5" d="M64.5024 50.6498C65.5089 50.6498 66.3248 49.8339 66.3248 48.8274C66.3248 47.8209 65.5089 47.0049 64.5024 47.0049C63.4959 47.0049 62.6799 47.8209 62.6799 48.8274C62.6799 49.8339 63.4959 50.6498 64.5024 50.6498Z" fill="white"/>
<path opacity="0.5" d="M80.1774 50.6498C81.1839 50.6498 81.9999 49.8339 81.9999 48.8274C81.9999 47.8209 81.1839 47.0049 80.1774 47.0049C79.1709 47.0049 78.355 47.8209 78.355 48.8274C78.355 49.8339 79.1709 50.6498 80.1774 50.6498Z" fill="white"/>
<path opacity="0.5" d="M95.8427 50.6498C96.8492 50.6498 97.6652 49.8339 97.6652 48.8274C97.6652 47.8209 96.8492 47.0049 95.8427 47.0049C94.8362 47.0049 94.0203 47.8209 94.0203 48.8274C94.0203 49.8339 94.8362 50.6498 95.8427 50.6498Z" fill="white"/>
<path opacity="0.5" d="M111.518 50.6498C112.524 50.6498 113.34 49.8339 113.34 48.8274C113.34 47.8209 112.524 47.0049 111.518 47.0049C110.511 47.0049 109.695 47.8209 109.695 48.8274C109.695 49.8339 110.511 50.6498 111.518 50.6498Z" fill="white"/>
<path opacity="0.5" d="M3.6449 64.5025C3.6449 65.5059 2.82582 66.325 1.82245 66.325C0.819078 66.325 0 65.5059 0 64.5025C0 63.4991 0.819078 62.6801 1.82245 62.6801C2.82582 62.6801 3.6449 63.4991 3.6449 64.5025Z" fill="white"/>
<path opacity="0.5" d="M17.4975 66.325C18.504 66.325 19.3199 65.509 19.3199 64.5025C19.3199 63.496 18.504 62.6801 17.4975 62.6801C16.491 62.6801 15.675 63.496 15.675 64.5025C15.675 65.509 16.491 66.325 17.4975 66.325Z" fill="white"/>
<path opacity="0.5" d="M33.1625 66.325C34.1691 66.325 34.985 65.509 34.985 64.5025C34.985 63.496 34.1691 62.6801 33.1625 62.6801C32.156 62.6801 31.3401 63.496 31.3401 64.5025C31.3401 65.509 32.156 66.325 33.1625 66.325Z" fill="white"/>
<path opacity="0.5" d="M50.66 64.5025C50.66 65.5059 49.841 66.325 48.8376 66.325C47.8342 66.325 47.0151 65.5059 47.0151 64.5025C47.0151 63.4991 47.8342 62.6801 48.8376 62.6801C49.841 62.6801 50.66 63.4991 50.66 64.5025Z" fill="white"/>
<path opacity="0.5" d="M64.5024 66.325C65.5089 66.325 66.3248 65.509 66.3248 64.5025C66.3248 63.496 65.5089 62.6801 64.5024 62.6801C63.4959 62.6801 62.6799 63.496 62.6799 64.5025C62.6799 65.509 63.4959 66.325 64.5024 66.325Z" fill="white"/>
<path opacity="0.5" d="M80.1774 66.325C81.1839 66.325 81.9999 65.509 81.9999 64.5025C81.9999 63.496 81.1839 62.6801 80.1774 62.6801C79.1709 62.6801 78.355 63.496 78.355 64.5025C78.355 65.509 79.1709 66.325 80.1774 66.325Z" fill="white"/>
<path opacity="0.5" d="M95.8427 66.325C96.8492 66.325 97.6652 65.509 97.6652 64.5025C97.6652 63.496 96.8492 62.6801 95.8427 62.6801C94.8362 62.6801 94.0203 63.496 94.0203 64.5025C94.0203 65.509 94.8362 66.325 95.8427 66.325Z" fill="white"/>
<path opacity="0.5" d="M111.518 66.325C112.524 66.325 113.34 65.509 113.34 64.5025C113.34 63.496 112.524 62.6801 111.518 62.6801C110.511 62.6801 109.695 63.496 109.695 64.5025C109.695 65.509 110.511 66.325 111.518 66.325Z" fill="white"/>
<path opacity="0.5" d="M3.6449 80.1776C3.6449 81.1809 2.82582 82 1.82245 82C0.819078 82 0 81.1809 0 80.1776C0 79.1742 0.819078 78.3551 1.82245 78.3551C2.82582 78.3551 3.6449 79.1639 3.6449 80.1776Z" fill="white"/>
<path opacity="0.5" d="M17.4975 82C18.504 82 19.3199 81.1841 19.3199 80.1776C19.3199 79.171 18.504 78.3551 17.4975 78.3551C16.491 78.3551 15.675 79.171 15.675 80.1776C15.675 81.1841 16.491 82 17.4975 82Z" fill="white"/>
<path opacity="0.5" d="M33.1625 82C34.1691 82 34.985 81.1841 34.985 80.1776C34.985 79.171 34.1691 78.3551 33.1625 78.3551C32.156 78.3551 31.3401 79.171 31.3401 80.1776C31.3401 81.1841 32.156 82 33.1625 82Z" fill="white"/>
<path opacity="0.5" d="M50.66 80.1776C50.66 81.1809 49.841 82 48.8376 82C47.8342 82 47.0151 81.1809 47.0151 80.1776C47.0151 79.1742 47.8342 78.3551 48.8376 78.3551C49.841 78.3551 50.66 79.1639 50.66 80.1776Z" fill="white"/>
<path opacity="0.5" d="M64.5024 82C65.5089 82 66.3248 81.1841 66.3248 80.1776C66.3248 79.171 65.5089 78.3551 64.5024 78.3551C63.4959 78.3551 62.6799 79.171 62.6799 80.1776C62.6799 81.1841 63.4959 82 64.5024 82Z" fill="white"/>
<path opacity="0.5" d="M80.1774 82C81.1839 82 81.9999 81.1841 81.9999 80.1776C81.9999 79.171 81.1839 78.3551 80.1774 78.3551C79.1709 78.3551 78.355 79.171 78.355 80.1776C78.355 81.1841 79.1709 82 80.1774 82Z" fill="white"/>
<path opacity="0.5" d="M95.8427 82C96.8492 82 97.6652 81.1841 97.6652 80.1776C97.6652 79.171 96.8492 78.3551 95.8427 78.3551C94.8362 78.3551 94.0203 79.171 94.0203 80.1776C94.0203 81.1841 94.8362 82 95.8427 82Z" fill="white"/>
<path opacity="0.5" d="M111.518 82C112.524 82 113.34 81.1841 113.34 80.1776C113.34 79.171 112.524 78.3551 111.518 78.3551C110.511 78.3551 109.695 79.171 109.695 80.1776C109.695 81.1841 110.511 82 111.518 82Z" fill="white"/>
</g>
</svg>
